# Created by Kenney (www.kenney.nl)

mtllib bridge-draw.mtl

g bridge-draw

v 0 0.03 -0.3310755 1 1 1
v 0 0.03 0.3310755 1 1 1
v -0.7920725 0.03 -0.3310755 1 1 1
v -0.7920725 0.03 0.3310755 1 1 1
v 0 0.1 0.3310755 1 1 1
v 0 0.1 0.4155377 1 1 1
v 0 -7.331913E-17 0.4155377 1 1 1
v 0 7.331913E-17 -0.4155377 1 1 1
v 0 0.1 -0.3310755 1 1 1
v 0 0.1 -0.4155377 1 1 1
v -0.9520725 0.1 0.3310755 1 1 1
v -0.9520725 0.1 0.4155377 1 1 1
v -1.002073 5.07594E-17 0.4155377 1 1 1
v -1.002073 5.07594E-17 0.3310755 1 1 1
v -1.002073 7.331913E-17 -0.4155377 1 1 1
v -1.002073 7.331913E-17 -0.3310755 1 1 1
v -1.002073 0.05 -0.4155377 1 1 1
v -1.002073 0.05 -0.3310755 1 1 1
v -1.002073 0.05 0.3310755 1 1 1
v -1.002073 0.05 0.4155377 1 1 1
v -0.9520725 0.1 -0.4155377 1 1 1
v -0.9520725 0.1 -0.3310755 1 1 1

vn 0 1 0
vn -0.07088902 0.9974842 0
vn 1 0 0
vn -0.3826834 0.9238795 0
vn 0 -1 0
vn -1 0 0
vn -0.9238795 0.3826834 0
vn -0.1414214 0.9899495 0
vn 0 0 1
vn 0 0 -1

vt 0.59375 0.085
vt 0.59375 0.225
vt 0.59375 0.025
vt 0.59375 0.125

usemtl colormap

f 3/1/2 2/1/1 1/1/1
f 2/1/1 3/1/2 4/1/2
f 6/2/3 2/1/3 5/2/3
f 7/3/3 2/1/3 6/2/3
f 7/3/3 1/1/3 2/1/3
f 8/3/3 1/1/3 7/3/3
f 8/3/3 9/2/3 1/1/3
f 9/2/3 8/3/3 10/2/3
f 11/2/4 6/2/1 5/2/1
f 6/2/1 11/2/4 12/2/4
f 13/3/5 8/3/5 7/3/5
f 8/3/5 13/3/5 14/3/5
f 14/3/5 15/3/5 8/3/5
f 15/3/5 14/3/5 16/3/5
f 16/3/6 17/4/7 15/3/6
f 17/4/7 16/3/6 18/4/7
f 3/1/2 14/3/8 4/1/2
f 14/3/8 3/1/2 16/3/8
f 13/3/6 19/4/7 14/3/6
f 19/4/7 13/3/6 20/4/7
f 21/2/4 9/2/1 10/2/1
f 9/2/1 21/2/4 22/2/4
f 19/4/7 12/2/4 11/2/4
f 12/2/4 19/4/7 20/4/7
f 17/4/7 22/2/4 21/2/4
f 22/2/4 17/4/7 18/4/7
f 6/2/9 13/3/9 7/3/9
f 13/3/9 6/2/9 20/4/9
f 20/4/9 6/2/9 12/2/9
f 19/4/10 4/1/10 14/3/10
f 5/2/10 4/1/10 19/4/10
f 5/2/10 19/4/10 11/2/10
f 4/1/10 5/2/10 2/1/10
f 17/4/10 8/3/10 15/3/10
f 8/3/10 17/4/10 10/2/10
f 10/2/10 17/4/10 21/2/10
f 9/2/9 3/1/9 1/1/9
f 3/1/9 9/2/9 18/4/9
f 18/4/9 9/2/9 22/2/9
f 18/4/9 16/3/9 3/1/9

g bridge-draw




usemtl colormap

f 3/1/2 2/1/1 1/1/1
f 2/1/1 3/1/2 4/1/2
f 6/2/3 2/1/3 5/2/3
f 7/3/3 2/1/3 6/2/3
f 7/3/3 1/1/3 2/1/3
f 8/3/3 1/1/3 7/3/3
f 8/3/3 9/2/3 1/1/3
f 9/2/3 8/3/3 10/2/3
f 11/2/4 6/2/1 5/2/1
f 6/2/1 11/2/4 12/2/4
f 13/3/5 8/3/5 7/3/5
f 8/3/5 13/3/5 14/3/5
f 14/3/5 15/3/5 8/3/5
f 15/3/5 14/3/5 16/3/5
f 16/3/6 17/4/7 15/3/6
f 17/4/7 16/3/6 18/4/7
f 3/1/2 14/3/8 4/1/2
f 14/3/8 3/1/2 16/3/8
f 13/3/6 19/4/7 14/3/6
f 19/4/7 13/3/6 20/4/7
f 21/2/4 9/2/1 10/2/1
f 9/2/1 21/2/4 22/2/4
f 19/4/7 12/2/4 11/2/4
f 12/2/4 19/4/7 20/4/7
f 17/4/7 22/2/4 21/2/4
f 22/2/4 17/4/7 18/4/7
f 6/2/9 13/3/9 7/3/9
f 13/3/9 6/2/9 20/4/9
f 20/4/9 6/2/9 12/2/9
f 19/4/10 4/1/10 14/3/10
f 5/2/10 4/1/10 19/4/10
f 5/2/10 19/4/10 11/2/10
f 4/1/10 5/2/10 2/1/10
f 17/4/10 8/3/10 15/3/10
f 8/3/10 17/4/10 10/2/10
f 10/2/10 17/4/10 21/2/10
f 9/2/9 3/1/9 1/1/9
f 3/1/9 9/2/9 18/4/9
f 18/4/9 9/2/9 22/2/9
f 18/4/9 16/3/9 3/1/9

