# Created by Kenney (www.kenney.nl)

mtllib flag-pennant.mtl

g flag-pennant

v 0.0307 -1.602965E-31 0.0307 1 1 1
v 0.0307 -1.602965E-31 -0.0307 1 1 1
v -0.0307 -1.602965E-31 0.0307 1 1 1
v -0.0307 -1.602965E-31 -0.0307 1 1 1
v -0.017499 0.786631 -0.017499 1 1 1
v 0.017499 0.786631 -0.017499 1 1 1
v 0.017499 0.786631 0.017499 1 1 1
v -0.017499 0.786631 0.017499 1 1 1
v 0.05318774 0 0.0354585 1 1 1
v 0.05318774 0 -0.0354585 1 1 1
v 0.0354585 0 0.05318776 1 1 1
v 0.0354585 0 -0.05318774 1 1 1
v -0.0354585 0 0.05318776 1 1 1
v -0.0354585 0 -0.05318774 1 1 1
v -0.05318776 0 0.0354585 1 1 1
v -0.05318776 0 -0.0354585 1 1 1
v 0.04092693 0.225 -0.02728462 1 1 1
v 0.04092693 0.225 0.02728463 1 1 1
v 0.02728462 0.225 -0.04092693 1 1 1
v 0.02728462 0.225 0.04092693 1 1 1
v -0.02728463 0.225 -0.04092693 1 1 1
v -0.02728463 0.225 0.04092693 1 1 1
v -0.04092693 0.225 -0.02728462 1 1 1
v -0.04092693 0.225 0.02728463 1 1 1
v 0.009892302 0.8656145 -0.009892302 1 1 1
v 0.009892302 0.8656145 0.009892302 1 1 1
v -0.009892302 0.8656145 -0.009892302 1 1 1
v -0.009892302 0.8656145 0.009892302 1 1 1
v -0.02869369 0.8147798 -0.02869369 1 1 1
v -0.02869369 0.8147798 0.02869369 1 1 1
v 0.02869369 0.8147798 -0.02869369 1 1 1
v 0.02869369 0.8147798 0.02869369 1 1 1
v -0.02817804 0.6589226 -0.4380329 1 1 1
v 0 0.64 -0.4007 1 1 1
v 0 0.7 -0.4007 1 1 1
v -0.02520404 0.7 -0.4381354 1 1 1
v -0.02817804 0.6814873 -0.4831622 1 1 1
v 0.03520806 0.7155981 -0.3507861 1 1 1
v -0.02520404 0.7 -0.4832646 1 1 1
v 0 0.7 -0.5207 1 1 1
v 0 0.75 -0.2407 1 1 1
v 0.03463962 0.6125122 -0.2906054 1 1 1
v 0 0.6 -0.2407 1 1 1
v 0.03463962 0.6275553 -0.3507777 1 1 1
v 0.03520806 0.7344019 -0.2906138 1 1 1
v -0.04410708 0.75 -0.09621188 1 1 1
v -0.04410708 0.6 -0.09621188 1 1 1
v 0 0.75 -0.0307 1 1 1
v 0 0.6 -0.0307 1 1 1
v -0.04410708 0.75 -0.1751881 1 1 1
v -0.04410708 0.6 -0.1751881 1 1 1
v 0.04605 0.6 0.03070001 1 1 1
v 0.04605 0.6 -0.0307 1 1 1
v 0.0307 0.6 0.04605 1 1 1
v 0.0307 0.6 -0.04605 1 1 1
v -0.03070001 0.6 0.04605 1 1 1
v -0.03070001 0.6 -0.04605 1 1 1
v -0.04605 0.6 0.03070001 1 1 1
v -0.04605 0.6 -0.0307 1 1 1
v 0.04605 0.75 -0.0307 1 1 1
v 0.04605 0.75 0.03070001 1 1 1
v 0.0307 0.75 -0.04605 1 1 1
v 0.0307 0.75 0.04605 1 1 1
v -0.03070001 0.75 -0.04605 1 1 1
v -0.03070001 0.75 0.04605 1 1 1
v -0.04605 0.75 -0.0307 1 1 1
v -0.04605 0.75 0.03070001 1 1 1

vn 0 -1 0
vn 0 0.01677933 -0.9998592
vn 0 0.01677933 0.9998592
vn 0.9998592 0.01677933 0
vn -0.9998592 0.01677933 0
vn 0 1 0
vn 0.9231842 0.06407431 0.3789795
vn 0.9208186 0.06415243 0.3846783
vn 0.3789795 0.06407431 0.9231842
vn 0.3846783 0.06415243 0.9208186
vn -0.9208186 0.06415243 -0.3846783
vn -0.3846783 0.06415243 -0.9208186
vn -0.9231842 0.06407431 -0.3789795
vn -0.3789795 0.06407431 -0.9231842
vn -0.3846783 0.06415243 0.9208186
vn -0.9208186 0.06415243 0.3846783
vn -0.3789795 0.06407431 0.9231842
vn -0.9231842 0.06407431 0.3789795
vn 0.9208186 0.06415243 -0.3846783
vn 0.9231842 0.06407431 -0.3789795
vn 0.3846783 0.06415243 -0.9208186
vn 0.3789795 0.06407431 -0.9231842
vn -0.9999596 -0.008994308 0
vn -0.9292124 -0.369546 0
vn 0.9999596 -0.008994308 0
vn 0.9292124 -0.369546 0
vn 0 -0.369546 0.9292124
vn 0 -0.008994308 0.9999596
vn 0 -0.369546 -0.9292124
vn 0 -0.008994308 -0.9999596
vn 0 0.3468881 -0.9379066
vn 0 0.3468881 0.9379066
vn 0.9379066 0.3468881 0
vn -0.9379066 0.3468881 0
vn 0.9157874 -0.04470051 -0.3991683
vn 0.8110806 -0.001978689 -0.584931
vn 0.8150993 -0.01306228 -0.579174
vn -0.8150993 0.01306228 0.579174
vn -0.8110806 0.001978689 0.584931
vn -0.9157874 0.04470051 0.3991683
vn 0.9481598 -0.0806606 -0.3073873
vn 0.9726946 -0.1301278 0.1921768
vn -0.9726946 0.1301278 -0.1921768
vn -0.9481598 0.0806606 0.3073873
vn 0.9690658 -0.005158313 -0.2467482
vn -0.9690658 0.005158313 0.2467482
vn 0.9427068 -0.1497922 0.2981043
vn 0.8225748 -0.1290785 0.5538135
vn -0.8225748 0.1290785 -0.5538135
vn -0.9427068 0.1497922 -0.2981043
vn 0.8243663 -0.001179114 0.5660555
vn 0.9395335 -0.002619846 0.342447
vn 0.825805 0 0.5639558
vn -0.825805 0 -0.5639558
vn -0.9395335 0.002619846 -0.342447
vn -0.8243663 0.001179114 -0.5660555
vn 0.9662687 -0.005496143 -0.2574774
vn -0.9662687 0.005496143 0.2574774
vn 0.9342865 -0.004791873 0.3564909
vn -0.9342865 0.004791873 -0.3564909
vn 0.9564293 0 -0.2919638
vn 0.8295143 0 -0.5584855
vn -0.8295143 0 0.5584855
vn -0.9564293 0 0.2919638
vn 0.9564293 0 0.2919638
vn -0.9564293 0 -0.2919638
vn 0.9238795 0 -0.3826834
vn 0.9238795 0 0.3826834
vn -0.3826834 0 -0.9238795
vn 0.3826834 0 -0.9238795
vn -0.9238795 0 -0.3826834
vn -0.9238795 0 0.3826834
vn 0.3826834 0 0.9238795
vn -0.3826834 0 0.9238795

vt 0.59375 0.025
vt 0.59375 0.2067509
vt 0.59375 0.225
vt 0.59375 0.475
vt 0.59375 0.4632547
vt 0.59375 0.4567509
vt 0.59375 0.3535634
vt 0.59375 0.3283333
vt 0.59375 0.4083333
vt 0.59375 0.3836496
vt 0.59375 0.4291307
vt 0.59375 0.2916829
vt 0.59375 0.275
vt 0.59375 0.3117404
vt 0.59375 0.4542026

usemtl colormap

f 3/1/1 2/1/1 1/1/1
f 2/1/1 3/1/1 4/1/1
f 5/2/2 2/1/2 4/1/2
f 2/1/2 5/2/2 6/2/2
f 7/2/3 3/1/3 1/1/3
f 3/1/3 7/2/3 8/2/3
f 6/2/4 1/1/4 2/1/4
f 1/1/4 6/2/4 7/2/4
f 3/1/5 5/2/5 4/1/5
f 5/2/5 3/1/5 8/2/5
f 11/1/1 10/1/1 9/1/1
f 10/1/1 11/1/1 12/1/1
f 12/1/1 11/1/1 13/1/1
f 12/1/1 13/1/1 14/1/1
f 14/1/1 13/1/1 15/1/1
f 14/1/1 15/1/1 16/1/1
f 19/3/6 18/3/6 17/3/6
f 18/3/6 19/3/6 20/3/6
f 20/3/6 19/3/6 21/3/6
f 20/3/6 21/3/6 22/3/6
f 22/3/6 21/3/6 23/3/6
f 22/3/6 23/3/6 24/3/6
f 20/3/9 9/1/8 18/3/7
f 9/1/8 20/3/9 11/1/10
f 23/3/13 14/1/12 16/1/11
f 14/1/12 23/3/13 21/3/14
f 22/3/17 15/1/16 13/1/15
f 15/1/16 22/3/17 24/3/18
f 15/1/16 23/3/13 16/1/11
f 23/3/13 15/1/16 24/3/18
f 20/3/9 13/1/15 11/1/10
f 13/1/15 20/3/9 22/3/17
f 17/3/20 9/1/8 10/1/19
f 9/1/8 17/3/20 18/3/7
f 19/3/22 10/1/19 12/1/21
f 10/1/19 19/3/22 17/3/20
f 21/3/14 12/1/21 14/1/12
f 12/1/21 21/3/14 19/3/22
f 27/4/6 26/4/6 25/4/6
f 26/4/6 27/4/6 28/4/6
f 5/6/24 30/5/23 29/5/23
f 30/5/23 5/6/24 8/6/24
f 32/5/25 6/6/26 31/5/25
f 6/6/26 32/5/25 7/6/26
f 32/5/28 8/6/27 7/6/27
f 8/6/27 32/5/28 30/5/28
f 29/5/30 6/6/29 5/6/29
f 6/6/29 29/5/30 31/5/30
f 27/4/31 31/5/30 29/5/30
f 31/5/30 27/4/31 25/4/31
f 26/4/32 30/5/28 32/5/28
f 30/5/28 26/4/32 28/4/32
f 25/4/33 32/5/25 31/5/25
f 32/5/25 25/4/33 26/4/33
f 30/5/23 27/4/34 29/5/23
f 27/4/34 30/5/23 28/4/34
f 35/9/37 34/8/36 33/7/35
f 33/7/40 34/8/39 35/9/38
f 33/7/35 37/10/42 36/9/41
f 36/9/44 37/10/43 33/7/40
f 38/11/45 34/8/36 35/9/37
f 35/9/38 34/8/39 38/11/46
f 37/10/42 40/9/48 39/9/47
f 39/9/50 40/9/49 37/10/43
f 43/13/53 42/12/52 41/4/51
f 41/4/56 42/12/55 43/13/54
f 35/9/37 33/7/35 36/9/41
f 36/9/44 33/7/40 35/9/38
f 44/14/57 34/8/36 38/11/45
f 38/11/46 34/8/39 44/14/58
f 41/4/51 42/12/52 45/15/59
f 45/15/60 42/12/55 41/4/56
f 36/9/41 37/10/42 39/9/47
f 39/9/50 37/10/43 36/9/44
f 45/15/59 44/14/57 38/11/45
f 42/12/52 44/14/57 45/15/59
f 38/11/46 44/14/58 45/15/60
f 45/15/60 44/14/58 42/12/55
f 48/4/62 47/13/61 46/4/61
f 47/13/61 48/4/62 49/13/62
f 46/4/64 47/13/64 48/4/63
f 49/13/63 48/4/63 47/13/64
f 46/4/61 51/13/65 50/4/65
f 51/13/65 46/4/61 47/13/61
f 50/4/66 51/13/66 46/4/64
f 47/13/64 46/4/64 51/13/66
f 50/4/65 43/13/53 41/4/51
f 43/13/53 50/4/65 51/13/65
f 41/4/56 43/13/54 50/4/66
f 51/13/66 50/4/66 43/13/54
f 54/13/1 53/13/1 52/13/1
f 53/13/1 54/13/1 55/13/1
f 55/13/1 54/13/1 56/13/1
f 55/13/1 56/13/1 57/13/1
f 57/13/1 56/13/1 58/13/1
f 57/13/1 58/13/1 59/13/1
f 62/4/6 61/4/6 60/4/6
f 61/4/6 62/4/6 63/4/6
f 63/4/6 62/4/6 64/4/6
f 63/4/6 64/4/6 65/4/6
f 65/4/6 64/4/6 66/4/6
f 65/4/6 66/4/6 67/4/6
f 61/4/68 53/13/67 60/4/67
f 53/13/67 61/4/68 52/13/68
f 64/4/69 55/13/70 57/13/69
f 55/13/70 64/4/69 62/4/70
f 58/13/72 66/4/71 59/13/71
f 66/4/71 58/13/72 67/4/72
f 63/4/73 56/13/74 54/13/73
f 56/13/74 63/4/73 65/4/74
f 63/4/73 52/13/68 61/4/68
f 52/13/68 63/4/73 54/13/73
f 60/4/67 55/13/70 62/4/70
f 55/13/70 60/4/67 53/13/67
f 66/4/71 57/13/69 59/13/71
f 57/13/69 66/4/71 64/4/69
f 65/4/74 58/13/72 56/13/74
f 58/13/72 65/4/74 67/4/72

g flag-pennant




usemtl colormap

f 3/1/1 2/1/1 1/1/1
f 2/1/1 3/1/1 4/1/1
f 5/2/2 2/1/2 4/1/2
f 2/1/2 5/2/2 6/2/2
f 7/2/3 3/1/3 1/1/3
f 3/1/3 7/2/3 8/2/3
f 6/2/4 1/1/4 2/1/4
f 1/1/4 6/2/4 7/2/4
f 3/1/5 5/2/5 4/1/5
f 5/2/5 3/1/5 8/2/5
f 11/1/1 10/1/1 9/1/1
f 10/1/1 11/1/1 12/1/1
f 12/1/1 11/1/1 13/1/1
f 12/1/1 13/1/1 14/1/1
f 14/1/1 13/1/1 15/1/1
f 14/1/1 15/1/1 16/1/1
f 19/3/6 18/3/6 17/3/6
f 18/3/6 19/3/6 20/3/6
f 20/3/6 19/3/6 21/3/6
f 20/3/6 21/3/6 22/3/6
f 22/3/6 21/3/6 23/3/6
f 22/3/6 23/3/6 24/3/6
f 20/3/9 9/1/8 18/3/7
f 9/1/8 20/3/9 11/1/10
f 23/3/13 14/1/12 16/1/11
f 14/1/12 23/3/13 21/3/14
f 22/3/17 15/1/16 13/1/15
f 15/1/16 22/3/17 24/3/18
f 15/1/16 23/3/13 16/1/11
f 23/3/13 15/1/16 24/3/18
f 20/3/9 13/1/15 11/1/10
f 13/1/15 20/3/9 22/3/17
f 17/3/20 9/1/8 10/1/19
f 9/1/8 17/3/20 18/3/7
f 19/3/22 10/1/19 12/1/21
f 10/1/19 19/3/22 17/3/20
f 21/3/14 12/1/21 14/1/12
f 12/1/21 21/3/14 19/3/22
f 27/4/6 26/4/6 25/4/6
f 26/4/6 27/4/6 28/4/6
f 5/6/24 30/5/23 29/5/23
f 30/5/23 5/6/24 8/6/24
f 32/5/25 6/6/26 31/5/25
f 6/6/26 32/5/25 7/6/26
f 32/5/28 8/6/27 7/6/27
f 8/6/27 32/5/28 30/5/28
f 29/5/30 6/6/29 5/6/29
f 6/6/29 29/5/30 31/5/30
f 27/4/31 31/5/30 29/5/30
f 31/5/30 27/4/31 25/4/31
f 26/4/32 30/5/28 32/5/28
f 30/5/28 26/4/32 28/4/32
f 25/4/33 32/5/25 31/5/25
f 32/5/25 25/4/33 26/4/33
f 30/5/23 27/4/34 29/5/23
f 27/4/34 30/5/23 28/4/34
f 35/9/37 34/8/36 33/7/35
f 33/7/40 34/8/39 35/9/38
f 33/7/35 37/10/42 36/9/41
f 36/9/44 37/10/43 33/7/40
f 38/11/45 34/8/36 35/9/37
f 35/9/38 34/8/39 38/11/46
f 37/10/42 40/9/48 39/9/47
f 39/9/50 40/9/49 37/10/43
f 43/13/53 42/12/52 41/4/51
f 41/4/56 42/12/55 43/13/54
f 35/9/37 33/7/35 36/9/41
f 36/9/44 33/7/40 35/9/38
f 44/14/57 34/8/36 38/11/45
f 38/11/46 34/8/39 44/14/58
f 41/4/51 42/12/52 45/15/59
f 45/15/60 42/12/55 41/4/56
f 36/9/41 37/10/42 39/9/47
f 39/9/50 37/10/43 36/9/44
f 45/15/59 44/14/57 38/11/45
f 42/12/52 44/14/57 45/15/59
f 38/11/46 44/14/58 45/15/60
f 45/15/60 44/14/58 42/12/55
f 48/4/62 47/13/61 46/4/61
f 47/13/61 48/4/62 49/13/62
f 46/4/64 47/13/64 48/4/63
f 49/13/63 48/4/63 47/13/64
f 46/4/61 51/13/65 50/4/65
f 51/13/65 46/4/61 47/13/61
f 50/4/66 51/13/66 46/4/64
f 47/13/64 46/4/64 51/13/66
f 50/4/65 43/13/53 41/4/51
f 43/13/53 50/4/65 51/13/65
f 41/4/56 43/13/54 50/4/66
f 51/13/66 50/4/66 43/13/54
f 54/13/1 53/13/1 52/13/1
f 53/13/1 54/13/1 55/13/1
f 55/13/1 54/13/1 56/13/1
f 55/13/1 56/13/1 57/13/1
f 57/13/1 56/13/1 58/13/1
f 57/13/1 58/13/1 59/13/1
f 62/4/6 61/4/6 60/4/6
f 61/4/6 62/4/6 63/4/6
f 63/4/6 62/4/6 64/4/6
f 63/4/6 64/4/6 65/4/6
f 65/4/6 64/4/6 66/4/6
f 65/4/6 66/4/6 67/4/6
f 61/4/68 53/13/67 60/4/67
f 53/13/67 61/4/68 52/13/68
f 64/4/69 55/13/70 57/13/69
f 55/13/70 64/4/69 62/4/70
f 58/13/72 66/4/71 59/13/71
f 66/4/71 58/13/72 67/4/72
f 63/4/73 56/13/74 54/13/73
f 56/13/74 63/4/73 65/4/74
f 63/4/73 52/13/68 61/4/68
f 52/13/68 63/4/73 54/13/73
f 60/4/67 55/13/70 62/4/70
f 55/13/70 60/4/67 53/13/67
f 66/4/71 57/13/69 59/13/71
f 57/13/69 66/4/71 64/4/69
f 65/4/74 58/13/72 56/13/74
f 58/13/72 65/4/74 67/4/72

