# Created by Kenney (www.kenney.nl)

mtllib flag-wide.mtl

g flag-wide

v -0.02869369 0.8147798 0.1915563 1 1 1
v 0.02869369 0.8147798 0.1915563 1 1 1
v -0.009892302 0.8656145 0.2103577 1 1 1
v 0.009892302 0.8656145 0.2103577 1 1 1
v 0.017499 0.786631 0.237749 1 1 1
v -0.017499 0.786631 0.237749 1 1 1
v 0.02869369 0.8147798 0.2489437 1 1 1
v -0.02869369 0.8147798 0.2489437 1 1 1
v -0.017499 0.786631 0.202751 1 1 1
v 0.017499 0.786631 0.202751 1 1 1
v 0.009892302 0.8656145 0.2301423 1 1 1
v -0.009892302 0.8656145 0.2301423 1 1 1
v 0.009892302 0.8656145 -0.2301423 1 1 1
v 0.009892302 0.8656145 -0.2103577 1 1 1
v -0.009892302 0.8656145 -0.2301423 1 1 1
v -0.009892302 0.8656145 -0.2103577 1 1 1
v -0.02869369 0.8147798 -0.2489437 1 1 1
v -0.02869369 0.8147798 -0.1915563 1 1 1
v -0.017499 0.786631 -0.237749 1 1 1
v -0.017499 0.786631 -0.202751 1 1 1
v 0.017499 0.786631 -0.202751 1 1 1
v 0.02869369 0.8147798 -0.1915563 1 1 1
v 0.017499 0.786631 -0.237749 1 1 1
v 0.02869369 0.8147798 -0.2489437 1 1 1
v 0.01781708 0.75 -0.01370933 1 1 1
v 0.01781708 0.3 -0.01370933 1 1 1
v -0.02561205 0.75 0.06870092 1 1 1
v -0.02561205 0.3 0.06870092 1 1 1
v -0.02561205 0.75 0.1255991 1 1 1
v -0.02561205 0.3 0.1255991 1 1 1
v 0 0.75 0.1742 1 1 1
v 0 0.3 0.1742 1 1 1
v 0 0.75 -0.1742 1 1 1
v 0 0.3 -0.1742 1 1 1
v -0.01447638 0.75 -0.1467299 1 1 1
v -0.01447638 0.3 -0.1467299 1 1 1
v 0.01781708 0.75 -0.05329067 1 1 1
v 0.01781708 0.3 -0.05329067 1 1 1
v -0.01447638 0.75 -0.1145701 1 1 1
v -0.01447638 0.3 -0.1145701 1 1 1
v 0 0.75 -0.0871 1 1 1
v 0 0.3 -0.0871 1 1 1
v 0.04605 0.3 0.25095 1 1 1
v 0.04605 0.3 0.18955 1 1 1
v 0.0307 0.3 0.2663 1 1 1
v 0.0307 0.3 0.1742 1 1 1
v -0.0307 0.3 0.2663 1 1 1
v -0.0307 0.3 0.1742 1 1 1
v -0.04605 0.3 0.25095 1 1 1
v -0.04605 0.3 0.18955 1 1 1
v 0.04605 0.3525 0.18955 1 1 1
v 0.04605 0.3525 0.25095 1 1 1
v 0.0307 0.3525 0.1742 1 1 1
v 0.0307 0.3525 0.2663 1 1 1
v -0.0307 0.3525 0.1742 1 1 1
v -0.0307 0.3525 0.2663 1 1 1
v -0.04605 0.3525 0.18955 1 1 1
v -0.04605 0.3525 0.25095 1 1 1
v -0.0307 0.7 0.2663 1 1 1
v -0.04605 0.7 0.25095 1 1 1
v -0.0307 0.7525 0.2663 1 1 1
v -0.04605 0.7525 0.25095 1 1 1
v 0.04605 0.7525 0.18955 1 1 1
v 0.04605 0.7 0.18955 1 1 1
v 0.04605 0.7525 0.25095 1 1 1
v 0.04605 0.7 0.25095 1 1 1
v 0.0307 0.7525 0.1742 1 1 1
v 0.0307 0.7525 0.2663 1 1 1
v -0.0307 0.7525 0.1742 1 1 1
v -0.04605 0.7525 0.18955 1 1 1
v 0.0307 0.7 0.2663 1 1 1
v -0.0307 0.7 0.1742 1 1 1
v 0.0307 0.7 0.1742 1 1 1
v -0.04605 0.7 0.18955 1 1 1
v 0.04605 0.3 -0.18955 1 1 1
v 0.04605 0.3 -0.25095 1 1 1
v 0.0307 0.3 -0.1742 1 1 1
v 0.0307 0.3 -0.2663 1 1 1
v -0.0307 0.3 -0.1742 1 1 1
v -0.0307 0.3 -0.2663 1 1 1
v -0.04605 0.3 -0.18955 1 1 1
v -0.04605 0.3 -0.25095 1 1 1
v 0.04605 0.3525 -0.25095 1 1 1
v 0.04605 0.3525 -0.18955 1 1 1
v 0.0307 0.3525 -0.2663 1 1 1
v 0.0307 0.3525 -0.1742 1 1 1
v -0.0307 0.3525 -0.2663 1 1 1
v -0.0307 0.3525 -0.1742 1 1 1
v -0.04605 0.3525 -0.25095 1 1 1
v -0.04605 0.3525 -0.18955 1 1 1
v -0.0307 0.7 -0.1742 1 1 1
v -0.04605 0.7 -0.18955 1 1 1
v -0.0307 0.7525 -0.1742 1 1 1
v -0.04605 0.7525 -0.18955 1 1 1
v 0.04605 0.7525 -0.25095 1 1 1
v 0.04605 0.7 -0.25095 1 1 1
v 0.04605 0.7525 -0.18955 1 1 1
v 0.04605 0.7 -0.18955 1 1 1
v 0.0307 0.7525 -0.2663 1 1 1
v 0.0307 0.7525 -0.1742 1 1 1
v -0.0307 0.7525 -0.2663 1 1 1
v -0.04605 0.7525 -0.25095 1 1 1
v 0.0307 0.7 -0.1742 1 1 1
v -0.0307 0.7 -0.2663 1 1 1
v 0.0307 0.7 -0.2663 1 1 1
v -0.04605 0.7 -0.25095 1 1 1
v 0.0307 0 0.25095 1 1 1
v 0.0307 0 0.18955 1 1 1
v -0.0307 0 0.25095 1 1 1
v -0.0307 0 0.18955 1 1 1
v 0.0307 0 -0.18955 1 1 1
v -0.0307 0 -0.18955 1 1 1
v 0.0307 0 -0.25095 1 1 1
v -0.0307 0 -0.25095 1 1 1
v 0.05318774 0 0.2557085 1 1 1
v 0.05318774 0 0.1847915 1 1 1
v 0.0354585 0 0.2734378 1 1 1
v 0.0354585 0 0.1670623 1 1 1
v -0.0354585 0 0.2734378 1 1 1
v -0.0354585 0 0.1670623 1 1 1
v -0.05318776 0 0.2557085 1 1 1
v -0.05318776 0 0.1847915 1 1 1
v 0.04092693 0.225 0.1929654 1 1 1
v 0.04092693 0.225 0.2475346 1 1 1
v 0.02728462 0.225 0.1793231 1 1 1
v 0.02728462 0.225 0.2611769 1 1 1
v -0.02728463 0.225 0.1793231 1 1 1
v -0.02728463 0.225 0.2611769 1 1 1
v -0.04092693 0.225 0.1929654 1 1 1
v -0.04092693 0.225 0.2475346 1 1 1
v 0.05318774 3.609557E-16 -0.1847915 1 1 1
v 0.05318774 3.609557E-16 -0.2557085 1 1 1
v 0.0354585 3.609557E-16 -0.1670623 1 1 1
v 0.0354585 3.609557E-16 -0.2734377 1 1 1
v -0.0354585 3.609557E-16 -0.1670623 1 1 1
v -0.0354585 3.609557E-16 -0.2734377 1 1 1
v -0.05318776 3.609557E-16 -0.1847915 1 1 1
v -0.05318776 3.609557E-16 -0.2557085 1 1 1
v 0.04092693 0.225 -0.2475346 1 1 1
v 0.04092693 0.225 -0.1929654 1 1 1
v 0.02728462 0.225 -0.2611769 1 1 1
v 0.02728462 0.225 -0.1793231 1 1 1
v -0.02728463 0.225 -0.2611769 1 1 1
v -0.02728463 0.225 -0.1793231 1 1 1
v -0.04092693 0.225 -0.2475346 1 1 1
v -0.04092693 0.225 -0.1929654 1 1 1

vn 0 -0.008994308 -0.9999596
vn 0 0.3468881 -0.9379066
vn 0 -0.369546 0.9292124
vn 0 -0.008994308 0.9999596
vn 0 -0.369546 -0.9292124
vn -0.9999596 -0.008994308 0
vn -0.9292124 -0.369546 0
vn 0.9999596 -0.008994308 0
vn 0.9292124 -0.369546 0
vn 0 0.3468881 0.9379066
vn -0.9379066 0.3468881 0
vn 0 1 0
vn 0.9379066 0.3468881 0
vn 0.9707402 0 0.2401319
vn -0.9707402 0 -0.2401319
vn 0.9707402 0 -0.2401319
vn 0.8846734 0 -0.4662114
vn -0.8846734 0 0.4662114
vn -0.9707402 0 0.2401319
vn 0.8846734 0 0.4662114
vn -0.8846734 0 -0.4662114
vn 0 -1 0
vn 0.9238795 0 -0.3826834
vn 0.9238795 0 0.3826834
vn -0.3826834 0 -0.9238795
vn 0.3826834 0 -0.9238795
vn -0.9238795 0 -0.3826834
vn -0.9238795 0 0.3826834
vn 0.3826834 0 0.9238795
vn -0.3826834 0 0.9238795
vn 0 0.01677933 -0.9998592
vn 0 0.01677933 0.9998592
vn 0.9998592 0.01677933 0
vn -0.9998592 0.01677933 0
vn 0.9231842 0.06407431 0.3789795
vn 0.9208186 0.06415243 0.3846783
vn 0.3789795 0.06407431 0.9231842
vn 0.3846783 0.06415243 0.9208186
vn -0.9208186 0.06415243 -0.3846783
vn -0.3846783 0.06415243 -0.9208186
vn -0.9231842 0.06407431 -0.3789795
vn -0.3789795 0.06407431 -0.9231842
vn -0.3846783 0.06415243 0.9208186
vn -0.9208186 0.06415243 0.3846783
vn -0.3789795 0.06407431 0.9231842
vn -0.9231842 0.06407431 0.3789795
vn 0.9208186 0.06415243 -0.3846783
vn 0.9231842 0.06407431 -0.3789795
vn 0.3846783 0.06415243 -0.9208186
vn 0.3789795 0.06407431 -0.9231842

vt 0.59375 0.4632547
vt 0.59375 0.475
vt 0.59375 0.4567509
vt 0.59375 0.275
vt 0.59375 0.4334158
vt 0.59375 0.025
vt 0.59375 0.2067509
vt 0.59375 0.225

usemtl colormap

f 3/2/2 2/1/1 1/1/1
f 2/1/1 3/2/2 4/2/2
f 7/1/4 6/3/3 5/3/3
f 6/3/3 7/1/4 8/1/4
f 1/1/1 10/3/5 9/3/5
f 10/3/5 1/1/1 2/1/1
f 9/3/7 8/1/6 1/1/6
f 8/1/6 9/3/7 6/3/7
f 7/1/8 10/3/9 2/1/8
f 10/3/9 7/1/8 5/3/9
f 11/2/10 8/1/4 7/1/4
f 8/1/4 11/2/10 12/2/10
f 8/1/6 3/2/11 1/1/6
f 3/2/11 8/1/6 12/2/11
f 3/2/12 11/2/12 4/2/12
f 11/2/12 3/2/12 12/2/12
f 4/2/13 7/1/8 2/1/8
f 7/1/8 4/2/13 11/2/13
f 15/2/12 14/2/12 13/2/12
f 14/2/12 15/2/12 16/2/12
f 19/3/7 18/1/6 17/1/6
f 18/1/6 19/3/7 20/3/7
f 22/1/4 20/3/3 21/3/3
f 20/3/3 22/1/4 18/1/4
f 17/1/1 23/3/5 19/3/5
f 23/3/5 17/1/1 24/1/1
f 14/2/10 18/1/4 22/1/4
f 18/1/4 14/2/10 16/2/10
f 18/1/6 15/2/11 17/1/6
f 15/2/11 18/1/6 16/2/11
f 22/1/8 23/3/9 24/1/8
f 23/3/9 22/1/8 21/3/9
f 15/2/2 24/1/1 17/1/1
f 24/1/1 15/2/2 13/2/2
f 13/2/13 22/1/8 24/1/8
f 22/1/8 13/2/13 14/2/13
f 27/2/14 26/4/14 25/2/14
f 26/4/14 27/2/14 28/4/14
f 25/2/15 26/4/15 27/2/15
f 28/4/15 27/2/15 26/4/15
f 31/2/17 30/4/16 29/2/16
f 30/4/16 31/2/17 32/4/17
f 29/2/19 30/4/19 31/2/18
f 32/4/18 31/2/18 30/4/19
f 35/2/14 34/4/20 33/2/20
f 34/4/20 35/2/14 36/4/14
f 33/2/21 34/4/21 35/2/15
f 36/4/15 35/2/15 34/4/21
f 25/2/14 38/4/16 37/2/16
f 38/4/16 25/2/14 26/4/14
f 37/2/19 38/4/19 25/2/15
f 26/4/15 25/2/15 38/4/19
f 39/2/16 36/4/14 35/2/14
f 36/4/14 39/2/16 40/4/16
f 35/2/15 36/4/15 39/2/19
f 40/4/19 39/2/19 36/4/15
f 41/2/17 40/4/16 39/2/16
f 40/4/16 41/2/17 42/4/17
f 42/4/17 41/2/17 37/2/16
f 42/4/17 37/2/16 38/4/16
f 39/2/19 40/4/19 41/2/18
f 42/4/18 41/2/18 40/4/19
f 37/2/19 41/2/18 42/4/18
f 38/4/19 37/2/19 42/4/18
f 29/2/16 28/4/14 27/2/14
f 28/4/14 29/2/16 30/4/16
f 27/2/15 28/4/15 29/2/19
f 30/4/19 29/2/19 28/4/15
f 45/4/22 44/4/22 43/4/22
f 44/4/22 45/4/22 46/4/22
f 46/4/22 45/4/22 47/4/22
f 46/4/22 47/4/22 48/4/22
f 48/4/22 47/4/22 49/4/22
f 48/4/22 49/4/22 50/4/22
f 53/4/12 52/4/12 51/4/12
f 52/4/12 53/4/12 54/4/12
f 54/4/12 53/4/12 55/4/12
f 54/4/12 55/4/12 56/4/12
f 56/4/12 55/4/12 57/4/12
f 56/4/12 57/4/12 58/4/12
f 52/4/24 44/4/23 51/4/23
f 44/4/23 52/4/24 43/4/24
f 55/4/25 46/4/26 48/4/25
f 46/4/26 55/4/25 53/4/26
f 49/4/28 57/4/27 50/4/27
f 57/4/27 49/4/28 58/4/28
f 54/4/29 47/4/30 45/4/29
f 47/4/30 54/4/29 56/4/30
f 54/4/29 43/4/24 52/4/24
f 43/4/24 54/4/29 45/4/29
f 51/4/23 46/4/26 53/4/26
f 46/4/26 51/4/23 44/4/23
f 57/4/27 48/4/25 50/4/27
f 48/4/25 57/4/27 55/4/25
f 56/4/30 49/4/28 47/4/30
f 49/4/28 56/4/30 58/4/28
f 61/2/30 60/5/28 59/5/30
f 60/5/28 61/2/30 62/2/28
f 65/2/24 64/5/23 63/2/23
f 64/5/23 65/2/24 66/5/24
f 67/2/12 65/2/12 63/2/12
f 65/2/12 67/2/12 68/2/12
f 68/2/12 67/2/12 69/2/12
f 68/2/12 69/2/12 61/2/12
f 61/2/12 69/2/12 70/2/12
f 61/2/12 70/2/12 62/2/12
f 68/2/29 59/5/30 71/5/29
f 59/5/30 68/2/29 61/2/30
f 69/2/25 73/5/26 72/5/25
f 73/5/26 69/2/25 67/2/26
f 71/5/22 64/5/22 66/5/22
f 64/5/22 71/5/22 73/5/22
f 73/5/22 71/5/22 59/5/22
f 73/5/22 59/5/22 72/5/22
f 72/5/22 59/5/22 60/5/22
f 72/5/22 60/5/22 74/5/22
f 60/5/28 70/2/27 74/5/27
f 70/2/27 60/5/28 62/2/28
f 68/2/29 66/5/24 65/2/24
f 66/5/24 68/2/29 71/5/29
f 63/2/23 73/5/26 67/2/26
f 73/5/26 63/2/23 64/5/23
f 70/2/27 72/5/25 74/5/27
f 72/5/25 70/2/27 69/2/25
f 77/4/22 76/4/22 75/4/22
f 76/4/22 77/4/22 78/4/22
f 78/4/22 77/4/22 79/4/22
f 78/4/22 79/4/22 80/4/22
f 80/4/22 79/4/22 81/4/22
f 80/4/22 81/4/22 82/4/22
f 85/4/12 84/4/12 83/4/12
f 84/4/12 85/4/12 86/4/12
f 86/4/12 85/4/12 87/4/12
f 86/4/12 87/4/12 88/4/12
f 88/4/12 87/4/12 89/4/12
f 88/4/12 89/4/12 90/4/12
f 84/4/24 76/4/23 83/4/23
f 76/4/23 84/4/24 75/4/24
f 87/4/25 78/4/26 80/4/25
f 78/4/26 87/4/25 85/4/26
f 81/4/28 89/4/27 82/4/27
f 89/4/27 81/4/28 90/4/28
f 86/4/29 79/4/30 77/4/29
f 79/4/30 86/4/29 88/4/30
f 86/4/29 75/4/24 84/4/24
f 75/4/24 86/4/29 77/4/29
f 83/4/23 78/4/26 85/4/26
f 78/4/26 83/4/23 76/4/23
f 89/4/27 80/4/25 82/4/27
f 80/4/25 89/4/27 87/4/25
f 88/4/30 81/4/28 79/4/30
f 81/4/28 88/4/30 90/4/28
f 93/2/30 92/5/28 91/5/30
f 92/5/28 93/2/30 94/2/28
f 97/2/24 96/5/23 95/2/23
f 96/5/23 97/2/24 98/5/24
f 99/2/12 97/2/12 95/2/12
f 97/2/12 99/2/12 100/2/12
f 100/2/12 99/2/12 101/2/12
f 100/2/12 101/2/12 93/2/12
f 93/2/12 101/2/12 102/2/12
f 93/2/12 102/2/12 94/2/12
f 100/2/29 91/5/30 103/5/29
f 91/5/30 100/2/29 93/2/30
f 101/2/25 105/5/26 104/5/25
f 105/5/26 101/2/25 99/2/26
f 103/5/22 96/5/22 98/5/22
f 96/5/22 103/5/22 105/5/22
f 105/5/22 103/5/22 91/5/22
f 105/5/22 91/5/22 104/5/22
f 104/5/22 91/5/22 92/5/22
f 104/5/22 92/5/22 106/5/22
f 92/5/28 102/2/27 106/5/27
f 102/2/27 92/5/28 94/2/28
f 100/2/29 98/5/24 97/2/24
f 98/5/24 100/2/29 103/5/29
f 95/2/23 105/5/26 99/2/26
f 105/5/26 95/2/23 96/5/23
f 102/2/27 104/5/25 106/5/27
f 104/5/25 102/2/27 101/2/25
f 109/6/22 108/6/22 107/6/22
f 108/6/22 109/6/22 110/6/22
f 9/7/31 108/6/31 110/6/31
f 108/6/31 9/7/31 10/7/31
f 5/7/32 109/6/32 107/6/32
f 109/6/32 5/7/32 6/7/32
f 10/7/33 107/6/33 108/6/33
f 107/6/33 10/7/33 5/7/33
f 109/6/34 9/7/34 110/6/34
f 9/7/34 109/6/34 6/7/34
f 21/7/32 112/6/32 111/6/32
f 112/6/32 21/7/32 20/7/32
f 112/6/22 113/6/22 111/6/22
f 113/6/22 112/6/22 114/6/22
f 19/7/31 113/6/31 114/6/31
f 113/6/31 19/7/31 23/7/31
f 23/7/33 111/6/33 113/6/33
f 111/6/33 23/7/33 21/7/33
f 112/6/34 19/7/34 114/6/34
f 19/7/34 112/6/34 20/7/34
f 117/6/22 116/6/22 115/6/22
f 116/6/22 117/6/22 118/6/22
f 118/6/22 117/6/22 119/6/22
f 118/6/22 119/6/22 120/6/22
f 120/6/22 119/6/22 121/6/22
f 120/6/22 121/6/22 122/6/22
f 125/8/12 124/8/12 123/8/12
f 124/8/12 125/8/12 126/8/12
f 126/8/12 125/8/12 127/8/12
f 126/8/12 127/8/12 128/8/12
f 128/8/12 127/8/12 129/8/12
f 128/8/12 129/8/12 130/8/12
f 126/8/37 115/6/36 124/8/35
f 115/6/36 126/8/37 117/6/38
f 129/8/41 120/6/40 122/6/39
f 120/6/40 129/8/41 127/8/42
f 128/8/45 121/6/44 119/6/43
f 121/6/44 128/8/45 130/8/46
f 121/6/44 129/8/41 122/6/39
f 129/8/41 121/6/44 130/8/46
f 126/8/37 119/6/43 117/6/38
f 119/6/43 126/8/37 128/8/45
f 123/8/48 115/6/36 116/6/47
f 115/6/36 123/8/48 124/8/35
f 125/8/50 116/6/47 118/6/49
f 116/6/47 125/8/50 123/8/48
f 127/8/42 118/6/49 120/6/40
f 118/6/49 127/8/42 125/8/50
f 133/6/22 132/6/22 131/6/22
f 132/6/22 133/6/22 134/6/22
f 134/6/22 133/6/22 135/6/22
f 134/6/22 135/6/22 136/6/22
f 136/6/22 135/6/22 137/6/22
f 136/6/22 137/6/22 138/6/22
f 141/8/12 140/8/12 139/8/12
f 140/8/12 141/8/12 142/8/12
f 142/8/12 141/8/12 143/8/12
f 142/8/12 143/8/12 144/8/12
f 144/8/12 143/8/12 145/8/12
f 144/8/12 145/8/12 146/8/12
f 142/8/37 131/6/36 140/8/35
f 131/6/36 142/8/37 133/6/38
f 145/8/41 136/6/40 138/6/39
f 136/6/40 145/8/41 143/8/42
f 144/8/45 137/6/44 135/6/43
f 137/6/44 144/8/45 146/8/46
f 137/6/44 145/8/41 138/6/39
f 145/8/41 137/6/44 146/8/46
f 142/8/37 135/6/43 133/6/38
f 135/6/43 142/8/37 144/8/45
f 139/8/48 131/6/36 132/6/47
f 131/6/36 139/8/48 140/8/35
f 141/8/50 132/6/47 134/6/49
f 132/6/47 141/8/50 139/8/48
f 143/8/42 134/6/49 136/6/40
f 134/6/49 143/8/42 141/8/50

g flag-wide




usemtl colormap

f 3/2/2 2/1/1 1/1/1
f 2/1/1 3/2/2 4/2/2
f 7/1/4 6/3/3 5/3/3
f 6/3/3 7/1/4 8/1/4
f 1/1/1 10/3/5 9/3/5
f 10/3/5 1/1/1 2/1/1
f 9/3/7 8/1/6 1/1/6
f 8/1/6 9/3/7 6/3/7
f 7/1/8 10/3/9 2/1/8
f 10/3/9 7/1/8 5/3/9
f 11/2/10 8/1/4 7/1/4
f 8/1/4 11/2/10 12/2/10
f 8/1/6 3/2/11 1/1/6
f 3/2/11 8/1/6 12/2/11
f 3/2/12 11/2/12 4/2/12
f 11/2/12 3/2/12 12/2/12
f 4/2/13 7/1/8 2/1/8
f 7/1/8 4/2/13 11/2/13
f 15/2/12 14/2/12 13/2/12
f 14/2/12 15/2/12 16/2/12
f 19/3/7 18/1/6 17/1/6
f 18/1/6 19/3/7 20/3/7
f 22/1/4 20/3/3 21/3/3
f 20/3/3 22/1/4 18/1/4
f 17/1/1 23/3/5 19/3/5
f 23/3/5 17/1/1 24/1/1
f 14/2/10 18/1/4 22/1/4
f 18/1/4 14/2/10 16/2/10
f 18/1/6 15/2/11 17/1/6
f 15/2/11 18/1/6 16/2/11
f 22/1/8 23/3/9 24/1/8
f 23/3/9 22/1/8 21/3/9
f 15/2/2 24/1/1 17/1/1
f 24/1/1 15/2/2 13/2/2
f 13/2/13 22/1/8 24/1/8
f 22/1/8 13/2/13 14/2/13
f 27/2/14 26/4/14 25/2/14
f 26/4/14 27/2/14 28/4/14
f 25/2/15 26/4/15 27/2/15
f 28/4/15 27/2/15 26/4/15
f 31/2/17 30/4/16 29/2/16
f 30/4/16 31/2/17 32/4/17
f 29/2/19 30/4/19 31/2/18
f 32/4/18 31/2/18 30/4/19
f 35/2/14 34/4/20 33/2/20
f 34/4/20 35/2/14 36/4/14
f 33/2/21 34/4/21 35/2/15
f 36/4/15 35/2/15 34/4/21
f 25/2/14 38/4/16 37/2/16
f 38/4/16 25/2/14 26/4/14
f 37/2/19 38/4/19 25/2/15
f 26/4/15 25/2/15 38/4/19
f 39/2/16 36/4/14 35/2/14
f 36/4/14 39/2/16 40/4/16
f 35/2/15 36/4/15 39/2/19
f 40/4/19 39/2/19 36/4/15
f 41/2/17 40/4/16 39/2/16
f 40/4/16 41/2/17 42/4/17
f 42/4/17 41/2/17 37/2/16
f 42/4/17 37/2/16 38/4/16
f 39/2/19 40/4/19 41/2/18
f 42/4/18 41/2/18 40/4/19
f 37/2/19 41/2/18 42/4/18
f 38/4/19 37/2/19 42/4/18
f 29/2/16 28/4/14 27/2/14
f 28/4/14 29/2/16 30/4/16
f 27/2/15 28/4/15 29/2/19
f 30/4/19 29/2/19 28/4/15
f 45/4/22 44/4/22 43/4/22
f 44/4/22 45/4/22 46/4/22
f 46/4/22 45/4/22 47/4/22
f 46/4/22 47/4/22 48/4/22
f 48/4/22 47/4/22 49/4/22
f 48/4/22 49/4/22 50/4/22
f 53/4/12 52/4/12 51/4/12
f 52/4/12 53/4/12 54/4/12
f 54/4/12 53/4/12 55/4/12
f 54/4/12 55/4/12 56/4/12
f 56/4/12 55/4/12 57/4/12
f 56/4/12 57/4/12 58/4/12
f 52/4/24 44/4/23 51/4/23
f 44/4/23 52/4/24 43/4/24
f 55/4/25 46/4/26 48/4/25
f 46/4/26 55/4/25 53/4/26
f 49/4/28 57/4/27 50/4/27
f 57/4/27 49/4/28 58/4/28
f 54/4/29 47/4/30 45/4/29
f 47/4/30 54/4/29 56/4/30
f 54/4/29 43/4/24 52/4/24
f 43/4/24 54/4/29 45/4/29
f 51/4/23 46/4/26 53/4/26
f 46/4/26 51/4/23 44/4/23
f 57/4/27 48/4/25 50/4/27
f 48/4/25 57/4/27 55/4/25
f 56/4/30 49/4/28 47/4/30
f 49/4/28 56/4/30 58/4/28
f 61/2/30 60/5/28 59/5/30
f 60/5/28 61/2/30 62/2/28
f 65/2/24 64/5/23 63/2/23
f 64/5/23 65/2/24 66/5/24
f 67/2/12 65/2/12 63/2/12
f 65/2/12 67/2/12 68/2/12
f 68/2/12 67/2/12 69/2/12
f 68/2/12 69/2/12 61/2/12
f 61/2/12 69/2/12 70/2/12
f 61/2/12 70/2/12 62/2/12
f 68/2/29 59/5/30 71/5/29
f 59/5/30 68/2/29 61/2/30
f 69/2/25 73/5/26 72/5/25
f 73/5/26 69/2/25 67/2/26
f 71/5/22 64/5/22 66/5/22
f 64/5/22 71/5/22 73/5/22
f 73/5/22 71/5/22 59/5/22
f 73/5/22 59/5/22 72/5/22
f 72/5/22 59/5/22 60/5/22
f 72/5/22 60/5/22 74/5/22
f 60/5/28 70/2/27 74/5/27
f 70/2/27 60/5/28 62/2/28
f 68/2/29 66/5/24 65/2/24
f 66/5/24 68/2/29 71/5/29
f 63/2/23 73/5/26 67/2/26
f 73/5/26 63/2/23 64/5/23
f 70/2/27 72/5/25 74/5/27
f 72/5/25 70/2/27 69/2/25
f 77/4/22 76/4/22 75/4/22
f 76/4/22 77/4/22 78/4/22
f 78/4/22 77/4/22 79/4/22
f 78/4/22 79/4/22 80/4/22
f 80/4/22 79/4/22 81/4/22
f 80/4/22 81/4/22 82/4/22
f 85/4/12 84/4/12 83/4/12
f 84/4/12 85/4/12 86/4/12
f 86/4/12 85/4/12 87/4/12
f 86/4/12 87/4/12 88/4/12
f 88/4/12 87/4/12 89/4/12
f 88/4/12 89/4/12 90/4/12
f 84/4/24 76/4/23 83/4/23
f 76/4/23 84/4/24 75/4/24
f 87/4/25 78/4/26 80/4/25
f 78/4/26 87/4/25 85/4/26
f 81/4/28 89/4/27 82/4/27
f 89/4/27 81/4/28 90/4/28
f 86/4/29 79/4/30 77/4/29
f 79/4/30 86/4/29 88/4/30
f 86/4/29 75/4/24 84/4/24
f 75/4/24 86/4/29 77/4/29
f 83/4/23 78/4/26 85/4/26
f 78/4/26 83/4/23 76/4/23
f 89/4/27 80/4/25 82/4/27
f 80/4/25 89/4/27 87/4/25
f 88/4/30 81/4/28 79/4/30
f 81/4/28 88/4/30 90/4/28
f 93/2/30 92/5/28 91/5/30
f 92/5/28 93/2/30 94/2/28
f 97/2/24 96/5/23 95/2/23
f 96/5/23 97/2/24 98/5/24
f 99/2/12 97/2/12 95/2/12
f 97/2/12 99/2/12 100/2/12
f 100/2/12 99/2/12 101/2/12
f 100/2/12 101/2/12 93/2/12
f 93/2/12 101/2/12 102/2/12
f 93/2/12 102/2/12 94/2/12
f 100/2/29 91/5/30 103/5/29
f 91/5/30 100/2/29 93/2/30
f 101/2/25 105/5/26 104/5/25
f 105/5/26 101/2/25 99/2/26
f 103/5/22 96/5/22 98/5/22
f 96/5/22 103/5/22 105/5/22
f 105/5/22 103/5/22 91/5/22
f 105/5/22 91/5/22 104/5/22
f 104/5/22 91/5/22 92/5/22
f 104/5/22 92/5/22 106/5/22
f 92/5/28 102/2/27 106/5/27
f 102/2/27 92/5/28 94/2/28
f 100/2/29 98/5/24 97/2/24
f 98/5/24 100/2/29 103/5/29
f 95/2/23 105/5/26 99/2/26
f 105/5/26 95/2/23 96/5/23
f 102/2/27 104/5/25 106/5/27
f 104/5/25 102/2/27 101/2/25
f 109/6/22 108/6/22 107/6/22
f 108/6/22 109/6/22 110/6/22
f 9/7/31 108/6/31 110/6/31
f 108/6/31 9/7/31 10/7/31
f 5/7/32 109/6/32 107/6/32
f 109/6/32 5/7/32 6/7/32
f 10/7/33 107/6/33 108/6/33
f 107/6/33 10/7/33 5/7/33
f 109/6/34 9/7/34 110/6/34
f 9/7/34 109/6/34 6/7/34
f 21/7/32 112/6/32 111/6/32
f 112/6/32 21/7/32 20/7/32
f 112/6/22 113/6/22 111/6/22
f 113/6/22 112/6/22 114/6/22
f 19/7/31 113/6/31 114/6/31
f 113/6/31 19/7/31 23/7/31
f 23/7/33 111/6/33 113/6/33
f 111/6/33 23/7/33 21/7/33
f 112/6/34 19/7/34 114/6/34
f 19/7/34 112/6/34 20/7/34
f 117/6/22 116/6/22 115/6/22
f 116/6/22 117/6/22 118/6/22
f 118/6/22 117/6/22 119/6/22
f 118/6/22 119/6/22 120/6/22
f 120/6/22 119/6/22 121/6/22
f 120/6/22 121/6/22 122/6/22
f 125/8/12 124/8/12 123/8/12
f 124/8/12 125/8/12 126/8/12
f 126/8/12 125/8/12 127/8/12
f 126/8/12 127/8/12 128/8/12
f 128/8/12 127/8/12 129/8/12
f 128/8/12 129/8/12 130/8/12
f 126/8/37 115/6/36 124/8/35
f 115/6/36 126/8/37 117/6/38
f 129/8/41 120/6/40 122/6/39
f 120/6/40 129/8/41 127/8/42
f 128/8/45 121/6/44 119/6/43
f 121/6/44 128/8/45 130/8/46
f 121/6/44 129/8/41 122/6/39
f 129/8/41 121/6/44 130/8/46
f 126/8/37 119/6/43 117/6/38
f 119/6/43 126/8/37 128/8/45
f 123/8/48 115/6/36 116/6/47
f 115/6/36 123/8/48 124/8/35
f 125/8/50 116/6/47 118/6/49
f 116/6/47 125/8/50 123/8/48
f 127/8/42 118/6/49 120/6/40
f 118/6/49 127/8/42 125/8/50
f 133/6/22 132/6/22 131/6/22
f 132/6/22 133/6/22 134/6/22
f 134/6/22 133/6/22 135/6/22
f 134/6/22 135/6/22 136/6/22
f 136/6/22 135/6/22 137/6/22
f 136/6/22 137/6/22 138/6/22
f 141/8/12 140/8/12 139/8/12
f 140/8/12 141/8/12 142/8/12
f 142/8/12 141/8/12 143/8/12
f 142/8/12 143/8/12 144/8/12
f 144/8/12 143/8/12 145/8/12
f 144/8/12 145/8/12 146/8/12
f 142/8/37 131/6/36 140/8/35
f 131/6/36 142/8/37 133/6/38
f 145/8/41 136/6/40 138/6/39
f 136/6/40 145/8/41 143/8/42
f 144/8/45 137/6/44 135/6/43
f 137/6/44 144/8/45 146/8/46
f 137/6/44 145/8/41 138/6/39
f 145/8/41 137/6/44 146/8/46
f 142/8/37 135/6/43 133/6/38
f 135/6/43 142/8/37 144/8/45
f 139/8/48 131/6/36 132/6/47
f 131/6/36 139/8/48 140/8/35
f 141/8/50 132/6/47 134/6/49
f 132/6/47 141/8/50 139/8/48
f 143/8/42 134/6/49 136/6/40
f 134/6/49 143/8/42 141/8/50

