# Created by Kenney (www.kenney.nl)

mtllib metal-gate.mtl

g metal-gate

v 0.0157205 0.09 -0.2364825 1 1 1
v -1.696492E-14 4.511947E-16 -0.252248 1 1 1
v -0.0157205 0.09 -0.2364825 1 1 1
v -0.0157205 0.09 -0.2680134 1 1 1
v 0.0157205 0.09 -0.2680134 1 1 1
v 0.0157205 0.7300692 -0.2364825 1 1 1
v -0.0157205 0.7300692 -0.2364825 1 1 1
v -0.0157205 0.7300692 -0.2680134 1 1 1
v 0.0157205 0.7300692 -0.2680134 1 1 1
v 0.0157205 0.09 -0.2995445 1 1 1
v -1.913065E-14 5.414336E-16 -0.3153099 1 1 1
v -0.0157205 0.09 -0.2995445 1 1 1
v -0.0157205 0.09 -0.3310754 1 1 1
v 0.0157205 0.09 -0.3310754 1 1 1
v 0.0157205 0.7300692 -0.2995445 1 1 1
v -0.0157205 0.7300692 -0.2995445 1 1 1
v -0.0157205 0.7300692 -0.3310754 1 1 1
v 0.0157205 0.7300692 -0.3310754 1 1 1
v 0.0157205 0.09 -0.1734205 1 1 1
v -1.407727E-14 4.511947E-16 -0.189186 1 1 1
v -0.0157205 0.09 -0.1734205 1 1 1
v -0.0157205 0.09 -0.2049515 1 1 1
v 0.0157205 0.09 -0.2049515 1 1 1
v 0.0157205 0.7300692 -0.1734205 1 1 1
v -0.0157205 0.7300692 -0.1734205 1 1 1
v -0.0157205 0.7300692 -0.2049515 1 1 1
v 0.0157205 0.7300692 -0.2049515 1 1 1
v 0.0157205 0.09 0.2680134 1 1 1
v 3.248601E-15 0 0.252248 1 1 1
v -0.0157205 0.09 0.2680134 1 1 1
v -0.0157205 0.09 0.2364825 1 1 1
v 0.0157205 0.09 0.2364825 1 1 1
v 0.0157205 0.7300692 0.2680134 1 1 1
v -0.0157205 0.7300692 0.2680134 1 1 1
v -0.0157205 0.7300692 0.2364825 1 1 1
v 0.0157205 0.7300692 0.2364825 1 1 1
v 0.0157205 0.09 0.3310754 1 1 1
v 1.804779E-15 0 0.3153099 1 1 1
v -0.0157205 0.09 0.3310754 1 1 1
v -0.0157205 0.09 0.2995445 1 1 1
v 0.0157205 0.09 0.2995445 1 1 1
v 0.0157205 0.7300692 0.3310754 1 1 1
v -0.0157205 0.7300692 0.3310754 1 1 1
v -0.0157205 0.7300692 0.2995445 1 1 1
v 0.0157205 0.7300692 0.2995445 1 1 1
v 0.0157205 0.09 0.2049515 1 1 1
v 3.609557E-16 0 0.189186 1 1 1
v -0.0157205 0.09 0.2049515 1 1 1
v -0.0157205 0.09 0.1734205 1 1 1
v 0.0157205 0.09 0.1734205 1 1 1
v 0.0157205 0.7300692 0.2049515 1 1 1
v -0.0157205 0.7300692 0.2049515 1 1 1
v -0.0157205 0.7300692 0.1734205 1 1 1
v 0.0157205 0.7300692 0.1734205 1 1 1
v 0.0157205 0.09 -0.1103585 1 1 1
v -1.191154E-14 3.609557E-16 -0.126124 1 1 1
v -0.0157205 0.09 -0.1103585 1 1 1
v -0.0157205 0.09 -0.1418895 1 1 1
v 0.0157205 0.09 -0.1418895 1 1 1
v 0.0157205 0.7300692 -0.1103585 1 1 1
v -0.0157205 0.7300692 -0.1103585 1 1 1
v -0.0157205 0.7300692 -0.1418895 1 1 1
v 0.0157205 0.7300692 -0.1418895 1 1 1
v 0.0157205 0.09 0.07882749 1 1 1
v -4.692424E-15 1.804779E-16 0.06306199 1 1 1
v -0.0157205 0.09 0.07882749 1 1 1
v -0.0157205 0.09 0.04729649 1 1 1
v 0.0157205 0.09 0.04729649 1 1 1
v 0.0157205 0.7300692 0.07882749 1 1 1
v -0.0157205 0.7300692 0.07882749 1 1 1
v -0.0157205 0.7300692 0.04729649 1 1 1
v 0.0157205 0.7300692 0.04729649 1 1 1
v 0.0157205 0.09 -0.04729649 1 1 1
v -9.023893E-15 2.707168E-16 -0.06306199 1 1 1
v -0.0157205 0.09 -0.04729649 1 1 1
v -0.0157205 0.09 -0.07882749 1 1 1
v 0.0157205 0.09 -0.07882749 1 1 1
v 0.0157205 0.7300692 -0.04729649 1 1 1
v -0.0157205 0.7300692 -0.04729649 1 1 1
v -0.0157205 0.7300692 -0.07882749 1 1 1
v 0.0157205 0.7300692 -0.07882749 1 1 1
v 0.0157205 0.09 0.1418895 1 1 1
v -1.082867E-15 9.023893E-17 0.126124 1 1 1
v -0.0157205 0.09 0.1418895 1 1 1
v -0.0157205 0.09 0.1103585 1 1 1
v 0.0157205 0.09 0.1103585 1 1 1
v 0.0157205 0.7300692 0.1418895 1 1 1
v -0.0157205 0.7300692 0.1418895 1 1 1
v -0.0157205 0.7300692 0.1103585 1 1 1
v 0.0157205 0.7300692 0.1103585 1 1 1
v 0.0157205 0.09 0.0157655 1 1 1
v 3.609557E-16 0 0 1 1 1
v -0.0157205 0.09 0.0157655 1 1 1
v -0.0157205 0.09 -0.0157655 1 1 1
v 0.0157205 0.09 -0.0157655 1 1 1
v 0.0157205 0.7300692 0.0157655 1 1 1
v -0.0157205 0.7300692 0.0157655 1 1 1
v -0.0157205 0.7300692 -0.0157655 1 1 1
v 0.0157205 0.7300692 -0.0157655 1 1 1
v -0.0357205 0.6004769 0.3476292 1 1 1
v -0.0357205 0.6377097 0.3476292 1 1 1
v 0.0357205 0.6004769 0.3476292 1 1 1
v 0.0357205 0.6377097 0.3476292 1 1 1
v 0.0357205 0.6377097 -0.3476292 1 1 1
v -0.0357205 0.6377097 -0.3476292 1 1 1
v -0.0357205 0.6004769 -0.3476292 1 1 1
v 0.0357205 0.6004769 -0.3476292 1 1 1
v -0.0357205 0.3904769 0.3476292 1 1 1
v -0.0357205 0.4277098 0.3476292 1 1 1
v 0.0357205 0.3904769 0.3476292 1 1 1
v 0.0357205 0.4277098 0.3476292 1 1 1
v 0.0357205 0.4277098 -0.3476292 1 1 1
v -0.0357205 0.4277098 -0.3476292 1 1 1
v -0.0357205 0.3904769 -0.3476292 1 1 1
v 0.0357205 0.3904769 -0.3476292 1 1 1
v -0.0357205 0.1804769 0.3476292 1 1 1
v -0.0357205 0.2177098 0.3476292 1 1 1
v 0.0357205 0.1804769 0.3476292 1 1 1
v 0.0357205 0.2177098 0.3476292 1 1 1
v 0.0357205 0.2177098 -0.3476292 1 1 1
v -0.0357205 0.2177098 -0.3476292 1 1 1
v -0.0357205 0.1804769 -0.3476292 1 1 1
v 0.0357205 0.1804769 -0.3476292 1 1 1

vn 0 -0.0816308 0.9966627
vn 0 -0.1725449 0.9850017
vn 0 -0.0816308 -0.9966627
vn 0 -0.1725449 -0.9850017
vn -0.9850852 -0.172067 0
vn -0.9966825 -0.08138784 0
vn 0.9966825 -0.08138784 0
vn 0.9850852 -0.172067 0
vn 0 0 1
vn -1 0 0
vn 0 1 0
vn 1 0 0
vn 0 0 -1
vn 0 -1 0

vt 0.46875 0.0496552
vt 0.46875 0.025
vt 0.46875 0.225
vt 0.34375 0.025
vt 0.34375 0.225

usemtl colormap

f 3/1/1 2/2/2 1/1/1
f 5/1/3 2/2/4 4/1/3
f 3/1/6 4/1/6 2/2/5
f 1/1/7 2/2/8 5/1/7
f 6/3/9 3/1/1 1/1/1
f 3/1/1 6/3/9 7/3/9
f 3/1/6 8/3/10 4/1/6
f 8/3/10 3/1/6 7/3/10
f 8/3/11 6/3/11 9/3/11
f 6/3/11 8/3/11 7/3/11
f 6/3/12 5/1/7 9/3/12
f 5/1/7 6/3/12 1/1/7
f 8/3/13 5/1/3 4/1/3
f 5/1/3 8/3/13 9/3/13
f 12/1/1 11/2/2 10/1/1
f 14/1/3 11/2/4 13/1/3
f 12/1/6 13/1/6 11/2/5
f 10/1/7 11/2/8 14/1/7
f 15/3/9 12/1/1 10/1/1
f 12/1/1 15/3/9 16/3/9
f 12/1/6 17/3/10 13/1/6
f 17/3/10 12/1/6 16/3/10
f 17/3/11 15/3/11 18/3/11
f 15/3/11 17/3/11 16/3/11
f 15/3/12 14/1/7 18/3/12
f 14/1/7 15/3/12 10/1/7
f 17/3/13 14/1/3 13/1/3
f 14/1/3 17/3/13 18/3/13
f 21/1/1 20/2/2 19/1/1
f 23/1/3 20/2/4 22/1/3
f 21/1/6 22/1/6 20/2/5
f 19/1/7 20/2/8 23/1/7
f 24/3/9 21/1/1 19/1/1
f 21/1/1 24/3/9 25/3/9
f 21/1/6 26/3/10 22/1/6
f 26/3/10 21/1/6 25/3/10
f 26/3/11 24/3/11 27/3/11
f 24/3/11 26/3/11 25/3/11
f 24/3/12 23/1/7 27/3/12
f 23/1/7 24/3/12 19/1/7
f 26/3/13 23/1/3 22/1/3
f 23/1/3 26/3/13 27/3/13
f 30/1/1 29/2/2 28/1/1
f 32/1/3 29/2/4 31/1/3
f 30/1/6 31/1/6 29/2/5
f 28/1/7 29/2/8 32/1/7
f 33/3/9 30/1/1 28/1/1
f 30/1/1 33/3/9 34/3/9
f 30/1/6 35/3/10 31/1/6
f 35/3/10 30/1/6 34/3/10
f 35/3/11 33/3/11 36/3/11
f 33/3/11 35/3/11 34/3/11
f 33/3/12 32/1/7 36/3/12
f 32/1/7 33/3/12 28/1/7
f 35/3/13 32/1/3 31/1/3
f 32/1/3 35/3/13 36/3/13
f 39/1/1 38/2/2 37/1/1
f 41/1/3 38/2/4 40/1/3
f 39/1/6 40/1/6 38/2/5
f 37/1/7 38/2/8 41/1/7
f 42/3/9 39/1/1 37/1/1
f 39/1/1 42/3/9 43/3/9
f 39/1/6 44/3/10 40/1/6
f 44/3/10 39/1/6 43/3/10
f 44/3/11 42/3/11 45/3/11
f 42/3/11 44/3/11 43/3/11
f 42/3/12 41/1/7 45/3/12
f 41/1/7 42/3/12 37/1/7
f 44/3/13 41/1/3 40/1/3
f 41/1/3 44/3/13 45/3/13
f 48/1/1 47/2/2 46/1/1
f 50/1/3 47/2/4 49/1/3
f 48/1/6 49/1/6 47/2/5
f 46/1/7 47/2/8 50/1/7
f 51/3/9 48/1/1 46/1/1
f 48/1/1 51/3/9 52/3/9
f 48/1/6 53/3/10 49/1/6
f 53/3/10 48/1/6 52/3/10
f 53/3/11 51/3/11 54/3/11
f 51/3/11 53/3/11 52/3/11
f 51/3/12 50/1/7 54/3/12
f 50/1/7 51/3/12 46/1/7
f 53/3/13 50/1/3 49/1/3
f 50/1/3 53/3/13 54/3/13
f 57/1/1 56/2/2 55/1/1
f 59/1/3 56/2/4 58/1/3
f 57/1/6 58/1/6 56/2/5
f 55/1/7 56/2/8 59/1/7
f 60/3/9 57/1/1 55/1/1
f 57/1/1 60/3/9 61/3/9
f 57/1/6 62/3/10 58/1/6
f 62/3/10 57/1/6 61/3/10
f 62/3/11 60/3/11 63/3/11
f 60/3/11 62/3/11 61/3/11
f 60/3/12 59/1/7 63/3/12
f 59/1/7 60/3/12 55/1/7
f 62/3/13 59/1/3 58/1/3
f 59/1/3 62/3/13 63/3/13
f 66/1/1 65/2/2 64/1/1
f 68/1/3 65/2/4 67/1/3
f 66/1/6 67/1/6 65/2/5
f 64/1/7 65/2/8 68/1/7
f 69/3/9 66/1/1 64/1/1
f 66/1/1 69/3/9 70/3/9
f 66/1/6 71/3/10 67/1/6
f 71/3/10 66/1/6 70/3/10
f 71/3/11 69/3/11 72/3/11
f 69/3/11 71/3/11 70/3/11
f 69/3/12 68/1/7 72/3/12
f 68/1/7 69/3/12 64/1/7
f 71/3/13 68/1/3 67/1/3
f 68/1/3 71/3/13 72/3/13
f 75/1/1 74/2/2 73/1/1
f 77/1/3 74/2/4 76/1/3
f 75/1/6 76/1/6 74/2/5
f 73/1/7 74/2/8 77/1/7
f 78/3/9 75/1/1 73/1/1
f 75/1/1 78/3/9 79/3/9
f 75/1/6 80/3/10 76/1/6
f 80/3/10 75/1/6 79/3/10
f 80/3/11 78/3/11 81/3/11
f 78/3/11 80/3/11 79/3/11
f 78/3/12 77/1/7 81/3/12
f 77/1/7 78/3/12 73/1/7
f 80/3/13 77/1/3 76/1/3
f 77/1/3 80/3/13 81/3/13
f 84/1/1 83/2/2 82/1/1
f 86/1/3 83/2/4 85/1/3
f 84/1/6 85/1/6 83/2/5
f 82/1/7 83/2/8 86/1/7
f 87/3/9 84/1/1 82/1/1
f 84/1/1 87/3/9 88/3/9
f 84/1/6 89/3/10 85/1/6
f 89/3/10 84/1/6 88/3/10
f 89/3/11 87/3/11 90/3/11
f 87/3/11 89/3/11 88/3/11
f 87/3/12 86/1/7 90/3/12
f 86/1/7 87/3/12 82/1/7
f 89/3/13 86/1/3 85/1/3
f 86/1/3 89/3/13 90/3/13
f 93/1/1 92/2/2 91/1/1
f 95/1/3 92/2/4 94/1/3
f 93/1/6 94/1/6 92/2/5
f 91/1/7 92/2/8 95/1/7
f 96/3/9 93/1/1 91/1/1
f 93/1/1 96/3/9 97/3/9
f 93/1/6 98/3/10 94/1/6
f 98/3/10 93/1/6 97/3/10
f 98/3/11 96/3/11 99/3/11
f 96/3/11 98/3/11 97/3/11
f 96/3/12 95/1/7 99/3/12
f 95/1/7 96/3/12 91/1/7
f 98/3/13 95/1/3 94/1/3
f 95/1/3 98/3/13 99/3/13
f 102/4/9 101/5/9 100/4/9
f 101/5/9 102/4/9 103/5/9
f 104/5/11 101/5/11 103/5/11
f 101/5/11 104/5/11 105/5/11
f 100/4/10 105/5/10 106/4/10
f 105/5/10 100/4/10 101/5/10
f 103/5/12 107/4/12 104/5/12
f 107/4/12 103/5/12 102/4/12
f 105/5/13 107/4/13 106/4/13
f 107/4/13 105/5/13 104/5/13
f 100/4/14 107/4/14 102/4/14
f 107/4/14 100/4/14 106/4/14
f 110/4/9 109/5/9 108/4/9
f 109/5/9 110/4/9 111/5/9
f 112/5/11 109/5/11 111/5/11
f 109/5/11 112/5/11 113/5/11
f 108/4/10 113/5/10 114/4/10
f 113/5/10 108/4/10 109/5/10
f 111/5/12 115/4/12 112/5/12
f 115/4/12 111/5/12 110/4/12
f 113/5/13 115/4/13 114/4/13
f 115/4/13 113/5/13 112/5/13
f 108/4/14 115/4/14 110/4/14
f 115/4/14 108/4/14 114/4/14
f 118/4/9 117/5/9 116/4/9
f 117/5/9 118/4/9 119/5/9
f 120/5/11 117/5/11 119/5/11
f 117/5/11 120/5/11 121/5/11
f 116/4/10 121/5/10 122/4/10
f 121/5/10 116/4/10 117/5/10
f 119/5/12 123/4/12 120/5/12
f 123/4/12 119/5/12 118/4/12
f 121/5/13 123/4/13 122/4/13
f 123/4/13 121/5/13 120/5/13
f 116/4/14 123/4/14 118/4/14
f 123/4/14 116/4/14 122/4/14

g metal-gate




usemtl colormap

f 3/1/1 2/2/2 1/1/1
f 5/1/3 2/2/4 4/1/3
f 3/1/6 4/1/6 2/2/5
f 1/1/7 2/2/8 5/1/7
f 6/3/9 3/1/1 1/1/1
f 3/1/1 6/3/9 7/3/9
f 3/1/6 8/3/10 4/1/6
f 8/3/10 3/1/6 7/3/10
f 8/3/11 6/3/11 9/3/11
f 6/3/11 8/3/11 7/3/11
f 6/3/12 5/1/7 9/3/12
f 5/1/7 6/3/12 1/1/7
f 8/3/13 5/1/3 4/1/3
f 5/1/3 8/3/13 9/3/13
f 12/1/1 11/2/2 10/1/1
f 14/1/3 11/2/4 13/1/3
f 12/1/6 13/1/6 11/2/5
f 10/1/7 11/2/8 14/1/7
f 15/3/9 12/1/1 10/1/1
f 12/1/1 15/3/9 16/3/9
f 12/1/6 17/3/10 13/1/6
f 17/3/10 12/1/6 16/3/10
f 17/3/11 15/3/11 18/3/11
f 15/3/11 17/3/11 16/3/11
f 15/3/12 14/1/7 18/3/12
f 14/1/7 15/3/12 10/1/7
f 17/3/13 14/1/3 13/1/3
f 14/1/3 17/3/13 18/3/13
f 21/1/1 20/2/2 19/1/1
f 23/1/3 20/2/4 22/1/3
f 21/1/6 22/1/6 20/2/5
f 19/1/7 20/2/8 23/1/7
f 24/3/9 21/1/1 19/1/1
f 21/1/1 24/3/9 25/3/9
f 21/1/6 26/3/10 22/1/6
f 26/3/10 21/1/6 25/3/10
f 26/3/11 24/3/11 27/3/11
f 24/3/11 26/3/11 25/3/11
f 24/3/12 23/1/7 27/3/12
f 23/1/7 24/3/12 19/1/7
f 26/3/13 23/1/3 22/1/3
f 23/1/3 26/3/13 27/3/13
f 30/1/1 29/2/2 28/1/1
f 32/1/3 29/2/4 31/1/3
f 30/1/6 31/1/6 29/2/5
f 28/1/7 29/2/8 32/1/7
f 33/3/9 30/1/1 28/1/1
f 30/1/1 33/3/9 34/3/9
f 30/1/6 35/3/10 31/1/6
f 35/3/10 30/1/6 34/3/10
f 35/3/11 33/3/11 36/3/11
f 33/3/11 35/3/11 34/3/11
f 33/3/12 32/1/7 36/3/12
f 32/1/7 33/3/12 28/1/7
f 35/3/13 32/1/3 31/1/3
f 32/1/3 35/3/13 36/3/13
f 39/1/1 38/2/2 37/1/1
f 41/1/3 38/2/4 40/1/3
f 39/1/6 40/1/6 38/2/5
f 37/1/7 38/2/8 41/1/7
f 42/3/9 39/1/1 37/1/1
f 39/1/1 42/3/9 43/3/9
f 39/1/6 44/3/10 40/1/6
f 44/3/10 39/1/6 43/3/10
f 44/3/11 42/3/11 45/3/11
f 42/3/11 44/3/11 43/3/11
f 42/3/12 41/1/7 45/3/12
f 41/1/7 42/3/12 37/1/7
f 44/3/13 41/1/3 40/1/3
f 41/1/3 44/3/13 45/3/13
f 48/1/1 47/2/2 46/1/1
f 50/1/3 47/2/4 49/1/3
f 48/1/6 49/1/6 47/2/5
f 46/1/7 47/2/8 50/1/7
f 51/3/9 48/1/1 46/1/1
f 48/1/1 51/3/9 52/3/9
f 48/1/6 53/3/10 49/1/6
f 53/3/10 48/1/6 52/3/10
f 53/3/11 51/3/11 54/3/11
f 51/3/11 53/3/11 52/3/11
f 51/3/12 50/1/7 54/3/12
f 50/1/7 51/3/12 46/1/7
f 53/3/13 50/1/3 49/1/3
f 50/1/3 53/3/13 54/3/13
f 57/1/1 56/2/2 55/1/1
f 59/1/3 56/2/4 58/1/3
f 57/1/6 58/1/6 56/2/5
f 55/1/7 56/2/8 59/1/7
f 60/3/9 57/1/1 55/1/1
f 57/1/1 60/3/9 61/3/9
f 57/1/6 62/3/10 58/1/6
f 62/3/10 57/1/6 61/3/10
f 62/3/11 60/3/11 63/3/11
f 60/3/11 62/3/11 61/3/11
f 60/3/12 59/1/7 63/3/12
f 59/1/7 60/3/12 55/1/7
f 62/3/13 59/1/3 58/1/3
f 59/1/3 62/3/13 63/3/13
f 66/1/1 65/2/2 64/1/1
f 68/1/3 65/2/4 67/1/3
f 66/1/6 67/1/6 65/2/5
f 64/1/7 65/2/8 68/1/7
f 69/3/9 66/1/1 64/1/1
f 66/1/1 69/3/9 70/3/9
f 66/1/6 71/3/10 67/1/6
f 71/3/10 66/1/6 70/3/10
f 71/3/11 69/3/11 72/3/11
f 69/3/11 71/3/11 70/3/11
f 69/3/12 68/1/7 72/3/12
f 68/1/7 69/3/12 64/1/7
f 71/3/13 68/1/3 67/1/3
f 68/1/3 71/3/13 72/3/13
f 75/1/1 74/2/2 73/1/1
f 77/1/3 74/2/4 76/1/3
f 75/1/6 76/1/6 74/2/5
f 73/1/7 74/2/8 77/1/7
f 78/3/9 75/1/1 73/1/1
f 75/1/1 78/3/9 79/3/9
f 75/1/6 80/3/10 76/1/6
f 80/3/10 75/1/6 79/3/10
f 80/3/11 78/3/11 81/3/11
f 78/3/11 80/3/11 79/3/11
f 78/3/12 77/1/7 81/3/12
f 77/1/7 78/3/12 73/1/7
f 80/3/13 77/1/3 76/1/3
f 77/1/3 80/3/13 81/3/13
f 84/1/1 83/2/2 82/1/1
f 86/1/3 83/2/4 85/1/3
f 84/1/6 85/1/6 83/2/5
f 82/1/7 83/2/8 86/1/7
f 87/3/9 84/1/1 82/1/1
f 84/1/1 87/3/9 88/3/9
f 84/1/6 89/3/10 85/1/6
f 89/3/10 84/1/6 88/3/10
f 89/3/11 87/3/11 90/3/11
f 87/3/11 89/3/11 88/3/11
f 87/3/12 86/1/7 90/3/12
f 86/1/7 87/3/12 82/1/7
f 89/3/13 86/1/3 85/1/3
f 86/1/3 89/3/13 90/3/13
f 93/1/1 92/2/2 91/1/1
f 95/1/3 92/2/4 94/1/3
f 93/1/6 94/1/6 92/2/5
f 91/1/7 92/2/8 95/1/7
f 96/3/9 93/1/1 91/1/1
f 93/1/1 96/3/9 97/3/9
f 93/1/6 98/3/10 94/1/6
f 98/3/10 93/1/6 97/3/10
f 98/3/11 96/3/11 99/3/11
f 96/3/11 98/3/11 97/3/11
f 96/3/12 95/1/7 99/3/12
f 95/1/7 96/3/12 91/1/7
f 98/3/13 95/1/3 94/1/3
f 95/1/3 98/3/13 99/3/13
f 102/4/9 101/5/9 100/4/9
f 101/5/9 102/4/9 103/5/9
f 104/5/11 101/5/11 103/5/11
f 101/5/11 104/5/11 105/5/11
f 100/4/10 105/5/10 106/4/10
f 105/5/10 100/4/10 101/5/10
f 103/5/12 107/4/12 104/5/12
f 107/4/12 103/5/12 102/4/12
f 105/5/13 107/4/13 106/4/13
f 107/4/13 105/5/13 104/5/13
f 100/4/14 107/4/14 102/4/14
f 107/4/14 100/4/14 106/4/14
f 110/4/9 109/5/9 108/4/9
f 109/5/9 110/4/9 111/5/9
f 112/5/11 109/5/11 111/5/11
f 109/5/11 112/5/11 113/5/11
f 108/4/10 113/5/10 114/4/10
f 113/5/10 108/4/10 109/5/10
f 111/5/12 115/4/12 112/5/12
f 115/4/12 111/5/12 110/4/12
f 113/5/13 115/4/13 114/4/13
f 115/4/13 113/5/13 112/5/13
f 108/4/14 115/4/14 110/4/14
f 115/4/14 108/4/14 114/4/14
f 118/4/9 117/5/9 116/4/9
f 117/5/9 118/4/9 119/5/9
f 120/5/11 117/5/11 119/5/11
f 117/5/11 120/5/11 121/5/11
f 116/4/10 121/5/10 122/4/10
f 121/5/10 116/4/10 117/5/10
f 119/5/12 123/4/12 120/5/12
f 123/4/12 119/5/12 118/4/12
f 121/5/13 123/4/13 122/4/13
f 123/4/13 121/5/13 120/5/13
f 116/4/14 123/4/14 118/4/14
f 123/4/14 116/4/14 122/4/14

