# Created by Kenney (www.kenney.nl)

mtllib stairs-stone-square.mtl

g stairs-stone-square

v 0.11625 0.225 -0.1365 1 1 1
v -0.11625 0.225 -0.1365 1 1 1
v 0.11625 0.225 -0.20475 1 1 1
v -0.11625 0.225 -0.20475 1 1 1
v 0.11625 0.50625 0.20475 1 1 1
v -0.11625 0.50625 0.20475 1 1 1
v 0.11625 0.50625 0.1365 1 1 1
v -0.11625 0.50625 0.1365 1 1 1
v 0.11625 0.675 0.4095 1 1 1
v -0.11625 0.675 0.4095 1 1 1
v 0.11625 0.675 0.34125 1 1 1
v -0.11625 0.675 0.34125 1 1 1
v 0.11625 0.28125 -0.06825 1 1 1
v -0.11625 0.28125 -0.06825 1 1 1
v 0.11625 0.28125 -0.1365 1 1 1
v -0.11625 0.28125 -0.1365 1 1 1
v 0.11625 0.1125 -0.273 1 1 1
v -0.11625 0.1125 -0.273 1 1 1
v 0.11625 0.1125 -0.34125 1 1 1
v -0.11625 0.1125 -0.34125 1 1 1
v 0.11625 0.5625 0.273 1 1 1
v -0.11625 0.5625 0.273 1 1 1
v 0.11625 0.5625 0.20475 1 1 1
v -0.11625 0.5625 0.20475 1 1 1
v 0.11625 2.440356E-16 0.4095 1 1 1
v -0.11625 2.440356E-16 0.4095 1 1 1
v 0.11625 0 -0.4095 1 1 1
v -0.11625 0 -0.4095 1 1 1
v -0.11625 0.3375 -0.06825 1 1 1
v 0.11625 0.3375 -0.06825 1 1 1
v 0.11625 0.16875 -0.20475 1 1 1
v -0.11625 0.16875 -0.20475 1 1 1
v 0.11625 0.16875 -0.273 1 1 1
v -0.11625 0.16875 -0.273 1 1 1
v 0.11625 0.05625 -0.34125 1 1 1
v 0.11625 0.05625 -0.4095 1 1 1
v 0.11625 0.3375 -3.609557E-15 1 1 1
v 0.11625 0.39375 0.06825 1 1 1
v 0.11625 0.39375 -3.609557E-15 1 1 1
v 0.11625 0.45 0.1365 1 1 1
v 0.11625 0.45 0.06825 1 1 1
v 0.11625 0.61875 0.34125 1 1 1
v 0.11625 0.61875 0.273 1 1 1
v -0.11625 0.05625 -0.34125 1 1 1
v -0.11625 0.3375 3.609557E-15 1 1 1
v -0.11625 0.39375 3.609557E-15 1 1 1
v -0.11625 0.45 0.1365 1 1 1
v -0.11625 0.45 0.06825 1 1 1
v -0.11625 0.61875 0.34125 1 1 1
v -0.11625 0.61875 0.273 1 1 1
v -0.11625 0.39375 0.06825 1 1 1
v -0.11625 0.05625 -0.4095 1 1 1

vn 0 1 0
vn 0 0 1
vn 0 -1 0
vn 0 0 -1
vn 1 0 0
vn -1 0 0

vt 0.84375 0.09166668
vt 0.84375 0.175
vt 0.84375 0.225
vt 0.84375 0.1083333
vt 0.84375 0.05833334
vt 0.84375 0.1916667
vt 0.84375 0.025
vt 0.84375 0.125
vt 0.84375 0.075
vt 0.84375 0.04166667
vt 0.84375 0.1416667
vt 0.84375 0.1583333
vt 0.84375 0.2083334

usemtl colormap

f 3/1/1 2/1/1 1/1/1
f 2/1/1 3/1/1 4/1/1
f 7/2/1 6/2/1 5/2/1
f 6/2/1 7/2/1 8/2/1
f 11/3/1 10/3/1 9/3/1
f 10/3/1 11/3/1 12/3/1
f 15/4/1 14/4/1 13/4/1
f 14/4/1 15/4/1 16/4/1
f 19/5/1 18/5/1 17/5/1
f 18/5/1 19/5/1 20/5/1
f 23/6/1 22/6/1 21/6/1
f 22/6/1 23/6/1 24/6/1
f 9/3/2 26/7/2 25/7/2
f 26/7/2 9/3/2 10/3/2
f 26/7/3 27/7/3 25/7/3
f 27/7/3 26/7/3 28/7/3
f 29/8/4 13/4/4 14/4/4
f 13/4/4 29/8/4 30/8/4
f 33/9/1 32/9/1 31/9/1
f 32/9/1 33/9/1 34/9/1
f 24/6/4 5/2/4 6/2/4
f 5/2/4 24/6/4 23/6/4
f 17/5/5 35/10/5 19/5/5
f 25/7/5 35/10/5 17/5/5
f 27/7/5 35/10/5 25/7/5
f 35/10/5 27/7/5 36/10/5
f 25/7/5 17/5/5 31/9/5
f 31/9/5 17/5/5 33/9/5
f 25/7/5 31/9/5 1/1/5
f 25/7/5 1/1/5 13/4/5
f 1/1/5 31/9/5 3/1/5
f 13/4/5 1/1/5 15/4/5
f 25/7/5 13/4/5 37/8/5
f 37/8/5 13/4/5 30/8/5
f 25/7/5 37/8/5 38/11/5
f 38/11/5 37/8/5 39/11/5
f 25/7/5 38/11/5 40/12/5
f 40/12/5 38/11/5 41/12/5
f 25/7/5 40/12/5 5/2/5
f 5/2/5 40/12/5 7/2/5
f 25/7/5 5/2/5 21/6/5
f 21/6/5 5/2/5 23/6/5
f 25/7/5 21/6/5 42/13/5
f 42/13/5 21/6/5 43/13/5
f 25/7/5 42/13/5 9/3/5
f 9/3/5 42/13/5 11/3/5
f 20/5/4 35/10/4 44/10/4
f 35/10/4 20/5/4 19/5/4
f 46/11/4 37/8/4 45/8/4
f 37/8/4 46/11/4 39/11/4
f 8/2/4 40/12/4 47/12/4
f 40/12/4 8/2/4 7/2/4
f 30/8/1 45/8/1 37/8/1
f 45/8/1 30/8/1 29/8/1
f 41/12/1 47/12/1 40/12/1
f 47/12/1 41/12/1 48/12/1
f 43/13/1 49/13/1 42/13/1
f 49/13/1 43/13/1 50/13/1
f 39/11/1 51/11/1 38/11/1
f 51/11/1 39/11/1 46/11/1
f 12/3/4 42/13/4 49/13/4
f 42/13/4 12/3/4 11/3/4
f 16/4/4 1/1/4 2/1/4
f 1/1/4 16/4/4 15/4/4
f 4/1/4 31/9/4 32/9/4
f 31/9/4 4/1/4 3/1/4
f 50/13/4 21/6/4 22/6/4
f 21/6/4 50/13/4 43/13/4
f 52/10/4 27/7/4 28/7/4
f 27/7/4 52/10/4 36/10/4
f 48/12/4 38/11/4 51/11/4
f 38/11/4 48/12/4 41/12/4
f 26/7/6 52/10/6 28/7/6
f 52/10/6 26/7/6 44/10/6
f 44/10/6 26/7/6 20/5/6
f 20/5/6 26/7/6 18/5/6
f 18/5/6 26/7/6 34/9/6
f 34/9/6 26/7/6 32/9/6
f 32/9/6 26/7/6 4/1/6
f 4/1/6 26/7/6 2/1/6
f 2/1/6 26/7/6 16/4/6
f 16/4/6 26/7/6 14/4/6
f 14/4/6 26/7/6 29/8/6
f 29/8/6 26/7/6 45/8/6
f 45/8/6 26/7/6 46/11/6
f 46/11/6 26/7/6 51/11/6
f 51/11/6 26/7/6 48/12/6
f 48/12/6 26/7/6 47/12/6
f 47/12/6 26/7/6 8/2/6
f 8/2/6 26/7/6 6/2/6
f 6/2/6 26/7/6 24/6/6
f 24/6/6 26/7/6 22/6/6
f 22/6/6 26/7/6 50/13/6
f 50/13/6 26/7/6 49/13/6
f 49/13/6 26/7/6 12/3/6
f 12/3/6 26/7/6 10/3/6
f 34/9/4 17/5/4 18/5/4
f 17/5/4 34/9/4 33/9/4
f 36/10/1 44/10/1 35/10/1
f 44/10/1 36/10/1 52/10/1

g stairs-stone-square




usemtl colormap

f 3/1/1 2/1/1 1/1/1
f 2/1/1 3/1/1 4/1/1
f 7/2/1 6/2/1 5/2/1
f 6/2/1 7/2/1 8/2/1
f 11/3/1 10/3/1 9/3/1
f 10/3/1 11/3/1 12/3/1
f 15/4/1 14/4/1 13/4/1
f 14/4/1 15/4/1 16/4/1
f 19/5/1 18/5/1 17/5/1
f 18/5/1 19/5/1 20/5/1
f 23/6/1 22/6/1 21/6/1
f 22/6/1 23/6/1 24/6/1
f 9/3/2 26/7/2 25/7/2
f 26/7/2 9/3/2 10/3/2
f 26/7/3 27/7/3 25/7/3
f 27/7/3 26/7/3 28/7/3
f 29/8/4 13/4/4 14/4/4
f 13/4/4 29/8/4 30/8/4
f 33/9/1 32/9/1 31/9/1
f 32/9/1 33/9/1 34/9/1
f 24/6/4 5/2/4 6/2/4
f 5/2/4 24/6/4 23/6/4
f 17/5/5 35/10/5 19/5/5
f 25/7/5 35/10/5 17/5/5
f 27/7/5 35/10/5 25/7/5
f 35/10/5 27/7/5 36/10/5
f 25/7/5 17/5/5 31/9/5
f 31/9/5 17/5/5 33/9/5
f 25/7/5 31/9/5 1/1/5
f 25/7/5 1/1/5 13/4/5
f 1/1/5 31/9/5 3/1/5
f 13/4/5 1/1/5 15/4/5
f 25/7/5 13/4/5 37/8/5
f 37/8/5 13/4/5 30/8/5
f 25/7/5 37/8/5 38/11/5
f 38/11/5 37/8/5 39/11/5
f 25/7/5 38/11/5 40/12/5
f 40/12/5 38/11/5 41/12/5
f 25/7/5 40/12/5 5/2/5
f 5/2/5 40/12/5 7/2/5
f 25/7/5 5/2/5 21/6/5
f 21/6/5 5/2/5 23/6/5
f 25/7/5 21/6/5 42/13/5
f 42/13/5 21/6/5 43/13/5
f 25/7/5 42/13/5 9/3/5
f 9/3/5 42/13/5 11/3/5
f 20/5/4 35/10/4 44/10/4
f 35/10/4 20/5/4 19/5/4
f 46/11/4 37/8/4 45/8/4
f 37/8/4 46/11/4 39/11/4
f 8/2/4 40/12/4 47/12/4
f 40/12/4 8/2/4 7/2/4
f 30/8/1 45/8/1 37/8/1
f 45/8/1 30/8/1 29/8/1
f 41/12/1 47/12/1 40/12/1
f 47/12/1 41/12/1 48/12/1
f 43/13/1 49/13/1 42/13/1
f 49/13/1 43/13/1 50/13/1
f 39/11/1 51/11/1 38/11/1
f 51/11/1 39/11/1 46/11/1
f 12/3/4 42/13/4 49/13/4
f 42/13/4 12/3/4 11/3/4
f 16/4/4 1/1/4 2/1/4
f 1/1/4 16/4/4 15/4/4
f 4/1/4 31/9/4 32/9/4
f 31/9/4 4/1/4 3/1/4
f 50/13/4 21/6/4 22/6/4
f 21/6/4 50/13/4 43/13/4
f 52/10/4 27/7/4 28/7/4
f 27/7/4 52/10/4 36/10/4
f 48/12/4 38/11/4 51/11/4
f 38/11/4 48/12/4 41/12/4
f 26/7/6 52/10/6 28/7/6
f 52/10/6 26/7/6 44/10/6
f 44/10/6 26/7/6 20/5/6
f 20/5/6 26/7/6 18/5/6
f 18/5/6 26/7/6 34/9/6
f 34/9/6 26/7/6 32/9/6
f 32/9/6 26/7/6 4/1/6
f 4/1/6 26/7/6 2/1/6
f 2/1/6 26/7/6 16/4/6
f 16/4/6 26/7/6 14/4/6
f 14/4/6 26/7/6 29/8/6
f 29/8/6 26/7/6 45/8/6
f 45/8/6 26/7/6 46/11/6
f 46/11/6 26/7/6 51/11/6
f 51/11/6 26/7/6 48/12/6
f 48/12/6 26/7/6 47/12/6
f 47/12/6 26/7/6 8/2/6
f 8/2/6 26/7/6 6/2/6
f 6/2/6 26/7/6 24/6/6
f 24/6/6 26/7/6 22/6/6
f 22/6/6 26/7/6 50/13/6
f 50/13/6 26/7/6 49/13/6
f 49/13/6 26/7/6 12/3/6
f 12/3/6 26/7/6 10/3/6
f 34/9/4 17/5/4 18/5/4
f 17/5/4 34/9/4 33/9/4
f 36/10/1 44/10/1 35/10/1
f 44/10/1 36/10/1 52/10/1

