# Created by Kenney (www.kenney.nl)

mtllib tree-large.mtl

g tree-large

v -0.1060132 0 -0.1480752 1 1 1
v -0.05687947 0.198 -0.06297316 1 1 1
v -0.2050132 0 0.0233978 1 1 1
v -0.1067458 0.198 0.0233978 1 1 1
v 0.09198684 0 0.1948708 1 1 1
v -0.1060132 0 0.1948708 1 1 1
v 0.04285313 0.198 0.1097688 1 1 1
v -0.05687947 0.198 0.1097688 1 1 1
v 0.09198684 0 -0.1480752 1 1 1
v 0.1909868 0 0.0233978 1 1 1
v 0.04285313 0.198 -0.06297316 1 1 1
v 0.09271943 0.198 0.0233978 1 1 1
v -0.03617024 0.9708 -0.02710373 1 1 1
v 0.0221439 0.9708 -0.02710373 1 1 1
v -0.06532731 0.9708 0.0233978 1 1 1
v -0.03617024 0.9708 0.07389933 1 1 1
v 0.05130097 0.9708 0.0233978 1 1 1
v 0.0221439 0.9708 0.07389933 1 1 1
v -0.3670132 0.9708 0.0233978 1 1 1
v -0.3670132 1.0428 0.0233978 1 1 1
v -0.2615716 0.9708 0.2779562 1 1 1
v -0.2615716 1.0428 0.2779562 1 1 1
v 0.3529868 0.9708 0.0233978 1 1 1
v 0.2475453 0.9708 -0.2311606 1 1 1
v 0.2475453 0.9708 0.2779562 1 1 1
v -0.007013168 0.9708 0.3833978 1 1 1
v -0.007013168 0.9708 -0.3366022 1 1 1
v -0.2615716 0.9708 -0.2311606 1 1 1
v 0.2475453 1.0428 0.2779562 1 1 1
v -0.007013168 1.0428 0.3833978 1 1 1
v 0.1357928 1.0428 0.3242456 1 1 1
v 0.2102945 1.0428 0.293386 1 1 1
v 0.2357219 1.2588 0.0233978 1 1 1
v 0.3529868 1.0428 0.0233978 1 1 1
v 0.1646264 1.2588 0.1950374 1 1 1
v 0.2475453 1.0428 -0.2311606 1 1 1
v 0.2629751 1.0428 -0.1939098 1 1 1
v 0.1646264 1.2588 -0.1482418 1 1 1
v 0.2938347 1.0428 -0.1194082 1 1 1
v -0.007013168 1.2588 0.2661329 1 1 1
v -0.1786528 1.2588 0.1950374 1 1 1
v -0.2497482 1.2588 0.0233978 1 1 1
v -0.2615716 1.0428 -0.2311606 1 1 1
v -0.3207238 1.0428 -0.08835467 1 1 1
v -0.3515834 1.0428 -0.01385302 1 1 1
v -0.1786528 1.2588 -0.1482418 1 1 1
v -0.007013168 1.0428 -0.3366022 1 1 1
v -0.007013168 1.2588 -0.2193373 1 1 1
v 0.1910451 0.9613244 0.3522751 1 1 1
v 0.1624451 0.9715517 0.3577304 1 1 1
v 0.2151257 0.9715517 0.3359093 1 1 1
v 0.1460793 0.9962425 0.3490795 1 1 1
v 0.220581 0.9962425 0.3182199 1 1 1
v -0.3455577 0.9962425 -0.0986412 1 1 1
v -0.3632471 0.9715517 -0.09318594 1 1 1
v -0.3796129 0.9613244 -0.06910527 1 1 1
v -0.3850681 0.9715517 -0.04050533 1 1 1
v -0.3764173 0.9962425 -0.02413956 1 1 1
v 0.287809 0.9962425 -0.2041963 1 1 1
v 0.3054984 0.9715517 -0.1987411 1 1 1
v 0.3218642 0.9613244 -0.1746604 1 1 1
v 0.3273194 0.9715517 -0.1460605 1 1 1
v 0.3186685 0.9962425 -0.1296947 1 1 1
v -0.2950132 1.3308 0.0233978 1 1 1
v -0.05309317 1.8492 0.0233978 1 1 1
v -0.2569493 1.3308 0.1152921 1 1 1
v -0.03959665 1.8492 0.05598129 1 1 1
v -0.2106599 1.3308 0.2270446 1 1 1
v -0.2260897 1.3308 0.1897937 1 1 1
v 0.03906683 1.8492 0.0233978 1 1 1
v 0.02557031 1.8492 0.05598129 1 1 1
v 0.02557031 1.8492 -0.009185681 1 1 1
v -0.007013168 1.8492 -0.0226822 1 1 1
v -0.007013168 1.8492 0.0694778 1 1 1
v -0.03959665 1.8492 -0.009185681 1 1 1
v 0.2809868 1.3308 0.0233978 1 1 1
v 0.2655571 1.3308 0.06064863 1 1 1
v 0.1966336 1.3308 0.2270446 1 1 1
v 0.2346974 1.3308 0.1351503 1 1 1
v -0.2106599 1.2588 -0.180249 1 1 1
v -0.007013168 1.2588 -0.2646022 1 1 1
v -0.2106599 1.3308 -0.180249 1 1 1
v -0.007013168 1.3308 -0.2646022 1 1 1
v -0.1187656 1.3308 -0.2183128 1 1 1
v -0.04426399 1.3308 -0.2491724 1 1 1
v -0.2950132 1.2588 0.0233978 1 1 1
v -0.007013168 1.3308 0.3113978 1 1 1
v 0.1966336 1.3308 -0.180249 1 1 1
v 0.1966336 1.2588 -0.180249 1 1 1
v 0.2809868 1.2588 0.0233978 1 1 1
v 0.1966336 1.2588 0.2270446 1 1 1
v -0.007013168 1.2588 0.3113978 1 1 1
v -0.2106599 1.2588 0.2270446 1 1 1
v -0.2817832 1.284243 0.1255786 1 1 1
v -0.2904341 1.259552 0.1419444 1 1 1
v -0.2849788 1.249324 0.1705443 1 1 1
v -0.268613 1.259552 0.194625 1 1 1
v -0.2509236 1.284243 0.2000803 1 1 1
v -0.09951624 1.249324 -0.2772019 1 1 1
v -0.0709163 1.259552 -0.2826572 1 1 1
v -0.1235969 1.259552 -0.2608361 1 1 1
v -0.05455052 1.284243 -0.2740063 1 1 1
v -0.1290522 1.284243 -0.2431467 1 1 1
v 0.2903909 1.284243 0.07093516 1 1 1
v 0.2990418 1.259552 0.08730093 1 1 1
v 0.2935865 1.249324 0.1159009 1 1 1
v 0.2772208 1.259552 0.1399815 1 1 1
v 0.2595313 1.284243 0.1454368 1 1 1
v 0.1023934 0.70296 -0.4186041 1 1 1
v 0.3734503 0.70296 -0.2106148 1 1 1
v 0.06475892 0.9707999 -0.2781503 1 1 1
v 0.2475228 0.9707999 -0.1379106 1 1 1
v -0.2363434 0.6136799 -0.3740086 1 1 1
v 0.1023934 0.6136799 -0.4186041 1 1 1
v -0.2363434 0.70296 -0.3740086 1 1 1
v -0.0876362 0.70296 -0.3935862 1 1 1
v -0.1867743 0.70296 -0.3805345 1 1 1
v 0.3799762 0.70296 -0.1610458 1 1 1
v 0.393028 0.70296 -0.06190763 1 1 1
v 0.277592 0.9707999 0.09048748 1 1 1
v 0.4180459 0.70296 0.128122 1 1 1
v -0.4443327 0.70296 -0.1029517 1 1 1
v -0.4443327 0.6136799 -0.1029517 1 1 1
v -0.1636391 0.9707999 -0.2480811 1 1 1
v -0.3038788 0.9707999 -0.06531717 1 1 1
v -0.3997371 0.70296 0.2357851 1 1 1
v -0.2738097 0.9707999 0.1630809 1 1 1
v -0.1286802 0.6136799 0.4437745 1 1 1
v -0.3997371 0.6136799 0.2357851 1 1 1
v -0.1286802 0.70296 0.4437745 1 1 1
v -0.1683454 0.70296 0.4133383 1 1 1
v -0.2476756 0.70296 0.3524661 1 1 1
v 0.4180459 0.6136799 0.128122 1 1 1
v 0.3734503 0.6136799 -0.2106148 1 1 1
v 0.2100566 0.6136799 0.3991789 1 1 1
v -0.1448188 0.6019301 -0.4448909 1 1 1
v -0.1088125 0.614612 -0.4422462 1 1 1
v -0.1789137 0.614612 -0.4330172 1 1 1
v -0.09198679 0.6452286 -0.4266323 1 1 1
v -0.1911249 0.6452286 -0.4135805 1 1 1
v 0.4130223 0.6452286 -0.1653964 1 1 1
v 0.432459 0.614612 -0.1531852 1 1 1
v 0.4443327 0.6019301 -0.1190902 1 1 1
v 0.441688 0.614612 -0.08308392 1 1 1
v 0.426074 0.6452286 -0.06625822 1 1 1
v 0.1373523 0.9707999 0.2732514 1 1 1
v 0.2100566 0.70296 0.3991789 1 1 1
v -0.09104573 0.9707999 0.3033206 1 1 1
v -0.2435193 0.6019301 0.4291781 1 1 1
v -0.2671095 0.614612 0.4018477 1 1 1
v -0.2110145 0.614612 0.4448909 1 1 1
v -0.2679664 0.6452286 0.3789095 1 1 1
v -0.1886361 0.6452286 0.4397817 1 1 1

vn -0.4478745 0.4445602 -0.7757413
vn -0.895749 0.4445602 0
vn 0.4478745 0.4445602 0.7757413
vn -0.4478745 0.4445602 0.7757413
vn 0.4478745 0.4445602 -0.7757413
vn 0.895749 0.4445602 0
vn 0 -1 0
vn -0.4992835 0.05351851 -0.8647842
vn 0.4992835 0.05351851 -0.8647842
vn -0.9985669 0.05351851 0
vn -0.4992835 0.05351851 0.8647842
vn 0.9985669 0.05351851 0
vn 0.4992835 0.05351851 0.8647842
vn -1 0 0
vn -0.7071068 0 0.7071068
vn 0.7071068 0 0.7071068
vn 0 0 1
vn 0.3826834 0 0.9238795
vn 0.8788401 0.4771163 0
vn 0.6214339 0.4771164 0.6214339
vn 0.6214339 0.4771164 -0.6214339
vn 0.8258243 0.4483344 -0.3420676
vn 0 0.4771163 0.8788401
vn -0.6214339 0.4771164 0.6214339
vn 1 0 0
vn 0.3420676 0.4483344 0.8258243
vn -0.8788401 0.4771163 0
vn -0.7071068 0 -0.7071068
vn -0.9238795 0 -0.3826834
vn -0.6214339 0.4771164 -0.6214339
vn -0.8258243 0.4483344 -0.3420676
vn 0 0.4771163 -0.8788401
vn 0.7071068 0 -0.7071068
vn 0.9238795 0 -0.3826834
vn 0 0 -1
vn 0.3314136 0.5 0.8001032
vn -0.8001032 0.5 -0.3314136
vn 0.8001032 0.5 -0.3314136
vn -0.9061831 0.4228855 0
vn -0.8483871 0.3959139 0.3514134
vn -0.6407682 0.4228855 0.6407682
vn 0 1 0
vn 0.9061831 0.4228855 0
vn 0.8483871 0.3959139 0.3514134
vn 0.6407682 0.4228855 0.6407682
vn -0.3826834 0 -0.9238795
vn -0.6407682 0.4228855 -0.6407682
vn -0.3514134 0.3959139 -0.8483871
vn 0 0.4228855 -0.9061831
vn 0 0.4228855 0.9061831
vn -0.9238795 0 0.3826834
vn 0.6407682 0.4228855 -0.6407682
vn 0.9238795 0 0.3826834
vn -0.8001032 0.5 0.3314136
vn -0.3314136 0.5 -0.8001032
vn 0.8001032 0.5 0.3314136
vn 0.2274606 0.4771164 -0.8488944
vn 0.7610979 0.4771164 -0.4394201
vn -0.5 0 -0.8660254
vn 0.258819 0 -0.9659258
vn -0.1305262 0 -0.9914449
vn 0.8862187 0.4483344 -0.1166729
vn 0.8488944 0.4771164 0.2274606
vn -0.9659258 0 -0.258819
vn -0.4394201 0.4771164 -0.7610979
vn -0.1166729 0.4483344 -0.8862187
vn -0.8488944 0.4771164 -0.2274606
vn -0.7610979 0.4771164 0.4394201
vn -0.258819 0 0.9659258
vn -0.8660254 0 0.5
vn -0.6087614 0 0.7933533
vn -0.113039 0.5 -0.8586165
vn 0.8586165 0.5 -0.113039
vn 0.4394201 0.4771164 0.7610979
vn 0.8660254 0 -0.5
vn -0.2274606 0.4771164 0.8488944
vn -0.5441511 0.4483345 0.7091515
vn 0.5 0 0.8660254
vn 0.9914449 0 -0.1305262
vn 0.9659258 0 0.258819
vn -0.5272029 0.5 0.6870642

vt 0.59375 0.025
vt 0.59375 0.0657911
vt 0.59375 0.225
vt 0.09375 0.275
vt 0.09375 0.325
vt 0.09375 0.475
vt 0.09375 0.275522
vt 0.09375 0.2926684
vt 0.09375 0.2993903
vt 0.09375 0.2836187
vt 0.09375 0.2752546
vt 0.09375 0.329778
vt 0.09375 0.2813707
vt 0.09375 0.2818761
vt 0.09375 0.2984763

usemtl colormap

f 3/1/2 2/2/1 1/1/1
f 2/2/1 3/1/2 4/2/2
f 7/2/3 6/1/4 5/1/3
f 6/1/4 7/2/3 8/2/4
f 11/2/5 10/1/6 9/1/5
f 10/1/6 11/2/5 12/2/6
f 6/1/4 4/2/2 3/1/2
f 4/2/2 6/1/4 8/2/4
f 2/2/1 9/1/5 1/1/1
f 9/1/5 2/2/1 11/2/5
f 7/2/3 10/1/6 12/2/6
f 10/1/6 7/2/3 5/1/3
f 5/1/7 9/1/7 10/1/7
f 9/1/7 5/1/7 1/1/7
f 1/1/7 5/1/7 6/1/7
f 1/1/7 6/1/7 3/1/7
f 13/3/8 11/2/9 2/2/8
f 11/2/9 13/3/8 14/3/9
f 8/2/11 15/3/10 4/2/10
f 15/3/10 8/2/11 16/3/11
f 17/3/12 7/2/13 12/2/12
f 7/2/13 17/3/12 18/3/13
f 14/3/9 12/2/12 11/2/9
f 12/2/12 14/3/9 17/3/12
f 4/2/10 13/3/8 2/2/8
f 13/3/8 4/2/10 15/3/10
f 18/3/13 8/2/11 7/2/13
f 8/2/11 18/3/13 16/3/11
f 21/4/15 20/5/14 19/4/14
f 20/5/14 21/4/15 22/5/15
f 25/4/7 24/4/7 23/4/7
f 24/4/7 25/4/7 26/4/7
f 24/4/7 26/4/7 27/4/7
f 27/4/7 26/4/7 21/4/7
f 27/4/7 21/4/7 28/4/7
f 28/4/7 21/4/7 19/4/7
f 29/5/16 26/4/17 25/4/16
f 26/4/17 29/5/16 30/5/17
f 30/5/17 29/5/16 31/5/18
f 31/5/18 29/5/16 32/5/18
f 35/6/20 34/5/19 33/6/19
f 34/5/19 35/6/20 29/5/20
f 38/6/21 37/5/22 36/5/21
f 37/5/22 38/6/21 39/5/22
f 39/5/22 38/6/21 33/6/19
f 39/5/22 33/6/19 34/5/19
f 40/6/23 22/5/24 30/5/23
f 22/5/24 40/6/23 41/6/24
f 29/5/16 23/4/25 34/5/25
f 23/4/25 29/5/16 25/4/16
f 35/6/20 32/5/26 29/5/20
f 32/5/26 35/6/20 31/5/26
f 40/6/23 31/5/26 35/6/20
f 31/5/26 40/6/23 30/5/23
f 22/5/24 42/6/27 20/5/27
f 42/6/27 22/5/24 41/6/24
f 19/4/14 43/5/28 28/4/28
f 43/5/28 19/4/14 44/5/29
f 44/5/29 19/4/14 45/5/29
f 45/5/29 19/4/14 20/5/14
f 44/5/31 46/6/30 43/5/30
f 46/6/30 44/5/31 42/6/27
f 42/6/27 44/5/31 45/5/31
f 42/6/27 45/5/31 20/5/27
f 30/5/17 21/4/15 26/4/17
f 21/4/15 30/5/17 22/5/15
f 48/6/32 36/5/21 47/5/32
f 36/5/21 48/6/32 38/6/21
f 46/6/30 47/5/32 43/5/30
f 47/5/32 46/6/30 48/6/32
f 37/5/34 24/4/33 36/5/33
f 24/4/33 37/5/34 23/4/25
f 23/4/25 37/5/34 39/5/34
f 23/4/25 39/5/34 34/5/25
f 43/5/28 27/4/35 28/4/28
f 27/4/35 43/5/28 47/5/35
f 47/5/35 24/4/33 27/4/35
f 24/4/33 47/5/35 36/5/33
f 51/7/36 50/7/36 49/4/36
f 50/7/36 51/7/36 52/8/36
f 52/8/36 51/7/36 53/8/36
f 52/8/36 53/8/36 31/5/36
f 31/5/36 53/8/36 32/5/36
f 55/7/37 44/5/37 54/8/37
f 44/5/37 55/7/37 56/4/37
f 44/5/37 56/4/37 45/5/37
f 45/5/37 56/4/37 57/7/37
f 45/5/37 57/7/37 58/8/37
f 37/5/38 60/7/38 59/8/38
f 60/7/38 37/5/38 61/4/38
f 61/4/38 37/5/38 39/5/38
f 61/4/38 39/5/38 62/7/38
f 62/7/38 39/5/38 63/8/38
f 66/9/40 65/6/39 64/9/39
f 65/6/39 66/9/40 67/6/41
f 67/6/41 66/9/40 68/9/41
f 68/9/41 66/9/40 69/9/40
f 72/6/42 71/6/42 70/6/42
f 71/6/42 72/6/42 73/6/42
f 71/6/42 73/6/42 74/6/42
f 74/6/42 73/6/42 75/6/42
f 74/6/42 75/6/42 67/6/42
f 67/6/42 75/6/42 65/6/42
f 70/6/43 77/9/44 76/9/43
f 77/9/44 70/6/43 71/6/45
f 77/9/44 71/6/45 78/9/45
f 77/9/44 78/9/45 79/9/44
f 82/9/28 81/4/35 80/4/28
f 81/4/35 82/9/28 83/9/35
f 83/9/35 82/9/28 84/9/46
f 83/9/35 84/9/46 85/9/46
f 75/6/47 84/9/48 82/9/47
f 84/9/48 75/6/47 85/9/48
f 85/9/48 75/6/47 83/9/49
f 83/9/49 75/6/47 73/6/49
f 64/9/39 75/6/47 82/9/47
f 75/6/47 64/9/39 65/6/39
f 86/4/14 82/9/28 80/4/28
f 82/9/28 86/4/14 64/9/14
f 71/6/45 87/9/50 78/9/45
f 87/9/50 71/6/45 74/6/50
f 76/9/25 89/4/33 88/9/33
f 89/4/33 76/9/25 90/4/25
f 78/9/16 92/4/17 91/4/16
f 92/4/17 78/9/16 87/9/17
f 93/4/15 64/9/14 86/4/14
f 64/9/14 93/4/15 66/9/51
f 66/9/51 93/4/15 69/9/51
f 69/9/51 93/4/15 68/9/15
f 91/4/7 89/4/7 90/4/7
f 89/4/7 91/4/7 92/4/7
f 89/4/7 92/4/7 81/4/7
f 81/4/7 92/4/7 93/4/7
f 81/4/7 93/4/7 80/4/7
f 80/4/7 93/4/7 86/4/7
f 72/6/52 76/9/43 88/9/52
f 76/9/43 72/6/52 70/6/43
f 74/6/50 68/9/41 87/9/50
f 68/9/41 74/6/50 67/6/41
f 83/9/35 89/4/33 81/4/35
f 89/4/33 83/9/35 88/9/33
f 73/6/49 88/9/52 83/9/49
f 88/9/52 73/6/49 72/6/52
f 77/9/53 90/4/25 76/9/25
f 90/4/25 77/9/53 91/4/16
f 91/4/16 77/9/53 79/9/53
f 91/4/16 79/9/53 78/9/16
f 87/9/17 93/4/15 92/4/17
f 93/4/15 87/9/17 68/9/15
f 94/10/54 69/9/54 66/9/54
f 69/9/54 94/10/54 95/11/54
f 69/9/54 95/11/54 96/4/54
f 69/9/54 96/4/54 97/11/54
f 69/9/54 97/11/54 98/10/54
f 101/11/55 100/11/55 99/4/55
f 100/11/55 101/11/55 102/10/55
f 102/10/55 101/11/55 103/10/55
f 102/10/55 103/10/55 85/9/55
f 85/9/55 103/10/55 84/9/55
f 79/9/56 104/10/56 77/9/56
f 104/10/56 79/9/56 105/11/56
f 105/11/56 79/9/56 106/4/56
f 106/4/56 79/9/56 107/11/56
f 107/11/56 79/9/56 108/10/56
f 111/6/57 110/12/58 109/12/57
f 110/12/58 111/6/57 112/6/58
f 115/12/59 114/13/60 113/13/59
f 114/13/60 115/12/59 109/12/60
f 109/12/60 115/12/59 116/12/61
f 116/12/61 115/12/59 117/12/61
f 112/6/58 118/12/62 110/12/58
f 118/12/62 112/6/58 119/12/62
f 119/12/62 112/6/58 120/6/63
f 119/12/62 120/6/63 121/12/63
f 113/13/59 122/12/64 115/12/59
f 122/12/64 113/13/59 123/13/64
f 124/6/65 117/12/66 115/12/65
f 117/12/66 124/6/65 116/12/66
f 111/6/57 116/12/66 124/6/65
f 116/12/66 111/6/57 109/12/57
f 126/12/68 125/6/67 122/12/67
f 125/6/67 126/12/68 127/6/68
f 130/12/69 129/13/70 128/13/69
f 129/13/70 130/12/69 126/12/70
f 126/12/70 130/12/69 131/12/71
f 126/12/70 131/12/71 132/12/71
f 135/13/7 134/13/7 133/13/7
f 134/13/7 135/13/7 114/13/7
f 114/13/7 135/13/7 128/13/7
f 114/13/7 128/13/7 113/13/7
f 113/13/7 128/13/7 129/13/7
f 113/13/7 129/13/7 123/13/7
f 138/14/72 137/14/72 136/4/72
f 137/14/72 138/14/72 139/15/72
f 139/15/72 138/14/72 140/15/72
f 139/15/72 140/15/72 116/12/72
f 116/12/72 140/15/72 117/12/72
f 118/12/73 142/14/73 141/15/73
f 142/14/73 118/12/73 119/12/73
f 142/14/73 119/12/73 143/4/73
f 143/4/73 119/12/73 144/14/73
f 144/14/73 119/12/73 145/15/73
f 146/6/74 121/12/63 120/6/63
f 121/12/63 146/6/74 147/12/74
f 109/12/60 134/13/75 114/13/60
f 134/13/75 109/12/60 110/12/75
f 148/6/76 131/12/77 130/12/76
f 131/12/77 148/6/76 132/12/77
f 132/12/77 148/6/76 126/12/68
f 126/12/68 148/6/76 127/6/68
f 147/12/78 128/13/69 135/13/78
f 128/13/69 147/12/78 130/12/69
f 129/13/70 122/12/64 123/13/64
f 122/12/64 129/13/70 126/12/70
f 146/6/74 130/12/76 147/12/74
f 130/12/76 146/6/74 148/6/76
f 118/12/79 134/13/75 110/12/75
f 134/13/75 118/12/79 133/13/80
f 133/13/80 118/12/79 119/12/79
f 133/13/80 119/12/79 121/12/80
f 147/12/78 133/13/80 121/12/80
f 133/13/80 147/12/78 135/13/78
f 122/12/67 124/6/65 115/12/65
f 124/6/65 122/12/67 125/6/67
f 151/14/81 150/14/81 149/4/81
f 150/14/81 151/14/81 152/15/81
f 152/15/81 151/14/81 153/15/81
f 152/15/81 153/15/81 132/12/81
f 132/12/81 153/15/81 131/12/81

g tree-large




usemtl colormap

f 3/1/2 2/2/1 1/1/1
f 2/2/1 3/1/2 4/2/2
f 7/2/3 6/1/4 5/1/3
f 6/1/4 7/2/3 8/2/4
f 11/2/5 10/1/6 9/1/5
f 10/1/6 11/2/5 12/2/6
f 6/1/4 4/2/2 3/1/2
f 4/2/2 6/1/4 8/2/4
f 2/2/1 9/1/5 1/1/1
f 9/1/5 2/2/1 11/2/5
f 7/2/3 10/1/6 12/2/6
f 10/1/6 7/2/3 5/1/3
f 5/1/7 9/1/7 10/1/7
f 9/1/7 5/1/7 1/1/7
f 1/1/7 5/1/7 6/1/7
f 1/1/7 6/1/7 3/1/7
f 13/3/8 11/2/9 2/2/8
f 11/2/9 13/3/8 14/3/9
f 8/2/11 15/3/10 4/2/10
f 15/3/10 8/2/11 16/3/11
f 17/3/12 7/2/13 12/2/12
f 7/2/13 17/3/12 18/3/13
f 14/3/9 12/2/12 11/2/9
f 12/2/12 14/3/9 17/3/12
f 4/2/10 13/3/8 2/2/8
f 13/3/8 4/2/10 15/3/10
f 18/3/13 8/2/11 7/2/13
f 8/2/11 18/3/13 16/3/11
f 21/4/15 20/5/14 19/4/14
f 20/5/14 21/4/15 22/5/15
f 25/4/7 24/4/7 23/4/7
f 24/4/7 25/4/7 26/4/7
f 24/4/7 26/4/7 27/4/7
f 27/4/7 26/4/7 21/4/7
f 27/4/7 21/4/7 28/4/7
f 28/4/7 21/4/7 19/4/7
f 29/5/16 26/4/17 25/4/16
f 26/4/17 29/5/16 30/5/17
f 30/5/17 29/5/16 31/5/18
f 31/5/18 29/5/16 32/5/18
f 35/6/20 34/5/19 33/6/19
f 34/5/19 35/6/20 29/5/20
f 38/6/21 37/5/22 36/5/21
f 37/5/22 38/6/21 39/5/22
f 39/5/22 38/6/21 33/6/19
f 39/5/22 33/6/19 34/5/19
f 40/6/23 22/5/24 30/5/23
f 22/5/24 40/6/23 41/6/24
f 29/5/16 23/4/25 34/5/25
f 23/4/25 29/5/16 25/4/16
f 35/6/20 32/5/26 29/5/20
f 32/5/26 35/6/20 31/5/26
f 40/6/23 31/5/26 35/6/20
f 31/5/26 40/6/23 30/5/23
f 22/5/24 42/6/27 20/5/27
f 42/6/27 22/5/24 41/6/24
f 19/4/14 43/5/28 28/4/28
f 43/5/28 19/4/14 44/5/29
f 44/5/29 19/4/14 45/5/29
f 45/5/29 19/4/14 20/5/14
f 44/5/31 46/6/30 43/5/30
f 46/6/30 44/5/31 42/6/27
f 42/6/27 44/5/31 45/5/31
f 42/6/27 45/5/31 20/5/27
f 30/5/17 21/4/15 26/4/17
f 21/4/15 30/5/17 22/5/15
f 48/6/32 36/5/21 47/5/32
f 36/5/21 48/6/32 38/6/21
f 46/6/30 47/5/32 43/5/30
f 47/5/32 46/6/30 48/6/32
f 37/5/34 24/4/33 36/5/33
f 24/4/33 37/5/34 23/4/25
f 23/4/25 37/5/34 39/5/34
f 23/4/25 39/5/34 34/5/25
f 43/5/28 27/4/35 28/4/28
f 27/4/35 43/5/28 47/5/35
f 47/5/35 24/4/33 27/4/35
f 24/4/33 47/5/35 36/5/33
f 51/7/36 50/7/36 49/4/36
f 50/7/36 51/7/36 52/8/36
f 52/8/36 51/7/36 53/8/36
f 52/8/36 53/8/36 31/5/36
f 31/5/36 53/8/36 32/5/36
f 55/7/37 44/5/37 54/8/37
f 44/5/37 55/7/37 56/4/37
f 44/5/37 56/4/37 45/5/37
f 45/5/37 56/4/37 57/7/37
f 45/5/37 57/7/37 58/8/37
f 37/5/38 60/7/38 59/8/38
f 60/7/38 37/5/38 61/4/38
f 61/4/38 37/5/38 39/5/38
f 61/4/38 39/5/38 62/7/38
f 62/7/38 39/5/38 63/8/38
f 66/9/40 65/6/39 64/9/39
f 65/6/39 66/9/40 67/6/41
f 67/6/41 66/9/40 68/9/41
f 68/9/41 66/9/40 69/9/40
f 72/6/42 71/6/42 70/6/42
f 71/6/42 72/6/42 73/6/42
f 71/6/42 73/6/42 74/6/42
f 74/6/42 73/6/42 75/6/42
f 74/6/42 75/6/42 67/6/42
f 67/6/42 75/6/42 65/6/42
f 70/6/43 77/9/44 76/9/43
f 77/9/44 70/6/43 71/6/45
f 77/9/44 71/6/45 78/9/45
f 77/9/44 78/9/45 79/9/44
f 82/9/28 81/4/35 80/4/28
f 81/4/35 82/9/28 83/9/35
f 83/9/35 82/9/28 84/9/46
f 83/9/35 84/9/46 85/9/46
f 75/6/47 84/9/48 82/9/47
f 84/9/48 75/6/47 85/9/48
f 85/9/48 75/6/47 83/9/49
f 83/9/49 75/6/47 73/6/49
f 64/9/39 75/6/47 82/9/47
f 75/6/47 64/9/39 65/6/39
f 86/4/14 82/9/28 80/4/28
f 82/9/28 86/4/14 64/9/14
f 71/6/45 87/9/50 78/9/45
f 87/9/50 71/6/45 74/6/50
f 76/9/25 89/4/33 88/9/33
f 89/4/33 76/9/25 90/4/25
f 78/9/16 92/4/17 91/4/16
f 92/4/17 78/9/16 87/9/17
f 93/4/15 64/9/14 86/4/14
f 64/9/14 93/4/15 66/9/51
f 66/9/51 93/4/15 69/9/51
f 69/9/51 93/4/15 68/9/15
f 91/4/7 89/4/7 90/4/7
f 89/4/7 91/4/7 92/4/7
f 89/4/7 92/4/7 81/4/7
f 81/4/7 92/4/7 93/4/7
f 81/4/7 93/4/7 80/4/7
f 80/4/7 93/4/7 86/4/7
f 72/6/52 76/9/43 88/9/52
f 76/9/43 72/6/52 70/6/43
f 74/6/50 68/9/41 87/9/50
f 68/9/41 74/6/50 67/6/41
f 83/9/35 89/4/33 81/4/35
f 89/4/33 83/9/35 88/9/33
f 73/6/49 88/9/52 83/9/49
f 88/9/52 73/6/49 72/6/52
f 77/9/53 90/4/25 76/9/25
f 90/4/25 77/9/53 91/4/16
f 91/4/16 77/9/53 79/9/53
f 91/4/16 79/9/53 78/9/16
f 87/9/17 93/4/15 92/4/17
f 93/4/15 87/9/17 68/9/15
f 94/10/54 69/9/54 66/9/54
f 69/9/54 94/10/54 95/11/54
f 69/9/54 95/11/54 96/4/54
f 69/9/54 96/4/54 97/11/54
f 69/9/54 97/11/54 98/10/54
f 101/11/55 100/11/55 99/4/55
f 100/11/55 101/11/55 102/10/55
f 102/10/55 101/11/55 103/10/55
f 102/10/55 103/10/55 85/9/55
f 85/9/55 103/10/55 84/9/55
f 79/9/56 104/10/56 77/9/56
f 104/10/56 79/9/56 105/11/56
f 105/11/56 79/9/56 106/4/56
f 106/4/56 79/9/56 107/11/56
f 107/11/56 79/9/56 108/10/56
f 111/6/57 110/12/58 109/12/57
f 110/12/58 111/6/57 112/6/58
f 115/12/59 114/13/60 113/13/59
f 114/13/60 115/12/59 109/12/60
f 109/12/60 115/12/59 116/12/61
f 116/12/61 115/12/59 117/12/61
f 112/6/58 118/12/62 110/12/58
f 118/12/62 112/6/58 119/12/62
f 119/12/62 112/6/58 120/6/63
f 119/12/62 120/6/63 121/12/63
f 113/13/59 122/12/64 115/12/59
f 122/12/64 113/13/59 123/13/64
f 124/6/65 117/12/66 115/12/65
f 117/12/66 124/6/65 116/12/66
f 111/6/57 116/12/66 124/6/65
f 116/12/66 111/6/57 109/12/57
f 126/12/68 125/6/67 122/12/67
f 125/6/67 126/12/68 127/6/68
f 130/12/69 129/13/70 128/13/69
f 129/13/70 130/12/69 126/12/70
f 126/12/70 130/12/69 131/12/71
f 126/12/70 131/12/71 132/12/71
f 135/13/7 134/13/7 133/13/7
f 134/13/7 135/13/7 114/13/7
f 114/13/7 135/13/7 128/13/7
f 114/13/7 128/13/7 113/13/7
f 113/13/7 128/13/7 129/13/7
f 113/13/7 129/13/7 123/13/7
f 138/14/72 137/14/72 136/4/72
f 137/14/72 138/14/72 139/15/72
f 139/15/72 138/14/72 140/15/72
f 139/15/72 140/15/72 116/12/72
f 116/12/72 140/15/72 117/12/72
f 118/12/73 142/14/73 141/15/73
f 142/14/73 118/12/73 119/12/73
f 142/14/73 119/12/73 143/4/73
f 143/4/73 119/12/73 144/14/73
f 144/14/73 119/12/73 145/15/73
f 146/6/74 121/12/63 120/6/63
f 121/12/63 146/6/74 147/12/74
f 109/12/60 134/13/75 114/13/60
f 134/13/75 109/12/60 110/12/75
f 148/6/76 131/12/77 130/12/76
f 131/12/77 148/6/76 132/12/77
f 132/12/77 148/6/76 126/12/68
f 126/12/68 148/6/76 127/6/68
f 147/12/78 128/13/69 135/13/78
f 128/13/69 147/12/78 130/12/69
f 129/13/70 122/12/64 123/13/64
f 122/12/64 129/13/70 126/12/70
f 146/6/74 130/12/76 147/12/74
f 130/12/76 146/6/74 148/6/76
f 118/12/79 134/13/75 110/12/75
f 134/13/75 118/12/79 133/13/80
f 133/13/80 118/12/79 119/12/79
f 133/13/80 119/12/79 121/12/80
f 147/12/78 133/13/80 121/12/80
f 133/13/80 147/12/78 135/13/78
f 122/12/67 124/6/65 115/12/65
f 124/6/65 122/12/67 125/6/67
f 151/14/81 150/14/81 149/4/81
f 150/14/81 151/14/81 152/15/81
f 152/15/81 151/14/81 153/15/81
f 152/15/81 153/15/81 132/12/81
f 132/12/81 153/15/81 131/12/81

