# Created by Kenney (www.kenney.nl)

mtllib tree-log.mtl

g tree-log

v -0.1 -6.102408E-14 -0.3 1 1 1
v -0.1 6.643841E-14 0.3 1 1 1
v -0.05 -0.08660254 -0.3 1 1 1
v -0.05 -0.08660254 0.3 1 1 1
v 0.05 0.08660254 -0.3 1 1 1
v 0.1 -6.102408E-14 -0.3 1 1 1
v 0.05 0.08660254 0.3 1 1 1
v 0.1 6.643841E-14 0.3 1 1 1
v 0.061 0.1056551 0.5 1 1 1
v 0.122 1.067301E-13 0.5 1 1 1
v -0.05 0.08660254 -0.3 1 1 1
v -0.05 0.08660254 0.3 1 1 1
v -0.061 0.1056551 0.5 1 1 1
v 0.05 -0.08660254 0.3 1 1 1
v 0.05 -0.08660254 -0.3 1 1 1
v -0.122 1.067301E-13 0.5 1 1 1
v -0.061 -0.1056551 0.5 1 1 1
v 0.061 -0.1056551 0.5 1 1 1
v 0.061 -0.1056551 -0.5 1 1 1
v -0.061 -0.1056551 -0.5 1 1 1
v 0.122 -1.067526E-13 -0.5 1 1 1
v 0.061 0.1056551 -0.5 1 1 1
v -0.061 0.1056551 -0.5 1 1 1
v -0.122 -1.067526E-13 -0.5 1 1 1
v 0.07060844 0.02844988 0.2206668 1 1 1
v 0.07060844 0.02844988 0.2872894 1 1 1
v 0.1274052 0.1495163 0.2320127 1 1 1
v 0.1274052 0.1495163 0.2759435 1 1 1
v 0.08935992 0.1714818 0.2320127 1 1 1
v 0.08935992 0.1714818 0.2759435 1 1 1
v 0.01291166 0.06176113 0.2206668 1 1 1
v 0.01291166 0.06176113 0.2872894 1 1 1
v -0.07494067 0.03207822 -0.1416195 1 1 1
v -0.122082 0.1325634 -0.1510365 1 1 1
v -0.02705234 0.05972656 -0.1416195 1 1 1
v -0.09050441 0.1507947 -0.1510365 1 1 1
v -0.02705234 0.05972656 -0.1969162 1 1 1
v -0.09050441 0.1507947 -0.1874992 1 1 1
v -0.122082 0.1325634 -0.1874992 1 1 1
v -0.07494067 0.03207822 -0.1969162 1 1 1

vn -0.9984459 0 0.05573028
vn -0.9984459 0 -0.05573028
vn -0.4992229 -0.8646795 0.05573027
vn -0.4992229 -0.8646795 -0.05573027
vn 0.4992229 0.8646795 0.05573027
vn 0.9984459 0 0.05573028
vn 0.4992229 0.8646795 -0.05573027
vn 0.9984459 0 -0.05573028
vn 0.4970022 0.860833 -0.1093405
vn 0.9940044 0 -0.1093405
vn -0.4992229 0.8646795 0.05573027
vn -0.4992229 0.8646795 -0.05573027
vn -0.4970022 0.860833 -0.1093405
vn 0.4992229 -0.8646795 -0.05573027
vn 0.4992229 -0.8646795 0.05573027
vn -0.9940044 0 -0.1093405
vn -0.4970022 -0.860833 -0.1093405
vn 0.4970022 -0.860833 -0.1093405
vn 0.4970022 -0.860833 0.1093405
vn -0.4970022 -0.860833 0.1093405
vn 0.9940044 0 0.1093405
vn 0.4970022 0.860833 0.1093405
vn -0.4970022 0.860833 0.1093405
vn -0.9940044 0 0.1093405
vn 0.6677583 -0.2474784 -0.702035
vn 0.6677583 -0.2474784 0.702035
vn 0.5 0.8660254 0
vn -0.5482018 0.4545565 -0.702035
vn -0.5482018 0.4545565 0.702035
vn -0.6677583 -0.2474785 0.702035
vn 0.5482018 0.4545565 0.702035
vn 0.5482018 0.4545565 -0.702035
vn -0.5 0.8660254 0
vn -0.6677583 -0.2474785 -0.702035
vn 0 0 1
vn 0 0 -1

vt 0.59375 0.075
vt 0.59375 0.1569672
vt 0.59375 0.175
vt 0.59375 0.025
vt 0.59375 0.194286
vt 0.59375 0.225
vt 0.59375 0.07157877
vt 0.96875 0.075
vt 0.96875 0.175

usemtl colormap

f 3/1/3 2/1/2 1/1/1
f 2/1/2 3/1/3 4/1/4
f 7/2/7 6/1/6 5/2/5
f 6/1/6 7/2/7 8/1/8
f 9/3/9 8/1/8 7/2/7
f 8/1/8 9/3/9 10/1/10
f 11/2/11 7/2/7 5/2/5
f 7/2/7 11/2/11 12/2/12
f 7/2/7 13/3/13 9/3/9
f 13/3/13 7/2/7 12/2/12
f 4/1/4 15/1/15 14/1/14
f 15/1/15 4/1/4 3/1/3
f 8/1/8 15/1/15 6/1/6
f 15/1/15 8/1/8 14/1/14
f 2/1/2 13/3/13 12/2/12
f 13/3/13 2/1/2 16/1/16
f 4/1/4 16/1/16 2/1/2
f 16/1/16 4/1/4 17/1/17
f 10/1/10 14/1/14 8/1/8
f 14/1/14 10/1/10 18/1/18
f 15/1/15 20/1/20 19/1/19
f 20/1/20 15/1/15 3/1/3
f 6/1/6 19/1/19 21/1/21
f 19/1/19 6/1/6 15/1/15
f 23/3/23 5/2/5 22/3/22
f 5/2/5 23/3/23 11/2/11
f 20/1/20 1/1/1 24/1/24
f 1/1/1 20/1/20 3/1/3
f 17/1/17 14/1/14 18/1/18
f 14/1/14 17/1/17 4/1/4
f 1/1/1 12/2/12 11/2/11
f 12/2/12 1/1/1 2/1/2
f 5/2/5 21/1/21 22/3/22
f 21/1/21 5/2/5 6/1/6
f 24/1/24 11/2/11 23/3/23
f 11/2/11 24/1/24 1/1/1
f 27/5/25 26/4/26 25/4/25
f 26/4/26 27/5/25 28/5/26
f 29/6/27 28/5/27 27/5/27
f 28/5/27 29/6/27 30/6/27
f 31/7/28 27/5/25 25/4/25
f 27/5/25 31/7/28 29/6/28
f 28/5/26 32/7/29 26/4/26
f 32/7/29 28/5/26 30/6/29
f 32/7/29 29/6/28 31/7/28
f 29/6/28 32/7/29 30/6/29
f 35/7/31 34/5/30 33/4/30
f 34/5/30 35/7/31 36/6/31
f 38/6/32 35/7/31 37/7/32
f 35/7/31 38/6/32 36/6/31
f 39/5/33 36/6/33 38/6/33
f 36/6/33 39/5/33 34/5/33
f 39/5/34 37/7/32 40/4/34
f 37/7/32 39/5/34 38/6/32
f 33/4/30 39/5/34 40/4/34
f 39/5/34 33/4/30 34/5/30
f 10/8/35 17/8/35 18/8/35
f 17/8/35 10/8/35 16/8/35
f 16/8/35 10/8/35 9/9/35
f 16/8/35 9/9/35 13/9/35
f 24/8/36 19/8/36 20/8/36
f 19/8/36 24/8/36 21/8/36
f 21/8/36 24/8/36 23/9/36
f 21/8/36 23/9/36 22/9/36

g tree-log




usemtl colormap

f 3/1/3 2/1/2 1/1/1
f 2/1/2 3/1/3 4/1/4
f 7/2/7 6/1/6 5/2/5
f 6/1/6 7/2/7 8/1/8
f 9/3/9 8/1/8 7/2/7
f 8/1/8 9/3/9 10/1/10
f 11/2/11 7/2/7 5/2/5
f 7/2/7 11/2/11 12/2/12
f 7/2/7 13/3/13 9/3/9
f 13/3/13 7/2/7 12/2/12
f 4/1/4 15/1/15 14/1/14
f 15/1/15 4/1/4 3/1/3
f 8/1/8 15/1/15 6/1/6
f 15/1/15 8/1/8 14/1/14
f 2/1/2 13/3/13 12/2/12
f 13/3/13 2/1/2 16/1/16
f 4/1/4 16/1/16 2/1/2
f 16/1/16 4/1/4 17/1/17
f 10/1/10 14/1/14 8/1/8
f 14/1/14 10/1/10 18/1/18
f 15/1/15 20/1/20 19/1/19
f 20/1/20 15/1/15 3/1/3
f 6/1/6 19/1/19 21/1/21
f 19/1/19 6/1/6 15/1/15
f 23/3/23 5/2/5 22/3/22
f 5/2/5 23/3/23 11/2/11
f 20/1/20 1/1/1 24/1/24
f 1/1/1 20/1/20 3/1/3
f 17/1/17 14/1/14 18/1/18
f 14/1/14 17/1/17 4/1/4
f 1/1/1 12/2/12 11/2/11
f 12/2/12 1/1/1 2/1/2
f 5/2/5 21/1/21 22/3/22
f 21/1/21 5/2/5 6/1/6
f 24/1/24 11/2/11 23/3/23
f 11/2/11 24/1/24 1/1/1
f 27/5/25 26/4/26 25/4/25
f 26/4/26 27/5/25 28/5/26
f 29/6/27 28/5/27 27/5/27
f 28/5/27 29/6/27 30/6/27
f 31/7/28 27/5/25 25/4/25
f 27/5/25 31/7/28 29/6/28
f 28/5/26 32/7/29 26/4/26
f 32/7/29 28/5/26 30/6/29
f 32/7/29 29/6/28 31/7/28
f 29/6/28 32/7/29 30/6/29
f 35/7/31 34/5/30 33/4/30
f 34/5/30 35/7/31 36/6/31
f 38/6/32 35/7/31 37/7/32
f 35/7/31 38/6/32 36/6/31
f 39/5/33 36/6/33 38/6/33
f 36/6/33 39/5/33 34/5/33
f 39/5/34 37/7/32 40/4/34
f 37/7/32 39/5/34 38/6/32
f 33/4/30 39/5/34 40/4/34
f 39/5/34 33/4/30 34/5/30
f 10/8/35 17/8/35 18/8/35
f 17/8/35 10/8/35 16/8/35
f 16/8/35 10/8/35 9/9/35
f 16/8/35 9/9/35 13/9/35
f 24/8/36 19/8/36 20/8/36
f 19/8/36 24/8/36 21/8/36
f 21/8/36 24/8/36 23/9/36
f 21/8/36 23/9/36 22/9/36

