# Created by Kenney (www.kenney.nl)

mtllib wall-corner-half.mtl

g wall-corner-half

v -0.5 0.28 0.5 1 1 1
v -0.5 0.45 0.465 1 1 1
v -0.465 0.45 0.5 1 1 1
v -0.465 1.01 0.5 1 1 1
v -0.5 1.01 0.465 1 1 1
v -0.5 1.11 0.5 1 1 1
v -0.5 0 -0.5 1 1 1
v 0.5 5.414336E-16 -0.5 1 1 1
v -0.5 0.28 -0.5 1 1 1
v 0.5 0.28 -0.5 1 1 1
v 0.5 5.414336E-16 0.5 1 1 1
v -0.5 5.414336E-16 0.5 1 1 1
v 0.5 0.28 0.5 1 1 1
v 0.465 0.45 0.5 1 1 1
v 0.465 1.01 0.5 1 1 1
v 0.5 1.11 0.5 1 1 1
v -0.5 1.18 0.5 1 1 1
v 0.2908356 1.18 0.5 1 1 1
v 0.5 1.31 0.5 1 1 1
v 0.3304951 1.22 0.5 1 1 1
v 0.3304951 1.31 0.5 1 1 1
v 0.2908356 1.22 0.5 1 1 1
v 0.5 1.265 0 1 1 1
v 0.3804951 1.265 -1.443823E-15 1 1 1
v 0.5 1.31 0 1 1 1
v 0.3304951 1.31 0 1 1 1
v 0.3304951 1.22 0 1 1 1
v 0.3804951 1.22 -1.443823E-15 1 1 1
v 0.3304951 1.22 -0.25 1 1 1
v 0.3304951 1.31 -0.25 1 1 1
v -0.5 1.22 -0.3304951 1 1 1
v -0.5 1.31 -0.3304951 1 1 1
v -0.25 1.22 -0.3304951 1 1 1
v -0.25 1.31 -0.3304951 1 1 1
v -0.25 1.31 -0.5 1 1 1
v -0.25 1.265 -0.5 1 1 1
v -0.25 1.265 -0.3804951 1 1 1
v -0.25 1.22 -0.3804951 1 1 1
v -0.5 1.31 -0.5 1 1 1
v 0.3304951 1.22 0.25 1 1 1
v 0.3304951 1.31 0.25 1 1 1
v 0.3804951 1.22 -0.3804951 1 1 1
v 0.3804951 1.265 -0.3804951 1 1 1
v 0.3804951 1.22 -0.25 1 1 1
v 0.3804951 1.265 -0.25 1 1 1
v 0.5 1.265 0.25 1 1 1
v 0.3804951 1.265 0.25 1 1 1
v 0.5 1.265 -0.25 1 1 1
v 0.5 1.265 -0.5 1 1 1
v 0.25 1.265 -0.5 1 1 1
v 0.25 1.265 -0.3804951 1 1 1
v -7.219114E-16 1.22 -0.3804951 1 1 1
v -7.219114E-16 1.265 -0.3804951 1 1 1
v -7.219114E-16 1.265 -0.5 1 1 1
v 0.3804951 1.22 0.25 1 1 1
v 0.25 1.31 -0.3304951 1 1 1
v 0 1.31 -0.3304951 1 1 1
v 0.25 1.31 -0.5 1 1 1
v -7.219114E-16 1.31 -0.5 1 1 1
v 0.5 1.31 -0.25 1 1 1
v 0.5 1.31 0.25 1 1 1
v 0 1.22 -0.3304951 1 1 1
v 0.25 1.22 -0.3304951 1 1 1
v -0.5 0.45 -0.465 1 1 1
v -0.5 1.01 -0.465 1 1 1
v -0.5 1.11 -0.5 1 1 1
v -0.5 1.18 -0.2908356 1 1 1
v -0.5 1.22 -0.2908356 1 1 1
v 0.25 1.22 -0.3804951 1 1 1
v 0.5 1.11 -0.5 1 1 1
v 0.465 1.01 -0.465 1 1 1
v 0.465 0.45 -0.465 1 1 1
v 0.2908356 1.22 -0.2908356 1 1 1
v 0.2908356 1.18 -0.2908356 1 1 1

vn -0.6997307 0.1440622 0.6997307
vn -0.6863982 -0.2402394 0.6863982
vn 0 0 -1
vn 0 0 1
vn 1 0 0
vn -1 0 0
vn 0 1 0
vn 0 -1 0
vn 0.9438583 -0.3303504 0
vn 0 0.2016529 -0.9794571
vn -0.7071068 0 0.7071068
vn 0.9794571 0.2016529 0
vn 0 -0.3303504 -0.9438583

vt 0.84375 0.06774809
vt 0.84375 0.09370229
vt 0.84375 0.1791985
vt 0.84375 0.1944656
vt 0.84375 0.025
vt 0.84375 0.2051527
vt 0.84375 0.225
vt 0.84375 0.2112595
vt 0.84375 0.2181298
vt 0.96875 0.2051527
vt 0.96875 0.09370229
vt 0.96875 0.1791985

usemtl colormap

f 3/2/1 2/2/1 1/1/1
f 6/4/2 5/3/2 4/3/2
f 9/1/3 8/5/3 7/5/3
f 8/5/3 9/1/3 10/1/3
f 13/1/4 12/5/4 11/5/4
f 12/5/4 13/1/4 1/1/4
f 1/1/4 13/1/4 14/2/4
f 1/1/4 14/2/4 3/2/4
f 3/2/4 14/2/4 15/3/4
f 3/2/4 15/3/4 4/3/4
f 4/3/4 15/3/4 16/4/4
f 4/3/4 16/4/4 6/4/4
f 6/4/4 16/4/4 17/6/4
f 17/6/4 16/4/4 18/6/4
f 18/6/4 16/4/4 19/7/4
f 18/6/4 19/7/4 20/8/4
f 20/8/4 19/7/4 21/7/4
f 22/8/4 18/6/4 20/8/4
f 25/7/4 24/9/4 23/9/4
f 26/7/4 24/9/4 25/7/4
f 27/8/4 24/9/4 26/7/4
f 24/9/4 27/8/4 28/8/4
f 13/1/5 8/5/5 10/1/5
f 8/5/5 13/1/5 11/5/5
f 27/8/6 30/7/6 29/8/6
f 30/7/6 27/8/6 26/7/6
f 33/8/4 32/7/4 31/8/4
f 32/7/4 33/8/4 34/7/4
f 34/7/5 36/9/5 35/7/5
f 36/9/5 34/7/5 37/9/5
f 37/9/5 34/7/5 38/8/5
f 38/8/5 34/7/5 33/8/5
f 35/7/7 32/7/7 34/7/7
f 32/7/7 35/7/7 39/7/7
f 20/8/6 41/7/6 40/8/6
f 41/7/6 20/8/6 21/7/6
f 44/8/6 43/9/6 42/8/6
f 43/9/6 44/8/6 45/9/6
f 24/9/7 46/9/7 23/9/7
f 46/9/7 24/9/7 47/9/7
f 12/5/8 8/5/8 11/5/8
f 8/5/8 12/5/8 7/5/8
f 48/9/7 43/9/7 45/9/7
f 49/9/7 43/9/7 48/9/7
f 43/9/7 49/9/7 50/9/7
f 43/9/7 50/9/7 51/9/7
f 52/8/4 37/9/4 38/8/4
f 37/9/4 52/8/4 53/9/4
f 36/9/7 53/9/7 54/9/7
f 53/9/7 36/9/7 37/9/7
f 55/8/6 24/9/6 28/8/6
f 24/9/6 55/8/6 47/9/6
f 58/7/7 57/7/7 56/7/7
f 57/7/7 58/7/7 59/7/7
f 30/7/3 44/8/3 29/8/3
f 44/8/3 30/7/3 45/9/3
f 45/9/3 30/7/3 48/9/3
f 48/9/3 30/7/3 60/7/3
f 30/7/7 25/7/7 60/7/7
f 25/7/7 30/7/7 26/7/7
f 41/7/3 55/8/3 40/8/3
f 55/8/3 41/7/3 47/9/3
f 47/9/3 41/7/3 46/9/3
f 46/9/3 41/7/3 61/7/3
f 41/7/7 19/7/7 61/7/7
f 19/7/7 41/7/7 21/7/7
f 62/8/6 53/9/6 52/8/6
f 57/7/6 53/9/6 62/8/6
f 59/7/6 53/9/6 57/7/6
f 53/9/6 59/7/6 54/9/6
f 63/8/4 57/7/4 62/8/4
f 57/7/4 63/8/4 56/7/4
f 12/5/6 9/1/6 7/5/6
f 9/1/6 12/5/6 64/2/6
f 64/2/6 12/5/6 65/3/6
f 65/3/6 12/5/6 31/8/6
f 32/7/6 65/3/6 31/8/6
f 39/7/6 65/3/6 32/7/6
f 65/3/6 39/7/6 66/4/6
f 31/8/6 12/5/6 67/6/6
f 68/8/6 31/8/6 67/6/6
f 67/6/6 12/5/6 2/2/6
f 2/2/6 12/5/6 1/1/6
f 5/3/6 67/6/6 2/2/6
f 67/6/6 5/3/6 17/6/6
f 17/6/6 5/3/6 6/4/6
f 56/7/5 50/9/5 58/7/5
f 50/9/5 56/7/5 51/9/5
f 51/9/5 56/7/5 69/8/5
f 69/8/5 56/7/5 63/8/5
f 16/4/9 71/3/9 70/4/9
f 71/3/9 16/4/9 15/3/9
f 64/2/10 10/1/10 9/1/10
f 10/1/10 64/2/10 72/2/10
f 3/2/11 5/3/11 2/2/11
f 5/3/11 3/2/11 4/3/11
f 72/2/12 13/1/12 10/1/12
f 13/1/12 72/2/12 14/2/12
f 25/7/5 48/9/5 60/7/5
f 23/9/5 48/9/5 25/7/5
f 16/4/5 48/9/5 23/9/5
f 16/4/5 23/9/5 46/9/5
f 70/4/5 48/9/5 16/4/5
f 48/9/5 70/4/5 49/9/5
f 16/4/5 46/9/5 19/7/5
f 19/7/5 46/9/5 61/7/5
f 39/7/3 70/4/3 66/4/3
f 70/4/3 39/7/3 36/9/3
f 36/9/3 39/7/3 35/7/3
f 50/9/3 70/4/3 36/9/3
f 70/4/3 50/9/3 49/9/3
f 50/9/3 36/9/3 54/9/3
f 59/7/3 50/9/3 54/9/3
f 50/9/3 59/7/3 58/7/3
f 27/8/7 55/8/7 28/8/7
f 55/8/7 27/8/7 40/8/7
f 40/8/7 27/8/7 20/8/7
f 20/8/7 27/8/7 22/8/7
f 27/8/7 73/8/7 22/8/7
f 29/8/7 73/8/7 27/8/7
f 29/8/7 69/8/7 73/8/7
f 29/8/7 42/8/7 69/8/7
f 42/8/7 29/8/7 44/8/7
f 73/8/7 69/8/7 63/8/7
f 63/8/7 68/8/7 73/8/7
f 68/8/7 63/8/7 62/8/7
f 68/8/7 62/8/7 33/8/7
f 68/8/7 33/8/7 31/8/7
f 33/8/7 62/8/7 52/8/7
f 38/8/7 33/8/7 52/8/7
f 43/9/4 69/8/4 42/8/4
f 69/8/4 43/9/4 51/9/4
f 18/6/6 73/8/6 74/6/6
f 73/8/6 18/6/6 22/8/6
f 74/6/4 68/8/4 67/6/4
f 68/8/4 74/6/4 73/8/4
f 66/4/13 71/3/13 65/3/13
f 71/3/13 66/4/13 70/4/13
f 74/10/7 17/10/7 18/10/7
f 17/10/7 74/10/7 67/10/7
f 65/12/3 72/11/3 64/11/3
f 72/11/3 65/12/3 71/12/3
f 15/12/5 72/11/5 71/12/5
f 72/11/5 15/12/5 14/11/5

g wall-corner-half




usemtl colormap

f 3/2/1 2/2/1 1/1/1
f 6/4/2 5/3/2 4/3/2
f 9/1/3 8/5/3 7/5/3
f 8/5/3 9/1/3 10/1/3
f 13/1/4 12/5/4 11/5/4
f 12/5/4 13/1/4 1/1/4
f 1/1/4 13/1/4 14/2/4
f 1/1/4 14/2/4 3/2/4
f 3/2/4 14/2/4 15/3/4
f 3/2/4 15/3/4 4/3/4
f 4/3/4 15/3/4 16/4/4
f 4/3/4 16/4/4 6/4/4
f 6/4/4 16/4/4 17/6/4
f 17/6/4 16/4/4 18/6/4
f 18/6/4 16/4/4 19/7/4
f 18/6/4 19/7/4 20/8/4
f 20/8/4 19/7/4 21/7/4
f 22/8/4 18/6/4 20/8/4
f 25/7/4 24/9/4 23/9/4
f 26/7/4 24/9/4 25/7/4
f 27/8/4 24/9/4 26/7/4
f 24/9/4 27/8/4 28/8/4
f 13/1/5 8/5/5 10/1/5
f 8/5/5 13/1/5 11/5/5
f 27/8/6 30/7/6 29/8/6
f 30/7/6 27/8/6 26/7/6
f 33/8/4 32/7/4 31/8/4
f 32/7/4 33/8/4 34/7/4
f 34/7/5 36/9/5 35/7/5
f 36/9/5 34/7/5 37/9/5
f 37/9/5 34/7/5 38/8/5
f 38/8/5 34/7/5 33/8/5
f 35/7/7 32/7/7 34/7/7
f 32/7/7 35/7/7 39/7/7
f 20/8/6 41/7/6 40/8/6
f 41/7/6 20/8/6 21/7/6
f 44/8/6 43/9/6 42/8/6
f 43/9/6 44/8/6 45/9/6
f 24/9/7 46/9/7 23/9/7
f 46/9/7 24/9/7 47/9/7
f 12/5/8 8/5/8 11/5/8
f 8/5/8 12/5/8 7/5/8
f 48/9/7 43/9/7 45/9/7
f 49/9/7 43/9/7 48/9/7
f 43/9/7 49/9/7 50/9/7
f 43/9/7 50/9/7 51/9/7
f 52/8/4 37/9/4 38/8/4
f 37/9/4 52/8/4 53/9/4
f 36/9/7 53/9/7 54/9/7
f 53/9/7 36/9/7 37/9/7
f 55/8/6 24/9/6 28/8/6
f 24/9/6 55/8/6 47/9/6
f 58/7/7 57/7/7 56/7/7
f 57/7/7 58/7/7 59/7/7
f 30/7/3 44/8/3 29/8/3
f 44/8/3 30/7/3 45/9/3
f 45/9/3 30/7/3 48/9/3
f 48/9/3 30/7/3 60/7/3
f 30/7/7 25/7/7 60/7/7
f 25/7/7 30/7/7 26/7/7
f 41/7/3 55/8/3 40/8/3
f 55/8/3 41/7/3 47/9/3
f 47/9/3 41/7/3 46/9/3
f 46/9/3 41/7/3 61/7/3
f 41/7/7 19/7/7 61/7/7
f 19/7/7 41/7/7 21/7/7
f 62/8/6 53/9/6 52/8/6
f 57/7/6 53/9/6 62/8/6
f 59/7/6 53/9/6 57/7/6
f 53/9/6 59/7/6 54/9/6
f 63/8/4 57/7/4 62/8/4
f 57/7/4 63/8/4 56/7/4
f 12/5/6 9/1/6 7/5/6
f 9/1/6 12/5/6 64/2/6
f 64/2/6 12/5/6 65/3/6
f 65/3/6 12/5/6 31/8/6
f 32/7/6 65/3/6 31/8/6
f 39/7/6 65/3/6 32/7/6
f 65/3/6 39/7/6 66/4/6
f 31/8/6 12/5/6 67/6/6
f 68/8/6 31/8/6 67/6/6
f 67/6/6 12/5/6 2/2/6
f 2/2/6 12/5/6 1/1/6
f 5/3/6 67/6/6 2/2/6
f 67/6/6 5/3/6 17/6/6
f 17/6/6 5/3/6 6/4/6
f 56/7/5 50/9/5 58/7/5
f 50/9/5 56/7/5 51/9/5
f 51/9/5 56/7/5 69/8/5
f 69/8/5 56/7/5 63/8/5
f 16/4/9 71/3/9 70/4/9
f 71/3/9 16/4/9 15/3/9
f 64/2/10 10/1/10 9/1/10
f 10/1/10 64/2/10 72/2/10
f 3/2/11 5/3/11 2/2/11
f 5/3/11 3/2/11 4/3/11
f 72/2/12 13/1/12 10/1/12
f 13/1/12 72/2/12 14/2/12
f 25/7/5 48/9/5 60/7/5
f 23/9/5 48/9/5 25/7/5
f 16/4/5 48/9/5 23/9/5
f 16/4/5 23/9/5 46/9/5
f 70/4/5 48/9/5 16/4/5
f 48/9/5 70/4/5 49/9/5
f 16/4/5 46/9/5 19/7/5
f 19/7/5 46/9/5 61/7/5
f 39/7/3 70/4/3 66/4/3
f 70/4/3 39/7/3 36/9/3
f 36/9/3 39/7/3 35/7/3
f 50/9/3 70/4/3 36/9/3
f 70/4/3 50/9/3 49/9/3
f 50/9/3 36/9/3 54/9/3
f 59/7/3 50/9/3 54/9/3
f 50/9/3 59/7/3 58/7/3
f 27/8/7 55/8/7 28/8/7
f 55/8/7 27/8/7 40/8/7
f 40/8/7 27/8/7 20/8/7
f 20/8/7 27/8/7 22/8/7
f 27/8/7 73/8/7 22/8/7
f 29/8/7 73/8/7 27/8/7
f 29/8/7 69/8/7 73/8/7
f 29/8/7 42/8/7 69/8/7
f 42/8/7 29/8/7 44/8/7
f 73/8/7 69/8/7 63/8/7
f 63/8/7 68/8/7 73/8/7
f 68/8/7 63/8/7 62/8/7
f 68/8/7 62/8/7 33/8/7
f 68/8/7 33/8/7 31/8/7
f 33/8/7 62/8/7 52/8/7
f 38/8/7 33/8/7 52/8/7
f 43/9/4 69/8/4 42/8/4
f 69/8/4 43/9/4 51/9/4
f 18/6/6 73/8/6 74/6/6
f 73/8/6 18/6/6 22/8/6
f 74/6/4 68/8/4 67/6/4
f 68/8/4 74/6/4 73/8/4
f 66/4/13 71/3/13 65/3/13
f 71/3/13 66/4/13 70/4/13
f 74/10/7 17/10/7 18/10/7
f 17/10/7 74/10/7 67/10/7
f 65/12/3 72/11/3 64/11/3
f 72/11/3 65/12/3 71/12/3
f 15/12/5 72/11/5 71/12/5
f 72/11/5 15/12/5 14/11/5

