# Created by Kenney (www.kenney.nl)

mtllib wall-narrow-corner.mtl

g wall-narrow-corner

v -0.25 0.28 0.25 1 1 1
v -0.25 0.45 0.215 1 1 1
v -0.215 0.45 0.25 1 1 1
v -0.215 1.01 0.25 1 1 1
v -0.25 1.01 0.215 1 1 1
v -0.25 1.11 0.25 1 1 1
v 0.25 0 0.25 1 1 1
v 0.25 0 -0.25 1 1 1
v -0.25 0 0.25 1 1 1
v -0.25 0 -0.25 1 1 1
v -0.25 1.18 0.25 1 1 1
v -0.25 1.18 -0.04083566 1 1 1
v -0.25 1.22 -0.1454178 1 1 1
v -0.25 1.22 -0.04083566 1 1 1
v -0.25 1.01 -0.215 1 1 1
v -0.25 1.265 -0.1454178 1 1 1
v -0.25 1.265 -0.25 1 1 1
v -0.25 1.11 -0.25 1 1 1
v -0.25 0.45 -0.215 1 1 1
v -0.25 0.28 -0.25 1 1 1
v 0.25 0.28 -0.25 1 1 1
v 0.25 0.28 0.25 1 1 1
v 0.215 0.45 0.25 1 1 1
v 0.215 1.01 0.25 1 1 1
v 0.25 1.11 0.25 1 1 1
v 0.04083566 1.18 0.25 1 1 1
v 0.25 1.265 0.25 1 1 1
v 0.1304951 1.22 0.25 1 1 1
v 0.1304951 1.265 0.25 1 1 1
v 0.04083566 1.22 0.25 1 1 1
v 0.215 0.45 -0.215 1 1 1
v 0.25 1.11 -0.25 1 1 1
v 0.215 1.01 -0.215 1 1 1
v 0.25 1.31 -0.25 1 1 1
v 0.25 1.265 5.251905E-14 1 1 1
v 0.25 1.31 9.438992E-14 1 1 1
v -4.737544E-15 1.265 -0.25 1 1 1
v -4.877414E-14 1.31 -0.25 1 1 1
v 0.04083566 1.18 -0.04083566 1 1 1
v 0.04083566 1.22 -0.04083566 1 1 1
v -1.285905E-14 1.22 -0.1454178 1 1 1
v -1.430287E-14 1.22 -0.08049506 1 1 1
v 0.08049506 1.22 -0.08049506 1 1 1
v 0.08049506 1.22 6.515251E-14 1 1 1
v 0.1304951 1.22 6.443059E-14 1 1 1
v -2.098055E-14 1.265 -0.1454178 1 1 1
v 0.1304951 1.265 6.443059E-14 1 1 1
v 0.08049506 1.31 1.070234E-13 1 1 1
v 0.08049506 1.31 -0.08049506 1 1 1
v -6.664145E-14 1.31 -0.08049506 1 1 1

vn -0.6997307 0.1440622 0.6997307
vn -0.6863982 -0.2402394 0.6863982
vn 0 -1 0
vn -1 0 0
vn 1 0 0
vn 0 0 1
vn 0.9794571 0.2016529 0
vn -0.7071068 0 0.7071068
vn 0.9438583 -0.3303504 0
vn 0 -0.3303504 -0.9438583
vn 0 0 -1
vn 0 1 0
vn 0 0.2016529 -0.9794571

vt 0.84375 0.06774809
vt 0.84375 0.09370229
vt 0.84375 0.1791985
vt 0.84375 0.1944656
vt 0.84375 0.025
vt 0.84375 0.2051527
vt 0.84375 0.2112595
vt 0.84375 0.2181298
vt 0.84375 0.225
vt 0.96875 0.1791985
vt 0.96875 0.09370229
vt 0.96875 0.2051527

usemtl colormap

f 3/2/1 2/2/1 1/1/1
f 6/4/2 5/3/2 4/3/2
f 9/5/3 8/5/3 7/5/3
f 8/5/3 9/5/3 10/5/3
f 11/6/4 5/3/4 6/4/4
f 12/6/4 5/3/4 11/6/4
f 5/3/4 12/6/4 2/2/4
f 12/6/4 9/5/4 2/2/4
f 2/2/4 9/5/4 1/1/4
f 13/7/4 9/5/4 12/6/4
f 14/7/4 13/7/4 12/6/4
f 15/3/4 9/5/4 13/7/4
f 16/8/4 15/3/4 13/7/4
f 17/8/4 15/3/4 16/8/4
f 15/3/4 17/8/4 18/4/4
f 19/2/4 9/5/4 15/3/4
f 20/1/4 9/5/4 19/2/4
f 9/5/4 20/1/4 10/5/4
f 22/1/5 8/5/5 21/1/5
f 8/5/5 22/1/5 7/5/5
f 22/1/6 9/5/6 7/5/6
f 9/5/6 22/1/6 1/1/6
f 1/1/6 22/1/6 23/2/6
f 1/1/6 23/2/6 3/2/6
f 3/2/6 23/2/6 24/3/6
f 3/2/6 24/3/6 4/3/6
f 4/3/6 24/3/6 25/4/6
f 4/3/6 25/4/6 6/4/6
f 6/4/6 25/4/6 26/6/6
f 11/6/6 6/4/6 26/6/6
f 26/6/6 25/4/6 27/8/6
f 26/6/6 27/8/6 28/7/6
f 28/7/6 27/8/6 29/8/6
f 30/7/6 26/6/6 28/7/6
f 31/2/7 22/1/7 21/1/7
f 22/1/7 31/2/7 23/2/7
f 3/2/8 5/3/8 2/2/8
f 5/3/8 3/2/8 4/3/8
f 25/4/9 33/3/9 32/4/9
f 33/3/9 25/4/9 24/3/9
f 15/3/10 32/4/10 33/3/10
f 32/4/10 15/3/10 18/4/10
f 36/9/5 35/8/5 34/9/5
f 25/4/5 34/9/5 35/8/5
f 25/4/5 35/8/5 27/8/5
f 34/9/5 25/4/5 32/4/5
f 17/8/11 32/4/11 18/4/11
f 32/4/11 17/8/11 37/8/11
f 32/4/11 37/8/11 34/9/11
f 34/9/11 37/8/11 38/9/11
f 40/7/6 12/6/6 39/6/6
f 12/6/6 40/7/6 14/7/6
f 26/6/4 40/7/4 39/6/4
f 40/7/4 26/6/4 30/7/4
f 13/7/12 42/7/12 41/7/12
f 42/7/12 13/7/12 14/7/12
f 40/7/12 42/7/12 14/7/12
f 40/7/12 43/7/12 42/7/12
f 43/7/12 40/7/12 44/7/12
f 30/7/12 44/7/12 40/7/12
f 30/7/12 45/7/12 44/7/12
f 45/7/12 30/7/12 28/7/12
f 17/8/12 46/8/12 37/8/12
f 46/8/12 17/8/12 16/8/12
f 35/8/12 29/8/12 27/8/12
f 29/8/12 35/8/12 47/8/12
f 34/9/12 48/9/12 36/9/12
f 48/9/12 34/9/12 49/9/12
f 49/9/12 34/9/12 38/9/12
f 49/9/12 38/9/12 50/9/12
f 42/7/4 46/8/4 41/7/4
f 50/9/4 46/8/4 42/7/4
f 38/9/4 46/8/4 50/9/4
f 46/8/4 38/9/4 37/8/4
f 41/7/6 16/8/6 13/7/6
f 16/8/6 41/7/6 46/8/6
f 49/9/6 42/7/6 43/7/6
f 42/7/6 49/9/6 50/9/6
f 44/7/4 49/9/4 43/7/4
f 49/9/4 44/7/4 48/9/4
f 45/7/6 48/9/6 44/7/6
f 48/9/6 45/7/6 47/8/6
f 48/9/6 47/8/6 35/8/6
f 48/9/6 35/8/6 36/9/6
f 28/7/4 47/8/4 45/7/4
f 47/8/4 28/7/4 29/8/4
f 19/2/13 21/1/13 20/1/13
f 21/1/13 19/2/13 31/2/13
f 20/1/11 8/5/11 10/5/11
f 8/5/11 20/1/11 21/1/11
f 24/10/5 31/11/5 33/10/5
f 31/11/5 24/10/5 23/11/5
f 19/11/11 33/10/11 31/11/11
f 33/10/11 19/11/11 15/10/11
f 12/12/12 26/12/12 39/12/12
f 26/12/12 12/12/12 11/12/12

g wall-narrow-corner




usemtl colormap

f 3/2/1 2/2/1 1/1/1
f 6/4/2 5/3/2 4/3/2
f 9/5/3 8/5/3 7/5/3
f 8/5/3 9/5/3 10/5/3
f 11/6/4 5/3/4 6/4/4
f 12/6/4 5/3/4 11/6/4
f 5/3/4 12/6/4 2/2/4
f 12/6/4 9/5/4 2/2/4
f 2/2/4 9/5/4 1/1/4
f 13/7/4 9/5/4 12/6/4
f 14/7/4 13/7/4 12/6/4
f 15/3/4 9/5/4 13/7/4
f 16/8/4 15/3/4 13/7/4
f 17/8/4 15/3/4 16/8/4
f 15/3/4 17/8/4 18/4/4
f 19/2/4 9/5/4 15/3/4
f 20/1/4 9/5/4 19/2/4
f 9/5/4 20/1/4 10/5/4
f 22/1/5 8/5/5 21/1/5
f 8/5/5 22/1/5 7/5/5
f 22/1/6 9/5/6 7/5/6
f 9/5/6 22/1/6 1/1/6
f 1/1/6 22/1/6 23/2/6
f 1/1/6 23/2/6 3/2/6
f 3/2/6 23/2/6 24/3/6
f 3/2/6 24/3/6 4/3/6
f 4/3/6 24/3/6 25/4/6
f 4/3/6 25/4/6 6/4/6
f 6/4/6 25/4/6 26/6/6
f 11/6/6 6/4/6 26/6/6
f 26/6/6 25/4/6 27/8/6
f 26/6/6 27/8/6 28/7/6
f 28/7/6 27/8/6 29/8/6
f 30/7/6 26/6/6 28/7/6
f 31/2/7 22/1/7 21/1/7
f 22/1/7 31/2/7 23/2/7
f 3/2/8 5/3/8 2/2/8
f 5/3/8 3/2/8 4/3/8
f 25/4/9 33/3/9 32/4/9
f 33/3/9 25/4/9 24/3/9
f 15/3/10 32/4/10 33/3/10
f 32/4/10 15/3/10 18/4/10
f 36/9/5 35/8/5 34/9/5
f 25/4/5 34/9/5 35/8/5
f 25/4/5 35/8/5 27/8/5
f 34/9/5 25/4/5 32/4/5
f 17/8/11 32/4/11 18/4/11
f 32/4/11 17/8/11 37/8/11
f 32/4/11 37/8/11 34/9/11
f 34/9/11 37/8/11 38/9/11
f 40/7/6 12/6/6 39/6/6
f 12/6/6 40/7/6 14/7/6
f 26/6/4 40/7/4 39/6/4
f 40/7/4 26/6/4 30/7/4
f 13/7/12 42/7/12 41/7/12
f 42/7/12 13/7/12 14/7/12
f 40/7/12 42/7/12 14/7/12
f 40/7/12 43/7/12 42/7/12
f 43/7/12 40/7/12 44/7/12
f 30/7/12 44/7/12 40/7/12
f 30/7/12 45/7/12 44/7/12
f 45/7/12 30/7/12 28/7/12
f 17/8/12 46/8/12 37/8/12
f 46/8/12 17/8/12 16/8/12
f 35/8/12 29/8/12 27/8/12
f 29/8/12 35/8/12 47/8/12
f 34/9/12 48/9/12 36/9/12
f 48/9/12 34/9/12 49/9/12
f 49/9/12 34/9/12 38/9/12
f 49/9/12 38/9/12 50/9/12
f 42/7/4 46/8/4 41/7/4
f 50/9/4 46/8/4 42/7/4
f 38/9/4 46/8/4 50/9/4
f 46/8/4 38/9/4 37/8/4
f 41/7/6 16/8/6 13/7/6
f 16/8/6 41/7/6 46/8/6
f 49/9/6 42/7/6 43/7/6
f 42/7/6 49/9/6 50/9/6
f 44/7/4 49/9/4 43/7/4
f 49/9/4 44/7/4 48/9/4
f 45/7/6 48/9/6 44/7/6
f 48/9/6 45/7/6 47/8/6
f 48/9/6 47/8/6 35/8/6
f 48/9/6 35/8/6 36/9/6
f 28/7/4 47/8/4 45/7/4
f 47/8/4 28/7/4 29/8/4
f 19/2/13 21/1/13 20/1/13
f 21/1/13 19/2/13 31/2/13
f 20/1/11 8/5/11 10/5/11
f 8/5/11 20/1/11 21/1/11
f 24/10/5 31/11/5 33/10/5
f 31/11/5 24/10/5 23/11/5
f 19/11/11 33/10/11 31/11/11
f 33/10/11 19/11/11 15/10/11
f 12/12/12 26/12/12 39/12/12
f 26/12/12 12/12/12 11/12/12

