# Created by Kenney (www.kenney.nl)

mtllib wall-half-modular.mtl

g wall-half-modular

v 0.6022911 0.28 -0.5 1 1 1
v 0.6022911 1.636913E-16 -0.5 1 1 1
v 0.6022911 0.28 0.5 1 1 1
v 0.6022911 1.636913E-16 0.5 1 1 1
v -0.002291086 0 -0.5 1 1 1
v -0.002291086 1.18 -0.5 1 1 1
v 0.5672911 0.45 -0.5 1 1 1
v 0.5672911 1.01 -0.5 1 1 1
v 0.6022911 1.11 -0.5 1 1 1
v 0.3931267 1.18 -0.5 1 1 1
v 0.6022911 1.265 -0.5 1 1 1
v 0.4827861 1.22 -0.5 1 1 1
v 0.3931267 1.22 -0.5 1 1 1
v 0.4827861 1.265 -0.5 1 1 1
v 0.5672911 0.45 0.5 1 1 1
v 0.6022911 1.11 0.5 1 1 1
v 0.5672911 1.01 0.5 1 1 1
v 0.6022911 1.31 -0.25 1 1 1
v 0.6022911 1.265 -0.25 1 1 1
v 0.6022911 1.31 -4.331469E-15 1 1 1
v 0.6022911 1.265 -4.331469E-15 1 1 1
v 0.6022911 1.265 0.25 1 1 1
v 0.6022911 1.31 0.5 1 1 1
v 0.6022911 1.31 0.25 1 1 1
v 0.4827861 1.22 -0.25 1 1 1
v 0.4327861 1.22 -0.25 1 1 1
v 0.4327861 1.22 -2.165734E-15 1 1 1
v 0.4327861 1.22 0.5 1 1 1
v 0.3931267 1.22 0.5 1 1 1
v 0.4327861 1.22 0.25 1 1 1
v 0.4827861 1.22 -1.443823E-15 1 1 1
v 0.4827861 1.22 0.25 1 1 1
v 0.4327861 1.31 0.25 1 1 1
v 0.4327861 1.31 0.5 1 1 1
v 0.4327861 1.31 -0.25 1 1 1
v 0.4327861 1.31 -2.165734E-15 1 1 1
v 0.4827861 1.265 -1.443823E-15 1 1 1
v 0.4827861 1.265 0.25 1 1 1
v 0.4827861 1.265 -0.25 1 1 1
v 0.3931267 1.18 0.5 1 1 1
v -0.002291086 1.18 0.5 1 1 1
v -0.002291086 1.636913E-16 0.5 1 1 1

vn 1 0 0
vn 0 0 -1
vn 0.9794571 0.2016529 0
vn 0.9438583 -0.3303504 0
vn 0 1 0
vn -1 0 0
vn 0 0 1
vn 0 -1 0

vt 0.84375 0.06774809
vt 0.84375 0.025
vt 0.84375 0.2051527
vt 0.84375 0.09370229
vt 0.84375 0.1791985
vt 0.84375 0.1944656
vt 0.84375 0.2181298
vt 0.84375 0.2112595
vt 0.84375 0.225
vt 0.96875 0.1791985
vt 0.96875 0.09370229
vt 0.96875 0.2051527

usemtl colormap

f 3/1/1 2/2/1 1/1/1
f 2/2/1 3/1/1 4/2/1
f 6/3/2 2/2/2 5/2/2
f 2/2/2 6/3/2 1/1/2
f 1/1/2 6/3/2 7/4/2
f 7/4/2 6/3/2 8/5/2
f 8/5/2 6/3/2 9/6/2
f 9/6/2 6/3/2 10/3/2
f 9/6/2 10/3/2 11/7/2
f 11/7/2 10/3/2 12/8/2
f 12/8/2 10/3/2 13/8/2
f 11/7/2 12/8/2 14/7/2
f 7/4/3 3/1/3 1/1/3
f 3/1/3 7/4/3 15/4/3
f 16/6/4 8/5/4 9/6/4
f 8/5/4 16/6/4 17/5/4
f 20/9/1 19/7/1 18/9/1
f 21/7/1 19/7/1 20/9/1
f 16/6/1 19/7/1 21/7/1
f 16/6/1 21/7/1 22/7/1
f 9/6/1 19/7/1 16/6/1
f 19/7/1 9/6/1 11/7/1
f 16/6/1 22/7/1 23/9/1
f 23/9/1 22/7/1 24/9/1
f 12/8/5 26/8/5 25/8/5
f 26/8/5 12/8/5 13/8/5
f 26/8/5 13/8/5 27/8/5
f 27/8/5 13/8/5 28/8/5
f 28/8/5 13/8/5 29/8/5
f 30/8/5 27/8/5 28/8/5
f 30/8/5 31/8/5 27/8/5
f 31/8/5 30/8/5 32/8/5
f 28/8/6 33/9/6 30/8/6
f 33/9/6 28/8/6 34/9/6
f 27/8/6 35/9/6 26/8/6
f 35/9/6 27/8/6 36/9/6
f 18/9/5 36/9/5 20/9/5
f 36/9/5 18/9/5 35/9/5
f 24/9/5 34/9/5 23/9/5
f 34/9/5 24/9/5 33/9/5
f 37/7/5 22/7/5 21/7/5
f 22/7/5 37/7/5 38/7/5
f 14/7/5 19/7/5 11/7/5
f 19/7/5 14/7/5 39/7/5
f 25/8/6 14/7/6 12/8/6
f 14/7/6 25/8/6 39/7/6
f 35/9/2 25/8/2 26/8/2
f 25/8/2 35/9/2 39/7/2
f 39/7/2 35/9/2 19/7/2
f 19/7/2 35/9/2 18/9/2
f 32/8/6 37/7/6 31/8/6
f 37/7/6 32/8/6 38/7/6
f 33/9/2 32/8/2 30/8/2
f 32/8/2 33/9/2 38/7/2
f 38/7/2 33/9/2 22/7/2
f 22/7/2 33/9/2 24/9/2
f 20/9/7 37/7/7 21/7/7
f 36/9/7 37/7/7 20/9/7
f 27/8/7 37/7/7 36/9/7
f 37/7/7 27/8/7 31/8/7
f 40/3/6 13/8/6 10/3/6
f 13/8/6 40/3/6 29/8/6
f 28/8/7 23/9/7 34/9/7
f 40/3/7 23/9/7 28/8/7
f 29/8/7 40/3/7 28/8/7
f 23/9/7 40/3/7 16/6/7
f 41/3/7 16/6/7 40/3/7
f 41/3/7 17/5/7 16/6/7
f 41/3/7 15/4/7 17/5/7
f 41/3/7 3/1/7 15/4/7
f 41/3/7 4/2/7 3/1/7
f 4/2/7 41/3/7 42/2/7
f 42/2/8 2/2/8 4/2/8
f 2/2/8 42/2/8 5/2/8
f 42/2/6 6/3/6 5/2/6
f 6/3/6 42/2/6 41/3/6
f 17/10/1 7/11/1 8/10/1
f 7/11/1 17/10/1 15/11/1
f 6/12/5 40/12/5 10/12/5
f 40/12/5 6/12/5 41/12/5

g wall-half-modular




usemtl colormap

f 3/1/1 2/2/1 1/1/1
f 2/2/1 3/1/1 4/2/1
f 6/3/2 2/2/2 5/2/2
f 2/2/2 6/3/2 1/1/2
f 1/1/2 6/3/2 7/4/2
f 7/4/2 6/3/2 8/5/2
f 8/5/2 6/3/2 9/6/2
f 9/6/2 6/3/2 10/3/2
f 9/6/2 10/3/2 11/7/2
f 11/7/2 10/3/2 12/8/2
f 12/8/2 10/3/2 13/8/2
f 11/7/2 12/8/2 14/7/2
f 7/4/3 3/1/3 1/1/3
f 3/1/3 7/4/3 15/4/3
f 16/6/4 8/5/4 9/6/4
f 8/5/4 16/6/4 17/5/4
f 20/9/1 19/7/1 18/9/1
f 21/7/1 19/7/1 20/9/1
f 16/6/1 19/7/1 21/7/1
f 16/6/1 21/7/1 22/7/1
f 9/6/1 19/7/1 16/6/1
f 19/7/1 9/6/1 11/7/1
f 16/6/1 22/7/1 23/9/1
f 23/9/1 22/7/1 24/9/1
f 12/8/5 26/8/5 25/8/5
f 26/8/5 12/8/5 13/8/5
f 26/8/5 13/8/5 27/8/5
f 27/8/5 13/8/5 28/8/5
f 28/8/5 13/8/5 29/8/5
f 30/8/5 27/8/5 28/8/5
f 30/8/5 31/8/5 27/8/5
f 31/8/5 30/8/5 32/8/5
f 28/8/6 33/9/6 30/8/6
f 33/9/6 28/8/6 34/9/6
f 27/8/6 35/9/6 26/8/6
f 35/9/6 27/8/6 36/9/6
f 18/9/5 36/9/5 20/9/5
f 36/9/5 18/9/5 35/9/5
f 24/9/5 34/9/5 23/9/5
f 34/9/5 24/9/5 33/9/5
f 37/7/5 22/7/5 21/7/5
f 22/7/5 37/7/5 38/7/5
f 14/7/5 19/7/5 11/7/5
f 19/7/5 14/7/5 39/7/5
f 25/8/6 14/7/6 12/8/6
f 14/7/6 25/8/6 39/7/6
f 35/9/2 25/8/2 26/8/2
f 25/8/2 35/9/2 39/7/2
f 39/7/2 35/9/2 19/7/2
f 19/7/2 35/9/2 18/9/2
f 32/8/6 37/7/6 31/8/6
f 37/7/6 32/8/6 38/7/6
f 33/9/2 32/8/2 30/8/2
f 32/8/2 33/9/2 38/7/2
f 38/7/2 33/9/2 22/7/2
f 22/7/2 33/9/2 24/9/2
f 20/9/7 37/7/7 21/7/7
f 36/9/7 37/7/7 20/9/7
f 27/8/7 37/7/7 36/9/7
f 37/7/7 27/8/7 31/8/7
f 40/3/6 13/8/6 10/3/6
f 13/8/6 40/3/6 29/8/6
f 28/8/7 23/9/7 34/9/7
f 40/3/7 23/9/7 28/8/7
f 29/8/7 40/3/7 28/8/7
f 23/9/7 40/3/7 16/6/7
f 41/3/7 16/6/7 40/3/7
f 41/3/7 17/5/7 16/6/7
f 41/3/7 15/4/7 17/5/7
f 41/3/7 3/1/7 15/4/7
f 41/3/7 4/2/7 3/1/7
f 4/2/7 41/3/7 42/2/7
f 42/2/8 2/2/8 4/2/8
f 2/2/8 42/2/8 5/2/8
f 42/2/6 6/3/6 5/2/6
f 6/3/6 42/2/6 41/3/6
f 17/10/1 7/11/1 8/10/1
f 7/11/1 17/10/1 15/11/1
f 6/12/5 40/12/5 10/12/5
f 40/12/5 6/12/5 41/12/5

