# Created by Kenney (www.kenney.nl)

mtllib wall-stud.mtl

g wall-stud

v 0.135 0 0.08330093 1 1 1
v 0.135 0 -0.08330093 1 1 1
v -0.135 9.475087E-16 0.08330093 1 1 1
v -0.135 1.804779E-16 -0.08330093 1 1 1
v 0.035 1.01 -0.08330093 1 1 1
v 0.035 1.01 0.08330093 1 1 1
v 0.035 1.11 -0.08330093 1 1 1
v 0.035 1.11 0.08330093 1 1 1
v 0.135 1.11 0.08330093 1 1 1
v 0.135 1.11 -0.08330093 1 1 1

vn 0 -1 0
vn -0.9861288 0.1659821 0
vn -1 0 0
vn 0 0 1
vn 0 0 -1
vn 0 1 0
vn 1 0 0

vt 0.84375 0.025
vt 0.84375 0.206982
vt 0.84375 0.225

usemtl colormap

f 3/1/1 2/1/1 1/1/1
f 2/1/1 3/1/1 4/1/1
f 4/1/2 6/2/2 5/2/2
f 6/2/2 4/1/2 3/1/2
f 6/2/3 7/3/3 5/2/3
f 7/3/3 6/2/3 8/3/3
f 9/3/4 3/1/4 1/1/4
f 3/1/4 9/3/4 6/2/4
f 6/2/4 9/3/4 8/3/4
f 4/1/5 10/3/5 2/1/5
f 10/3/5 4/1/5 5/2/5
f 10/3/5 5/2/5 7/3/5
f 7/3/6 9/3/6 10/3/6
f 9/3/6 7/3/6 8/3/6
f 9/3/7 2/1/7 10/3/7
f 2/1/7 9/3/7 1/1/7

g wall-stud




usemtl colormap

f 3/1/1 2/1/1 1/1/1
f 2/1/1 3/1/1 4/1/1
f 4/1/2 6/2/2 5/2/2
f 6/2/2 4/1/2 3/1/2
f 6/2/3 7/3/3 5/2/3
f 7/3/3 6/2/3 8/3/3
f 9/3/4 3/1/4 1/1/4
f 3/1/4 9/3/4 6/2/4
f 6/2/4 9/3/4 8/3/4
f 4/1/5 10/3/5 2/1/5
f 10/3/5 4/1/5 5/2/5
f 10/3/5 5/2/5 7/3/5
f 7/3/6 9/3/6 10/3/6
f 9/3/6 7/3/6 8/3/6
f 9/3/7 2/1/7 10/3/7
f 2/1/7 9/3/7 1/1/7

