# Created by Kenney (www.kenney.nl)

mtllib wall-to-narrow.mtl

g wall-to-narrow

v -0.035 0.45 -0.465 1 1 1
v -0.035 0.45 -0.5 1 1 1
v -2.607917E-14 0.28 -0.5 1 1 1
v -0.035 1.01 -0.5 1 1 1
v -0.035 1.01 -0.465 1 1 1
v -2.607917E-14 1.11 -0.5 1 1 1
v 0.465 1.01 -0.465 1 1 1
v 0.5 1.11 -0.465 1 1 1
v 0.465 1.11 -0.5 1 1 1
v -0.5 0.28 0.5 1 1 1
v -0.5 7.328608E-17 0.5 1 1 1
v -0.5 0.28 -0.5 1 1 1
v -0.5 6.742823E-17 -0.5 1 1 1
v 0.5 7.328608E-17 0.5 1 1 1
v 0.5 0.28 0.5 1 1 1
v 0.5 0 -0.5 1 1 1
v 0.5 0.28 -0.5 1 1 1
v 0.465 0.45 0.5 1 1 1
v -0.465 0.45 0.5 1 1 1
v 0.465 1.01 0.5 1 1 1
v -0.465 1.01 0.5 1 1 1
v 0.5 1.11 0.5 1 1 1
v -0.5 1.11 0.5 1 1 1
v 0.2908356 1.18 0.5 1 1 1
v 0.5 1.265 0.5 1 1 1
v 0.3804951 1.22 0.5 1 1 1
v 0.3804951 1.265 0.5 1 1 1
v 0.2908356 1.22 0.5 1 1 1
v -0.2908356 1.18 0.5 1 1 1
v -0.5 1.265 0.5 1 1 1
v -0.3804951 1.22 0.5 1 1 1
v -0.2908356 1.22 0.5 1 1 1
v -0.3804951 1.265 0.5 1 1 1
v -0.465 0.45 -0.5 1 1 1
v 0.465 0.45 -0.465 1 1 1
v -0.5 1.11 -0.5 1 1 1
v -0.465 1.01 -0.5 1 1 1
v -0.5 1.31 0.25 1 1 1
v -0.5 1.265 0.25 1 1 1
v -0.5 1.31 2.517678E-14 1 1 1
v -0.5 1.265 2.517678E-14 1 1 1
v -0.5 1.265 -0.25 1 1 1
v -0.5 1.31 -0.5 1 1 1
v -0.5 1.31 -0.25 1 1 1
v 0.5 1.265 0.25 1 1 1
v 0.5 1.31 0.25 1 1 1
v 0.5 1.265 -2.734251E-14 1 1 1
v 0.5 1.31 -2.734251E-14 1 1 1
v 0.5 1.265 -0.25 1 1 1
v 0.5 1.31 -0.25 1 1 1
v 0.5 1.31 -0.465 1 1 1
v 0.3304951 1.31 -0.25 1 1 1
v 0.3304951 1.31 -0.5 1 1 1
v 0.465 1.31 -0.5 1 1 1
v -0.3804951 1.22 0.25 1 1 1
v -0.3304951 1.22 0.25 1 1 1
v -0.3304951 1.22 1.741855E-14 1 1 1
v -0.3304951 1.22 -0.25 1 1 1
v -0.3304951 1.22 -0.5 1 1 1
v -0.2908356 1.22 -0.5 1 1 1
v -0.3804951 1.22 -0.25 1 1 1
v -0.3804951 1.22 2.183124E-14 1 1 1
v 0.3304951 1.22 -0.25 1 1 1
v 0.3304951 1.265 -0.3804951 1 1 1
v 0.3304951 1.265 -0.5 1 1 1
v 0.3304951 1.22 -0.3804951 1 1 1
v -0.3304951 1.31 -0.25 1 1 1
v -0.3304951 1.31 -0.5 1 1 1
v -0.3304951 1.31 0.25 1 1 1
v -0.3304951 1.31 1.741855E-14 1 1 1
v 0.3304951 1.31 0.25 1 1 1
v 0.3304951 1.22 0.25 1 1 1
v 0.3304951 1.31 -1.814046E-14 1 1 1
v 0.3304951 1.22 -1.814046E-14 1 1 1
v 0.3804951 1.265 -1.749978E-14 1 1 1
v 0.3804951 1.265 -0.25 1 1 1
v 0.3804951 1.265 0.25 1 1 1
v -0.3804951 1.265 2.183124E-14 1 1 1
v -0.3804951 1.265 -0.25 1 1 1
v -0.3804951 1.265 0.25 1 1 1
v 0.3804951 1.22 -1.749978E-14 1 1 1
v 0.3804951 1.22 -0.25 1 1 1
v 0.3804951 1.22 0.25 1 1 1
v 0.2908356 1.22 -0.315 1 1 1
v 0.2908356 1.18 -0.315 1 1 1
v -0.2908356 1.18 -0.5 1 1 1
v -2.607917E-14 1.18 -0.5 1 1 1
v 0.06549506 1.22 -0.5 1 1 1
v -2.607917E-14 1.22 -0.5 1 1 1
v 0.06549506 1.265 -0.5 1 1 1
v -1.642987E-14 1.22 -0.315 1 1 1
v -1.642987E-14 1.18 -0.315 1 1 1
v 0.06549506 1.265 -0.3804951 1 1 1
v 0.06549506 1.22 -0.3804951 1 1 1
v 0.49 0.8400412 0.2936856 1 1 1
v 0.49 0.9400412 0.2936856 1 1 1
v 0.465 0.8400412 0.2686856 1 1 1
v 0.465 0.9400412 0.2686856 1 1 1
v 0.49 0.8400412 0.3936856 1 1 1
v 0.465 0.8400412 0.4186856 1 1 1
v 0.49 0.9400412 0.3936856 1 1 1
v 0.465 0.9400412 0.4186856 1 1 1
v 0.49 0.7034378 0.1631428 1 1 1
v 0.49 0.8034378 0.1631428 1 1 1
v 0.465 0.7034378 0.1381428 1 1 1
v 0.465 0.8034378 0.1381428 1 1 1
v 0.49 0.7034378 0.2631428 1 1 1
v 0.465 0.7034378 0.2881428 1 1 1
v 0.49 0.8034378 0.2631428 1 1 1
v 0.465 0.8034378 0.2881428 1 1 1
v 0.49 0.5229609 -0.3172142 1 1 1
v 0.49 0.6229609 -0.3172142 1 1 1
v 0.465 0.5229609 -0.3422142 1 1 1
v 0.465 0.6229609 -0.3422142 1 1 1
v 0.49 0.5229609 -0.2172142 1 1 1
v 0.465 0.5229609 -0.1922141 1 1 1
v 0.49 0.6229609 -0.2172142 1 1 1
v 0.465 0.6229609 -0.1922141 1 1 1

vn 0.9794571 0.2016529 -5.108685E-14
vn 0.9438583 -0.3303504 -4.923007E-14
vn 0.6863982 -0.2402394 -0.6863982
vn -1 0 5.215833E-14
vn 1 0 -5.215833E-14
vn 5.215833E-14 0 1
vn -0.9794571 0.2016529 5.108685E-14
vn -0.9438583 -0.3303504 4.923007E-14
vn 0 1 0
vn -5.215833E-14 0 -1
vn 0 -1 0
vn -5.108685E-14 0.2016529 -0.9794571
vn -4.923007E-14 -0.3303504 -0.9438583
vn 0.7071068 0 -0.7071068
vn 0.9238795 0 -0.3826834
vn 0.9238795 0 0.3826834
vn 0.7071068 0 0.7071068

vt 0.84375 0.09370229
vt 0.84375 0.06774809
vt 0.84375 0.1791985
vt 0.84375 0.1944656
vt 0.84375 0.025
vt 0.84375 0.2051527
vt 0.84375 0.2181298
vt 0.84375 0.2112595
vt 0.84375 0.225
vt 0.78125 0.125
vt 0.96875 0.1791985
vt 0.96875 0.09370229
vt 0.96875 0.2051527

usemtl colormap

f 3/2/1 2/1/1 1/1/1
f 6/4/2 5/3/2 4/3/2
f 9/4/3 8/4/3 7/3/3
f 12/2/4 11/5/4 10/2/4
f 11/5/4 12/2/4 13/5/4
f 16/5/5 15/2/5 14/5/5
f 15/2/5 16/5/5 17/2/5
f 15/2/6 11/5/6 14/5/6
f 11/5/6 15/2/6 10/2/6
f 10/2/6 15/2/6 18/1/6
f 10/2/6 18/1/6 19/1/6
f 19/1/6 18/1/6 20/3/6
f 19/1/6 20/3/6 21/3/6
f 21/3/6 20/3/6 22/4/6
f 21/3/6 22/4/6 23/4/6
f 23/4/6 22/4/6 24/6/6
f 24/6/6 22/4/6 25/7/6
f 24/6/6 25/7/6 26/8/6
f 26/8/6 25/7/6 27/7/6
f 28/8/6 24/6/6 26/8/6
f 29/6/6 23/4/6 24/6/6
f 23/4/6 29/6/6 30/7/6
f 30/7/6 29/6/6 31/8/6
f 31/8/6 29/6/6 32/8/6
f 30/7/6 31/8/6 33/7/6
f 34/1/7 10/2/7 19/1/7
f 10/2/7 34/1/7 12/2/7
f 15/2/1 35/1/1 18/1/1
f 35/1/1 15/2/1 17/2/1
f 7/3/2 22/4/2 20/3/2
f 22/4/2 7/3/2 8/4/2
f 36/4/8 21/3/8 23/4/8
f 21/3/8 36/4/8 37/3/8
f 40/9/4 39/7/4 38/9/4
f 41/7/4 39/7/4 40/9/4
f 36/4/4 39/7/4 41/7/4
f 36/4/4 41/7/4 42/7/4
f 23/4/4 39/7/4 36/4/4
f 39/7/4 23/4/4 30/7/4
f 36/4/4 42/7/4 43/9/4
f 43/9/4 42/7/4 44/9/4
f 8/4/5 25/7/5 22/4/5
f 25/7/5 8/4/5 45/7/5
f 45/7/5 8/4/5 46/9/5
f 46/9/5 8/4/5 47/7/5
f 48/9/5 46/9/5 47/7/5
f 47/7/5 8/4/5 49/7/5
f 49/7/5 8/4/5 50/9/5
f 50/9/5 8/4/5 51/9/5
f 50/9/9 53/9/9 52/9/9
f 53/9/9 50/9/9 54/9/9
f 54/9/9 50/9/9 51/9/9
f 32/8/9 55/8/9 31/8/9
f 55/8/9 32/8/9 56/8/9
f 56/8/9 32/8/9 57/8/9
f 57/8/9 32/8/9 58/8/9
f 58/8/9 32/8/9 59/8/9
f 59/8/9 32/8/9 60/8/9
f 61/8/9 57/8/9 58/8/9
f 57/8/9 61/8/9 62/8/9
f 53/9/4 63/8/4 52/9/4
f 63/8/4 53/9/4 64/7/4
f 64/7/4 53/9/4 65/7/4
f 66/8/4 63/8/4 64/7/4
f 59/8/5 67/9/5 58/8/5
f 67/9/5 59/8/5 68/9/5
f 57/8/5 69/9/5 56/8/5
f 69/9/5 57/8/5 70/9/5
f 69/9/9 40/9/9 38/9/9
f 40/9/9 69/9/9 70/9/9
f 44/9/9 68/9/9 43/9/9
f 68/9/9 44/9/9 67/9/9
f 73/9/4 72/8/4 71/9/4
f 72/8/4 73/9/4 74/8/4
f 46/9/9 73/9/9 71/9/9
f 73/9/9 46/9/9 48/9/9
f 47/7/9 76/7/9 75/7/9
f 76/7/9 47/7/9 49/7/9
f 25/7/9 77/7/9 27/7/9
f 77/7/9 25/7/9 45/7/9
f 78/7/9 42/7/9 41/7/9
f 42/7/9 78/7/9 79/7/9
f 33/7/9 39/7/9 30/7/9
f 39/7/9 33/7/9 80/7/9
f 55/8/5 33/7/5 31/8/5
f 33/7/5 55/8/5 80/7/5
f 69/9/6 55/8/6 56/8/6
f 55/8/6 69/9/6 80/7/6
f 80/7/6 69/9/6 39/7/6
f 39/7/6 69/9/6 38/9/6
f 61/8/5 78/7/5 62/8/5
f 78/7/5 61/8/5 79/7/5
f 67/9/6 61/8/6 58/8/6
f 61/8/6 67/9/6 79/7/6
f 79/7/6 67/9/6 42/7/6
f 42/7/6 67/9/6 44/9/6
f 40/9/10 78/7/10 41/7/10
f 70/9/10 78/7/10 40/9/10
f 57/8/10 78/7/10 70/9/10
f 78/7/10 57/8/10 62/8/10
f 76/7/4 81/8/4 75/7/4
f 81/8/4 76/7/4 82/8/4
f 73/9/10 81/8/10 74/8/10
f 81/8/10 73/9/10 75/7/10
f 75/7/10 73/9/10 47/7/10
f 47/7/10 73/9/10 48/9/10
f 50/9/6 76/7/6 49/7/6
f 52/9/6 76/7/6 50/9/6
f 63/8/6 76/7/6 52/9/6
f 76/7/6 63/8/6 82/8/6
f 77/7/4 26/8/4 27/7/4
f 26/8/4 77/7/4 83/8/4
f 46/9/6 77/7/6 45/7/6
f 71/9/6 77/7/6 46/9/6
f 72/8/6 77/7/6 71/9/6
f 77/7/6 72/8/6 83/8/6
f 84/8/4 24/6/4 28/8/4
f 24/6/4 84/8/4 85/6/4
f 86/6/5 32/8/5 29/6/5
f 32/8/5 86/6/5 60/8/5
f 16/5/11 11/5/11 13/5/11
f 11/5/11 16/5/11 14/5/11
f 13/5/10 17/2/10 16/5/10
f 17/2/10 13/5/10 12/2/10
f 17/2/10 12/2/10 3/2/10
f 34/1/10 3/2/10 12/2/10
f 3/2/10 34/1/10 2/1/10
f 2/1/10 34/1/10 37/3/10
f 2/1/10 37/3/10 4/3/10
f 4/3/10 37/3/10 36/4/10
f 4/3/10 36/4/10 6/4/10
f 6/4/10 36/4/10 86/6/10
f 86/6/10 36/4/10 43/9/10
f 86/6/10 43/9/10 59/8/10
f 59/8/10 43/9/10 68/9/10
f 60/8/10 86/6/10 59/8/10
f 87/6/10 6/4/10 86/6/10
f 87/6/10 9/4/10 6/4/10
f 9/4/10 87/6/10 65/7/10
f 9/4/10 65/7/10 54/9/10
f 54/9/10 65/7/10 53/9/10
f 65/7/10 87/6/10 88/8/10
f 88/8/10 87/6/10 89/8/10
f 65/7/10 88/8/10 90/7/10
f 1/1/12 17/2/12 3/2/12
f 17/2/12 1/1/12 35/1/12
f 6/4/13 7/3/13 5/3/13
f 7/3/13 6/4/13 9/4/13
f 89/8/4 92/6/4 91/8/4
f 92/6/4 89/8/4 87/6/4
f 84/8/6 92/6/6 85/6/6
f 92/6/6 84/8/6 91/8/6
f 64/7/9 90/7/9 93/7/9
f 90/7/9 64/7/9 65/7/9
f 64/7/6 94/8/6 66/8/6
f 94/8/6 64/7/6 93/7/6
f 90/7/4 94/8/4 93/7/4
f 94/8/4 90/7/4 88/8/4
f 72/8/9 26/8/9 83/8/9
f 72/8/9 28/8/9 26/8/9
f 28/8/9 72/8/9 84/8/9
f 84/8/9 72/8/9 66/8/9
f 94/8/9 84/8/9 66/8/9
f 94/8/9 91/8/9 84/8/9
f 91/8/9 94/8/9 89/8/9
f 88/8/9 89/8/9 94/8/9
f 72/8/9 63/8/9 66/8/9
f 63/8/9 72/8/9 74/8/9
f 63/8/9 74/8/9 81/8/9
f 63/8/9 81/8/9 82/8/9
f 8/4/14 54/9/14 51/9/14
f 54/9/14 8/4/14 9/4/14
f 97/10/14 96/10/15 95/10/15
f 96/10/15 97/10/14 98/10/14
f 101/10/16 100/10/17 99/10/16
f 100/10/17 101/10/16 102/10/17
f 101/10/9 98/10/9 102/10/9
f 98/10/9 101/10/9 96/10/9
f 97/10/11 99/10/11 100/10/11
f 99/10/11 97/10/11 95/10/11
f 95/10/15 101/10/16 99/10/16
f 101/10/16 95/10/15 96/10/15
f 105/10/14 104/10/15 103/10/15
f 104/10/15 105/10/14 106/10/14
f 109/10/16 108/10/17 107/10/16
f 108/10/17 109/10/16 110/10/17
f 109/10/9 106/10/9 110/10/9
f 106/10/9 109/10/9 104/10/9
f 105/10/11 107/10/11 108/10/11
f 107/10/11 105/10/11 103/10/11
f 103/10/15 109/10/16 107/10/16
f 109/10/16 103/10/15 104/10/15
f 113/10/14 112/10/15 111/10/15
f 112/10/15 113/10/14 114/10/14
f 117/10/16 116/10/17 115/10/16
f 116/10/17 117/10/16 118/10/17
f 117/10/9 114/10/9 118/10/9
f 114/10/9 117/10/9 112/10/9
f 113/10/11 115/10/11 116/10/11
f 115/10/11 113/10/11 111/10/11
f 111/10/15 117/10/16 115/10/16
f 117/10/16 111/10/15 112/10/15
f 37/11/4 19/12/4 21/11/4
f 19/12/4 37/11/4 34/12/4
f 35/12/5 20/11/5 18/12/5
f 20/11/5 35/12/5 7/11/5
f 24/13/9 86/13/9 29/13/9
f 86/13/9 24/13/9 92/13/9
f 92/13/9 24/13/9 85/13/9
f 87/13/9 86/13/9 92/13/9
f 2/12/5 5/11/5 1/12/5
f 5/11/5 2/12/5 4/11/5
f 5/11/10 35/12/10 1/12/10
f 35/12/10 5/11/10 7/11/10

g wall-to-narrow




usemtl colormap

f 3/2/1 2/1/1 1/1/1
f 6/4/2 5/3/2 4/3/2
f 9/4/3 8/4/3 7/3/3
f 12/2/4 11/5/4 10/2/4
f 11/5/4 12/2/4 13/5/4
f 16/5/5 15/2/5 14/5/5
f 15/2/5 16/5/5 17/2/5
f 15/2/6 11/5/6 14/5/6
f 11/5/6 15/2/6 10/2/6
f 10/2/6 15/2/6 18/1/6
f 10/2/6 18/1/6 19/1/6
f 19/1/6 18/1/6 20/3/6
f 19/1/6 20/3/6 21/3/6
f 21/3/6 20/3/6 22/4/6
f 21/3/6 22/4/6 23/4/6
f 23/4/6 22/4/6 24/6/6
f 24/6/6 22/4/6 25/7/6
f 24/6/6 25/7/6 26/8/6
f 26/8/6 25/7/6 27/7/6
f 28/8/6 24/6/6 26/8/6
f 29/6/6 23/4/6 24/6/6
f 23/4/6 29/6/6 30/7/6
f 30/7/6 29/6/6 31/8/6
f 31/8/6 29/6/6 32/8/6
f 30/7/6 31/8/6 33/7/6
f 34/1/7 10/2/7 19/1/7
f 10/2/7 34/1/7 12/2/7
f 15/2/1 35/1/1 18/1/1
f 35/1/1 15/2/1 17/2/1
f 7/3/2 22/4/2 20/3/2
f 22/4/2 7/3/2 8/4/2
f 36/4/8 21/3/8 23/4/8
f 21/3/8 36/4/8 37/3/8
f 40/9/4 39/7/4 38/9/4
f 41/7/4 39/7/4 40/9/4
f 36/4/4 39/7/4 41/7/4
f 36/4/4 41/7/4 42/7/4
f 23/4/4 39/7/4 36/4/4
f 39/7/4 23/4/4 30/7/4
f 36/4/4 42/7/4 43/9/4
f 43/9/4 42/7/4 44/9/4
f 8/4/5 25/7/5 22/4/5
f 25/7/5 8/4/5 45/7/5
f 45/7/5 8/4/5 46/9/5
f 46/9/5 8/4/5 47/7/5
f 48/9/5 46/9/5 47/7/5
f 47/7/5 8/4/5 49/7/5
f 49/7/5 8/4/5 50/9/5
f 50/9/5 8/4/5 51/9/5
f 50/9/9 53/9/9 52/9/9
f 53/9/9 50/9/9 54/9/9
f 54/9/9 50/9/9 51/9/9
f 32/8/9 55/8/9 31/8/9
f 55/8/9 32/8/9 56/8/9
f 56/8/9 32/8/9 57/8/9
f 57/8/9 32/8/9 58/8/9
f 58/8/9 32/8/9 59/8/9
f 59/8/9 32/8/9 60/8/9
f 61/8/9 57/8/9 58/8/9
f 57/8/9 61/8/9 62/8/9
f 53/9/4 63/8/4 52/9/4
f 63/8/4 53/9/4 64/7/4
f 64/7/4 53/9/4 65/7/4
f 66/8/4 63/8/4 64/7/4
f 59/8/5 67/9/5 58/8/5
f 67/9/5 59/8/5 68/9/5
f 57/8/5 69/9/5 56/8/5
f 69/9/5 57/8/5 70/9/5
f 69/9/9 40/9/9 38/9/9
f 40/9/9 69/9/9 70/9/9
f 44/9/9 68/9/9 43/9/9
f 68/9/9 44/9/9 67/9/9
f 73/9/4 72/8/4 71/9/4
f 72/8/4 73/9/4 74/8/4
f 46/9/9 73/9/9 71/9/9
f 73/9/9 46/9/9 48/9/9
f 47/7/9 76/7/9 75/7/9
f 76/7/9 47/7/9 49/7/9
f 25/7/9 77/7/9 27/7/9
f 77/7/9 25/7/9 45/7/9
f 78/7/9 42/7/9 41/7/9
f 42/7/9 78/7/9 79/7/9
f 33/7/9 39/7/9 30/7/9
f 39/7/9 33/7/9 80/7/9
f 55/8/5 33/7/5 31/8/5
f 33/7/5 55/8/5 80/7/5
f 69/9/6 55/8/6 56/8/6
f 55/8/6 69/9/6 80/7/6
f 80/7/6 69/9/6 39/7/6
f 39/7/6 69/9/6 38/9/6
f 61/8/5 78/7/5 62/8/5
f 78/7/5 61/8/5 79/7/5
f 67/9/6 61/8/6 58/8/6
f 61/8/6 67/9/6 79/7/6
f 79/7/6 67/9/6 42/7/6
f 42/7/6 67/9/6 44/9/6
f 40/9/10 78/7/10 41/7/10
f 70/9/10 78/7/10 40/9/10
f 57/8/10 78/7/10 70/9/10
f 78/7/10 57/8/10 62/8/10
f 76/7/4 81/8/4 75/7/4
f 81/8/4 76/7/4 82/8/4
f 73/9/10 81/8/10 74/8/10
f 81/8/10 73/9/10 75/7/10
f 75/7/10 73/9/10 47/7/10
f 47/7/10 73/9/10 48/9/10
f 50/9/6 76/7/6 49/7/6
f 52/9/6 76/7/6 50/9/6
f 63/8/6 76/7/6 52/9/6
f 76/7/6 63/8/6 82/8/6
f 77/7/4 26/8/4 27/7/4
f 26/8/4 77/7/4 83/8/4
f 46/9/6 77/7/6 45/7/6
f 71/9/6 77/7/6 46/9/6
f 72/8/6 77/7/6 71/9/6
f 77/7/6 72/8/6 83/8/6
f 84/8/4 24/6/4 28/8/4
f 24/6/4 84/8/4 85/6/4
f 86/6/5 32/8/5 29/6/5
f 32/8/5 86/6/5 60/8/5
f 16/5/11 11/5/11 13/5/11
f 11/5/11 16/5/11 14/5/11
f 13/5/10 17/2/10 16/5/10
f 17/2/10 13/5/10 12/2/10
f 17/2/10 12/2/10 3/2/10
f 34/1/10 3/2/10 12/2/10
f 3/2/10 34/1/10 2/1/10
f 2/1/10 34/1/10 37/3/10
f 2/1/10 37/3/10 4/3/10
f 4/3/10 37/3/10 36/4/10
f 4/3/10 36/4/10 6/4/10
f 6/4/10 36/4/10 86/6/10
f 86/6/10 36/4/10 43/9/10
f 86/6/10 43/9/10 59/8/10
f 59/8/10 43/9/10 68/9/10
f 60/8/10 86/6/10 59/8/10
f 87/6/10 6/4/10 86/6/10
f 87/6/10 9/4/10 6/4/10
f 9/4/10 87/6/10 65/7/10
f 9/4/10 65/7/10 54/9/10
f 54/9/10 65/7/10 53/9/10
f 65/7/10 87/6/10 88/8/10
f 88/8/10 87/6/10 89/8/10
f 65/7/10 88/8/10 90/7/10
f 1/1/12 17/2/12 3/2/12
f 17/2/12 1/1/12 35/1/12
f 6/4/13 7/3/13 5/3/13
f 7/3/13 6/4/13 9/4/13
f 89/8/4 92/6/4 91/8/4
f 92/6/4 89/8/4 87/6/4
f 84/8/6 92/6/6 85/6/6
f 92/6/6 84/8/6 91/8/6
f 64/7/9 90/7/9 93/7/9
f 90/7/9 64/7/9 65/7/9
f 64/7/6 94/8/6 66/8/6
f 94/8/6 64/7/6 93/7/6
f 90/7/4 94/8/4 93/7/4
f 94/8/4 90/7/4 88/8/4
f 72/8/9 26/8/9 83/8/9
f 72/8/9 28/8/9 26/8/9
f 28/8/9 72/8/9 84/8/9
f 84/8/9 72/8/9 66/8/9
f 94/8/9 84/8/9 66/8/9
f 94/8/9 91/8/9 84/8/9
f 91/8/9 94/8/9 89/8/9
f 88/8/9 89/8/9 94/8/9
f 72/8/9 63/8/9 66/8/9
f 63/8/9 72/8/9 74/8/9
f 63/8/9 74/8/9 81/8/9
f 63/8/9 81/8/9 82/8/9
f 8/4/14 54/9/14 51/9/14
f 54/9/14 8/4/14 9/4/14
f 97/10/14 96/10/15 95/10/15
f 96/10/15 97/10/14 98/10/14
f 101/10/16 100/10/17 99/10/16
f 100/10/17 101/10/16 102/10/17
f 101/10/9 98/10/9 102/10/9
f 98/10/9 101/10/9 96/10/9
f 97/10/11 99/10/11 100/10/11
f 99/10/11 97/10/11 95/10/11
f 95/10/15 101/10/16 99/10/16
f 101/10/16 95/10/15 96/10/15
f 105/10/14 104/10/15 103/10/15
f 104/10/15 105/10/14 106/10/14
f 109/10/16 108/10/17 107/10/16
f 108/10/17 109/10/16 110/10/17
f 109/10/9 106/10/9 110/10/9
f 106/10/9 109/10/9 104/10/9
f 105/10/11 107/10/11 108/10/11
f 107/10/11 105/10/11 103/10/11
f 103/10/15 109/10/16 107/10/16
f 109/10/16 103/10/15 104/10/15
f 113/10/14 112/10/15 111/10/15
f 112/10/15 113/10/14 114/10/14
f 117/10/16 116/10/17 115/10/16
f 116/10/17 117/10/16 118/10/17
f 117/10/9 114/10/9 118/10/9
f 114/10/9 117/10/9 112/10/9
f 113/10/11 115/10/11 116/10/11
f 115/10/11 113/10/11 111/10/11
f 111/10/15 117/10/16 115/10/16
f 117/10/16 111/10/15 112/10/15
f 37/11/4 19/12/4 21/11/4
f 19/12/4 37/11/4 34/12/4
f 35/12/5 20/11/5 18/12/5
f 20/11/5 35/12/5 7/11/5
f 24/13/9 86/13/9 29/13/9
f 86/13/9 24/13/9 92/13/9
f 92/13/9 24/13/9 85/13/9
f 87/13/9 86/13/9 92/13/9
f 2/12/5 5/11/5 1/12/5
f 5/11/5 2/12/5 4/11/5
f 5/11/10 35/12/10 1/12/10
f 35/12/10 5/11/10 7/11/10

