# Created by Kenney (www.kenney.nl)

mtllib wall-corner-slant.mtl

g wall-corner-slant

v -0.5 0.28 0.5 1 1 1
v -0.5 0.45 0.465 1 1 1
v -0.465 0.45 0.5 1 1 1
v -0.465 1.01 0.5 1 1 1
v -0.5 1.01 0.465 1 1 1
v -0.5 1.11 0.5 1 1 1
v -0.5 0 -0.5 1 1 1
v -0.1045822 1.972852E-16 -0.5 1 1 1
v -0.5 0.28 -0.5 1 1 1
v -0.1045822 0.28 -0.5 1 1 1
v 0.5 5.414336E-16 0.5 1 1 1
v -0.5 5.414336E-16 0.5 1 1 1
v 0.5 0.28 0.5 1 1 1
v 0.465 0.45 0.5 1 1 1
v 0.465 1.01 0.5 1 1 1
v 0.5 1.11 0.5 1 1 1
v -0.5 1.18 0.5 1 1 1
v 0.2908356 1.18 0.5 1 1 1
v 0.5 1.31 0.5 1 1 1
v 0.3304951 1.22 0.5 1 1 1
v 0.3304951 1.31 0.5 1 1 1
v 0.2908356 1.22 0.5 1 1 1
v -0.5 1.22 -0.3304951 1 1 1
v -0.5 1.31 -0.3304951 1 1 1
v -0.25 1.22 -0.3304951 1 1 1
v -0.25 1.31 -0.3304951 1 1 1
v -0.25 1.31 -0.5 1 1 1
v -0.25 1.265 -0.5 1 1 1
v -0.25 1.265 -0.3804951 1 1 1
v -0.25 1.22 -0.3804951 1 1 1
v -0.5 1.31 -0.5 1 1 1
v 0.3304951 1.22 0.25 1 1 1
v 0.3304951 1.31 0.25 1 1 1
v 0.5 1.265 0.1045822 1 1 1
v 0.5 1.265 0.25 1 1 1
v 0.3488545 1.265 -0.04656337 1 1 1
v 0.3804951 1.265 0.1045822 1 1 1
v 0.289102 1.265 0.0131891 1 1 1
v 0.3804951 1.265 0.25 1 1 1
v -0.1045822 1.22 -0.3804951 1 1 1
v -0.1045822 1.265 -0.3804951 1 1 1
v 0.04656337 1.265 -0.3488545 1 1 1
v -0.0131891 1.265 -0.289102 1 1 1
v -0.1045822 1.265 -0.5 1 1 1
v 0.3804951 1.22 0.1045822 1 1 1
v 0.3804951 1.22 0.25 1 1 1
v 0.5 1.31 0.25 1 1 1
v -0.5 0.45 -0.465 1 1 1
v -0.5 1.01 -0.465 1 1 1
v -0.5 1.11 -0.5 1 1 1
v -0.5 1.18 -0.2908356 1 1 1
v -0.5 1.22 -0.2908356 1 1 1
v -0.06958217 0.45 -0.465 1 1 1
v 0.465 0.45 0.06958217 1 1 1
v 0.5 0.28 0.1045822 1 1 1
v 0.5 1.11 0.1045822 1 1 1
v -0.1045822 1.11 -0.5 1 1 1
v -0.1045822 1.18 -0.2908356 1 1 1
v -0.1045822 1.22 -0.2908356 1 1 1
v -0.06958217 1.01 -0.465 1 1 1
v 0.2908356 1.22 0.1045822 1 1 1
v 0.2908356 1.18 0.1045822 1 1 1
v 0.3488545 1.31 -0.04656337 1 1 1
v 0.04656337 1.31 -0.3488545 1 1 1
v 0.465 1.01 0.06958217 1 1 1
v 0.5 5.414336E-16 0.1045822 1 1 1
v 0.2608177 1.31 0.04147337 1 1 1
v -0.04147337 1.31 -0.2608177 1 1 1
v 0.289102 1.22 0.0131891 1 1 1
v 0.2608177 1.22 0.04147337 1 1 1
v -0.04147337 1.22 -0.2608177 1 1 1
v -0.0131891 1.22 -0.289102 1 1 1

vn -0.6997307 0.1440622 0.6997307
vn -0.6863982 -0.2402394 0.6863982
vn 0 0 -1
vn 0 0 1
vn 1 0 0
vn 0 1 0
vn -1 0 0
vn 0 0.2016529 -0.9794571
vn -0.7071068 0 0.7071068
vn 0.9794571 0.2016529 0
vn 0 -0.3303504 -0.9438583
vn 0.7071068 0 -0.7071068
vn 0 -1 0
vn 0.9438583 -0.3303504 0
vn 0.7071068 0 0.7071068
vn -0.7071068 0 -0.7071068

vt 0.84375 0.06774809
vt 0.84375 0.09370229
vt 0.84375 0.1791985
vt 0.84375 0.1944656
vt 0.84375 0.025
vt 0.84375 0.2051527
vt 0.84375 0.225
vt 0.84375 0.2112595
vt 0.84375 0.2181298
vt 0.96875 0.1791985
vt 0.96875 0.09370229
vt 0.96875 0.2051527

usemtl colormap

f 3/2/1 2/2/1 1/1/1
f 6/4/2 5/3/2 4/3/2
f 9/1/3 8/5/3 7/5/3
f 8/5/3 9/1/3 10/1/3
f 13/1/4 12/5/4 11/5/4
f 12/5/4 13/1/4 1/1/4
f 1/1/4 13/1/4 14/2/4
f 1/1/4 14/2/4 3/2/4
f 3/2/4 14/2/4 15/3/4
f 3/2/4 15/3/4 4/3/4
f 4/3/4 15/3/4 16/4/4
f 4/3/4 16/4/4 6/4/4
f 6/4/4 16/4/4 17/6/4
f 17/6/4 16/4/4 18/6/4
f 18/6/4 16/4/4 19/7/4
f 18/6/4 19/7/4 20/8/4
f 20/8/4 19/7/4 21/7/4
f 22/8/4 18/6/4 20/8/4
f 25/8/4 24/7/4 23/8/4
f 24/7/4 25/8/4 26/7/4
f 26/7/5 28/9/5 27/7/5
f 28/9/5 26/7/5 29/9/5
f 29/9/5 26/7/5 30/8/5
f 30/8/5 26/7/5 25/8/5
f 27/7/6 24/7/6 26/7/6
f 24/7/6 27/7/6 31/7/6
f 20/8/7 33/7/7 32/8/7
f 33/7/7 20/8/7 21/7/7
f 36/9/6 35/9/6 34/9/6
f 35/9/6 36/9/6 37/9/6
f 37/9/6 36/9/6 38/9/6
f 39/9/6 35/9/6 37/9/6
f 40/8/4 29/9/4 30/8/4
f 29/9/4 40/8/4 41/9/4
f 44/9/6 43/9/6 42/9/6
f 43/9/6 44/9/6 41/9/6
f 41/9/6 44/9/6 29/9/6
f 29/9/6 44/9/6 28/9/6
f 46/8/7 37/9/7 45/8/7
f 37/9/7 46/8/7 39/9/7
f 33/7/3 46/8/3 32/8/3
f 46/8/3 33/7/3 39/9/3
f 39/9/3 33/7/3 35/9/3
f 35/9/3 33/7/3 47/7/3
f 47/7/6 21/7/6 19/7/6
f 21/7/6 47/7/6 33/7/6
f 12/5/7 9/1/7 7/5/7
f 9/1/7 12/5/7 48/2/7
f 48/2/7 12/5/7 49/3/7
f 49/3/7 12/5/7 23/8/7
f 24/7/7 49/3/7 23/8/7
f 31/7/7 49/3/7 24/7/7
f 49/3/7 31/7/7 50/4/7
f 23/8/7 12/5/7 51/6/7
f 52/8/7 23/8/7 51/6/7
f 51/6/7 12/5/7 2/2/7
f 2/2/7 12/5/7 1/1/7
f 5/3/7 51/6/7 2/2/7
f 51/6/7 5/3/7 17/6/7
f 17/6/7 5/3/7 6/4/7
f 48/2/8 10/1/8 9/1/8
f 10/1/8 48/2/8 53/2/8
f 3/2/9 5/3/9 2/2/9
f 5/3/9 3/2/9 4/3/9
f 14/2/10 55/1/10 54/2/10
f 55/1/10 14/2/10 13/1/10
f 19/7/5 35/9/5 47/7/5
f 16/4/5 35/9/5 19/7/5
f 56/4/5 35/9/5 16/4/5
f 35/9/5 56/4/5 34/9/5
f 31/7/3 57/4/3 50/4/3
f 57/4/3 31/7/3 28/9/3
f 28/9/3 31/7/3 27/7/3
f 44/9/3 57/4/3 28/9/3
f 58/6/4 52/8/4 51/6/4
f 52/8/4 58/6/4 59/8/4
f 50/4/11 60/3/11 49/3/11
f 60/3/11 50/4/11 57/4/11
f 62/6/7 22/8/7 61/8/7
f 22/8/7 62/6/7 18/6/7
f 62/6/9 59/8/9 58/6/9
f 59/8/9 62/6/9 61/8/9
f 36/9/12 64/7/12 63/7/12
f 64/7/12 36/9/12 42/9/12
f 36/9/12 44/9/12 42/9/12
f 56/4/12 44/9/12 36/9/12
f 56/4/12 36/9/12 34/9/12
f 44/9/12 56/4/12 57/4/12
f 65/10/12 57/4/12 56/4/12
f 57/4/12 65/10/12 60/10/12
f 13/1/5 66/5/5 55/1/5
f 66/5/5 13/1/5 11/5/5
f 12/5/13 66/5/13 11/5/13
f 66/5/13 12/5/13 8/5/13
f 8/5/13 12/5/13 7/5/13
f 10/1/12 66/5/12 8/5/12
f 66/5/12 10/1/12 55/1/12
f 55/1/12 10/1/12 53/11/12
f 55/1/12 53/11/12 54/11/12
f 56/4/14 15/3/14 65/3/14
f 15/3/14 56/4/14 16/4/14
f 64/7/6 67/7/6 63/7/6
f 67/7/6 64/7/6 68/7/6
f 67/7/15 36/9/15 63/7/15
f 36/9/15 67/7/15 38/9/15
f 38/9/15 67/7/15 69/8/15
f 69/8/15 67/7/15 70/8/15
f 68/7/16 72/8/16 71/8/16
f 72/8/16 68/7/16 43/9/16
f 43/9/16 68/7/16 42/9/16
f 42/9/16 68/7/16 64/7/16
f 67/7/9 71/8/9 70/8/9
f 71/8/9 67/7/9 68/7/9
f 40/8/6 71/8/6 72/8/6
f 59/8/6 71/8/6 40/8/6
f 59/8/6 40/8/6 30/8/6
f 59/8/6 70/8/6 71/8/6
f 59/8/6 30/8/6 25/8/6
f 25/8/6 52/8/6 59/8/6
f 52/8/6 25/8/6 23/8/6
f 61/8/6 70/8/6 59/8/6
f 61/8/6 69/8/6 70/8/6
f 20/8/6 69/8/6 61/8/6
f 20/8/6 61/8/6 22/8/6
f 32/8/6 69/8/6 20/8/6
f 46/8/6 69/8/6 32/8/6
f 69/8/6 46/8/6 45/8/6
f 43/9/9 40/8/9 72/8/9
f 40/8/9 43/9/9 41/9/9
f 45/8/9 38/9/9 69/8/9
f 38/9/9 45/8/9 37/9/9
f 49/10/3 53/11/3 48/11/3
f 53/11/3 49/10/3 60/10/3
f 62/12/6 17/12/6 18/12/6
f 17/12/6 62/12/6 58/12/6
f 17/12/6 58/12/6 51/12/6
f 65/10/5 14/11/5 54/11/5
f 14/11/5 65/10/5 15/10/5
f 60/10/12 54/11/12 53/11/12
f 54/11/12 60/10/12 65/10/12

g wall-corner-slant




usemtl colormap

f 3/2/1 2/2/1 1/1/1
f 6/4/2 5/3/2 4/3/2
f 9/1/3 8/5/3 7/5/3
f 8/5/3 9/1/3 10/1/3
f 13/1/4 12/5/4 11/5/4
f 12/5/4 13/1/4 1/1/4
f 1/1/4 13/1/4 14/2/4
f 1/1/4 14/2/4 3/2/4
f 3/2/4 14/2/4 15/3/4
f 3/2/4 15/3/4 4/3/4
f 4/3/4 15/3/4 16/4/4
f 4/3/4 16/4/4 6/4/4
f 6/4/4 16/4/4 17/6/4
f 17/6/4 16/4/4 18/6/4
f 18/6/4 16/4/4 19/7/4
f 18/6/4 19/7/4 20/8/4
f 20/8/4 19/7/4 21/7/4
f 22/8/4 18/6/4 20/8/4
f 25/8/4 24/7/4 23/8/4
f 24/7/4 25/8/4 26/7/4
f 26/7/5 28/9/5 27/7/5
f 28/9/5 26/7/5 29/9/5
f 29/9/5 26/7/5 30/8/5
f 30/8/5 26/7/5 25/8/5
f 27/7/6 24/7/6 26/7/6
f 24/7/6 27/7/6 31/7/6
f 20/8/7 33/7/7 32/8/7
f 33/7/7 20/8/7 21/7/7
f 36/9/6 35/9/6 34/9/6
f 35/9/6 36/9/6 37/9/6
f 37/9/6 36/9/6 38/9/6
f 39/9/6 35/9/6 37/9/6
f 40/8/4 29/9/4 30/8/4
f 29/9/4 40/8/4 41/9/4
f 44/9/6 43/9/6 42/9/6
f 43/9/6 44/9/6 41/9/6
f 41/9/6 44/9/6 29/9/6
f 29/9/6 44/9/6 28/9/6
f 46/8/7 37/9/7 45/8/7
f 37/9/7 46/8/7 39/9/7
f 33/7/3 46/8/3 32/8/3
f 46/8/3 33/7/3 39/9/3
f 39/9/3 33/7/3 35/9/3
f 35/9/3 33/7/3 47/7/3
f 47/7/6 21/7/6 19/7/6
f 21/7/6 47/7/6 33/7/6
f 12/5/7 9/1/7 7/5/7
f 9/1/7 12/5/7 48/2/7
f 48/2/7 12/5/7 49/3/7
f 49/3/7 12/5/7 23/8/7
f 24/7/7 49/3/7 23/8/7
f 31/7/7 49/3/7 24/7/7
f 49/3/7 31/7/7 50/4/7
f 23/8/7 12/5/7 51/6/7
f 52/8/7 23/8/7 51/6/7
f 51/6/7 12/5/7 2/2/7
f 2/2/7 12/5/7 1/1/7
f 5/3/7 51/6/7 2/2/7
f 51/6/7 5/3/7 17/6/7
f 17/6/7 5/3/7 6/4/7
f 48/2/8 10/1/8 9/1/8
f 10/1/8 48/2/8 53/2/8
f 3/2/9 5/3/9 2/2/9
f 5/3/9 3/2/9 4/3/9
f 14/2/10 55/1/10 54/2/10
f 55/1/10 14/2/10 13/1/10
f 19/7/5 35/9/5 47/7/5
f 16/4/5 35/9/5 19/7/5
f 56/4/5 35/9/5 16/4/5
f 35/9/5 56/4/5 34/9/5
f 31/7/3 57/4/3 50/4/3
f 57/4/3 31/7/3 28/9/3
f 28/9/3 31/7/3 27/7/3
f 44/9/3 57/4/3 28/9/3
f 58/6/4 52/8/4 51/6/4
f 52/8/4 58/6/4 59/8/4
f 50/4/11 60/3/11 49/3/11
f 60/3/11 50/4/11 57/4/11
f 62/6/7 22/8/7 61/8/7
f 22/8/7 62/6/7 18/6/7
f 62/6/9 59/8/9 58/6/9
f 59/8/9 62/6/9 61/8/9
f 36/9/12 64/7/12 63/7/12
f 64/7/12 36/9/12 42/9/12
f 36/9/12 44/9/12 42/9/12
f 56/4/12 44/9/12 36/9/12
f 56/4/12 36/9/12 34/9/12
f 44/9/12 56/4/12 57/4/12
f 65/10/12 57/4/12 56/4/12
f 57/4/12 65/10/12 60/10/12
f 13/1/5 66/5/5 55/1/5
f 66/5/5 13/1/5 11/5/5
f 12/5/13 66/5/13 11/5/13
f 66/5/13 12/5/13 8/5/13
f 8/5/13 12/5/13 7/5/13
f 10/1/12 66/5/12 8/5/12
f 66/5/12 10/1/12 55/1/12
f 55/1/12 10/1/12 53/11/12
f 55/1/12 53/11/12 54/11/12
f 56/4/14 15/3/14 65/3/14
f 15/3/14 56/4/14 16/4/14
f 64/7/6 67/7/6 63/7/6
f 67/7/6 64/7/6 68/7/6
f 67/7/15 36/9/15 63/7/15
f 36/9/15 67/7/15 38/9/15
f 38/9/15 67/7/15 69/8/15
f 69/8/15 67/7/15 70/8/15
f 68/7/16 72/8/16 71/8/16
f 72/8/16 68/7/16 43/9/16
f 43/9/16 68/7/16 42/9/16
f 42/9/16 68/7/16 64/7/16
f 67/7/9 71/8/9 70/8/9
f 71/8/9 67/7/9 68/7/9
f 40/8/6 71/8/6 72/8/6
f 59/8/6 71/8/6 40/8/6
f 59/8/6 40/8/6 30/8/6
f 59/8/6 70/8/6 71/8/6
f 59/8/6 30/8/6 25/8/6
f 25/8/6 52/8/6 59/8/6
f 52/8/6 25/8/6 23/8/6
f 61/8/6 70/8/6 59/8/6
f 61/8/6 69/8/6 70/8/6
f 20/8/6 69/8/6 61/8/6
f 20/8/6 61/8/6 22/8/6
f 32/8/6 69/8/6 20/8/6
f 46/8/6 69/8/6 32/8/6
f 69/8/6 46/8/6 45/8/6
f 43/9/9 40/8/9 72/8/9
f 40/8/9 43/9/9 41/9/9
f 45/8/9 38/9/9 69/8/9
f 38/9/9 45/8/9 37/9/9
f 49/10/3 53/11/3 48/11/3
f 53/11/3 49/10/3 60/10/3
f 62/12/6 17/12/6 18/12/6
f 17/12/6 62/12/6 58/12/6
f 17/12/6 58/12/6 51/12/6
f 65/10/5 14/11/5 54/11/5
f 14/11/5 65/10/5 15/10/5
f 60/10/12 54/11/12 53/11/12
f 54/11/12 60/10/12 65/10/12

